<?xml version="1.0" standalone="no"?>
<!DOCTYPE svg PUBLIC "-//W3C//DTD SVG 20010904//EN"
 "http://www.w3.org/TR/2001/REC-SVG-20010904/DTD/svg10.dtd">
<svg version="1.0" xmlns="http://www.w3.org/2000/svg"
 width="2084.000000pt" height="2084.000000pt" viewBox="0 0 2084.000000 2084.000000"
 preserveAspectRatio="xMidYMid meet">

<g transform="translate(0.000000,2084.000000) scale(0.100000,-0.100000)"
fill="#000000" stroke="none">
<path d="M10070 18249 c-549 -37 -1099 -142 -1570 -299 -772 -258 -1439 -664
-2085 -1267 -325 -304 -512 -516 -625 -709 -36 -61 -40 -76 -40 -135 0 -118
78 -241 192 -301 36 -19 58 -23 133 -23 76 0 97 4 135 24 75 40 98 61 228 216
396 471 859 861 1377 1160 142 82 466 241 630 309 765 316 1598 439 2437 360
l167 -16 427 255 c234 140 422 257 418 260 -5 2 -81 21 -169 40 -289 65 -567
105 -875 127 -168 11 -598 11 -780 -1z"/>
</g>
</svg>
