<?xml version="1.0" encoding="UTF-8"?>
<svg id="Layer_1" data-name="Layer 1" xmlns="http://www.w3.org/2000/svg" xmlns:xlink="http://www.w3.org/1999/xlink" viewBox="0 0 240 240">
  <defs>
    <style>
      .cls-1 {
        fill: url(#_未命名漸層_2-4);
      }

      .cls-2 {
        fill: url(#_未命名漸層_2-20);
      }

      .cls-3 {
        fill: url(#_未命名漸層_2-3);
      }

      .cls-4 {
        fill: url(#_未命名漸層_2-29);
      }

      .cls-5 {
        opacity: .5;
      }

      .cls-6 {
        fill: url(#_未命名漸層_2);
      }

      .cls-7 {
        fill: url(#_未命名漸層_2-26);
      }

      .cls-8 {
        fill: url(#_未命名漸層_2-16);
      }

      .cls-9 {
        fill: url(#_未命名漸層_2-10);
      }

      .cls-10 {
        fill: url(#_未命名漸層_2-28);
      }

      .cls-11 {
        fill: url(#_未命名漸層_2-14);
      }

      .cls-12 {
        fill: url(#_未命名漸層_2-5);
      }

      .cls-13 {
        clip-path: url(#clippath-1);
      }

      .cls-14 {
        fill: url(#_未命名漸層_2-21);
      }

      .cls-15 {
        fill: url(#_未命名漸層_2-19);
      }

      .cls-16 {
        fill: url(#_未命名漸層_2-12);
      }

      .cls-17 {
        fill: url(#_未命名漸層_2-23);
      }

      .cls-18 {
        fill: url(#_未命名漸層_2-13);
      }

      .cls-19 {
        fill: url(#_未命名漸層_2-7);
      }

      .cls-20 {
        fill: url(#_未命名漸層_2-11);
      }

      .cls-21 {
        fill: url(#_未命名漸層_2-15);
      }

      .cls-22 {
        fill: url(#_未命名漸層_2-8);
      }

      .cls-23 {
        clip-path: url(#clippath);
      }

      .cls-24 {
        fill: none;
      }

      .cls-25 {
        fill: url(#_未命名漸層_2-2);
      }

      .cls-26 {
        fill: url(#_未命名漸層_2-18);
      }

      .cls-27 {
        fill: url(#_未命名漸層_2-25);
      }

      .cls-28 {
        fill: url(#_未命名漸層_2-22);
      }

      .cls-29 {
        fill: url(#_未命名漸層_2-9);
      }

      .cls-30 {
        fill: url(#_未命名漸層_2-24);
      }

      .cls-31 {
        fill: url(#_未命名漸層_2-17);
      }

      .cls-32 {
        fill: url(#_未命名漸層_2-6);
      }

      .cls-33 {
        fill: url(#_未命名漸層_2-27);
      }
    </style>
    <clipPath id="clippath">
      <rect class="cls-24" y="-1156" width="1920" height="1080"/>
    </clipPath>
    <clipPath id="clippath-1">
      <rect class="cls-24" x="28.72" y="-1454.72" width="2010.4" height="1587.95" transform="translate(206.24 245.08) rotate(-15)"/>
    </clipPath>
    <linearGradient id="_未命名漸層_2" data-name="未命名漸層 2" x1="-241.66" y1="1531.01" x2="-151.68" y2="1564.79" gradientTransform="translate(-78.26 -1456.01) rotate(-15)" gradientUnits="userSpaceOnUse">
      <stop offset=".1" stop-color="#5a79b5"/>
      <stop offset=".25" stop-color="#7683b6"/>
      <stop offset=".49" stop-color="#9d91b8"/>
      <stop offset=".68" stop-color="#b69ab9"/>
      <stop offset=".8" stop-color="#bf9eba"/>
    </linearGradient>
    <linearGradient id="_未命名漸層_2-2" data-name="未命名漸層 2" x1="-241.15" y1="1529.64" x2="-151.16" y2="1563.42" xlink:href="#_未命名漸層_2"/>
    <linearGradient id="_未命名漸層_2-3" data-name="未命名漸層 2" x1="-239.81" y1="1526.07" x2="-149.82" y2="1559.86" xlink:href="#_未命名漸層_2"/>
    <linearGradient id="_未命名漸層_2-4" data-name="未命名漸層 2" x1="-241.13" y1="1518.92" x2="-146.43" y2="1554.47" xlink:href="#_未命名漸層_2"/>
    <linearGradient id="_未命名漸層_2-5" data-name="未命名漸層 2" x1="-236.65" y1="1517.65" x2="-146.66" y2="1551.44" xlink:href="#_未命名漸層_2"/>
    <linearGradient id="_未命名漸層_2-6" data-name="未命名漸層 2" x1="-238.54" y1="1522.69" x2="-148.55" y2="1556.48" xlink:href="#_未命名漸層_2"/>
    <linearGradient id="_未命名漸層_2-7" data-name="未命名漸層 2" x1="-196.83" y1="1551.34" x2="-180.58" y2="1557.44" xlink:href="#_未命名漸層_2"/>
    <linearGradient id="_未命名漸層_2-8" data-name="未命名漸層 2" x1="-187.14" y1="1553.99" x2="-178.01" y2="1557.42" xlink:href="#_未命名漸層_2"/>
    <linearGradient id="_未命名漸層_2-9" data-name="未命名漸層 2" x1="-178.99" y1="1555.27" x2="-170.72" y2="1558.37" xlink:href="#_未命名漸層_2"/>
    <linearGradient id="_未命名漸層_2-10" data-name="未命名漸層 2" x1="-182.54" y1="1551.66" x2="-165.61" y2="1558.02" xlink:href="#_未命名漸層_2"/>
    <linearGradient id="_未命名漸層_2-11" data-name="未命名漸層 2" x1="-178.35" y1="1551.66" x2="-161.4" y2="1558.02" xlink:href="#_未命名漸層_2"/>
    <linearGradient id="_未命名漸層_2-12" data-name="未命名漸層 2" x1="-171.96" y1="1552.53" x2="-159.05" y2="1557.38" xlink:href="#_未命名漸層_2"/>
    <linearGradient id="_未命名漸層_2-13" data-name="未命名漸層 2" x1="-176.25" y1="1552.16" x2="-170.97" y2="1554.15" xlink:href="#_未命名漸層_2"/>
    <linearGradient id="_未命名漸層_2-14" data-name="未命名漸層 2" x1="-246.3" y1="1522.49" x2="-149.09" y2="1558.98" xlink:href="#_未命名漸層_2"/>
    <linearGradient id="_未命名漸層_2-15" data-name="未命名漸層 2" x1="-241.96" y1="1531.79" x2="-151.97" y2="1565.57" xlink:href="#_未命名漸層_2"/>
    <linearGradient id="_未命名漸層_2-16" data-name="未命名漸層 2" x1="-242.82" y1="1534.08" x2="-152.83" y2="1567.87" xlink:href="#_未命名漸層_2"/>
    <linearGradient id="_未命名漸層_2-17" data-name="未命名漸層 2" x1="-243.69" y1="1536.4" x2="-153.7" y2="1570.19" xlink:href="#_未命名漸層_2"/>
    <linearGradient id="_未命名漸層_2-18" data-name="未命名漸層 2" x1="-245.62" y1="1541.54" x2="-155.63" y2="1575.32" xlink:href="#_未命名漸層_2"/>
    <linearGradient id="_未命名漸層_2-19" data-name="未命名漸層 2" x1="-247.51" y1="1546.59" x2="-157.53" y2="1580.37" xlink:href="#_未命名漸層_2"/>
    <linearGradient id="_未命名漸層_2-20" data-name="未命名漸層 2" x1="-247.94" y1="1547.73" x2="-157.95" y2="1581.51" xlink:href="#_未命名漸層_2"/>
    <linearGradient id="_未命名漸層_2-21" data-name="未命名漸層 2" x1="-250.49" y1="1554.52" x2="-160.5" y2="1588.3" xlink:href="#_未命名漸層_2"/>
    <linearGradient id="_未命名漸層_2-22" data-name="未命名漸層 2" x1="-251.4" y1="1556.95" x2="-161.42" y2="1590.74" xlink:href="#_未命名漸層_2"/>
    <linearGradient id="_未命名漸層_2-23" data-name="未命名漸層 2" x1="-146.96" y1="1690.45" x2="-56.97" y2="1724.24" xlink:href="#_未命名漸層_2"/>
    <linearGradient id="_未命名漸層_2-24" data-name="未命名漸層 2" x1="-147.82" y1="1692.75" x2="-57.83" y2="1726.53" xlink:href="#_未命名漸層_2"/>
    <linearGradient id="_未命名漸層_2-25" data-name="未命名漸層 2" x1="-148.69" y1="1695.07" x2="-58.7" y2="1728.85" xlink:href="#_未命名漸層_2"/>
    <linearGradient id="_未命名漸層_2-26" data-name="未命名漸層 2" x1="-150.62" y1="1700.2" x2="-60.63" y2="1733.99" xlink:href="#_未命名漸層_2"/>
    <linearGradient id="_未命名漸層_2-27" data-name="未命名漸層 2" x1="-152.51" y1="1705.25" x2="-62.53" y2="1739.04" xlink:href="#_未命名漸層_2"/>
    <linearGradient id="_未命名漸層_2-28" data-name="未命名漸層 2" x1="-152.94" y1="1706.39" x2="-62.95" y2="1740.18" xlink:href="#_未命名漸層_2"/>
    <linearGradient id="_未命名漸層_2-29" data-name="未命名漸層 2" x1="-155.49" y1="1713.18" x2="-65.5" y2="1746.96" xlink:href="#_未命名漸層_2"/>
  </defs>
  <g class="cls-5">
    <g class="cls-23">
      <g class="cls-13">
        <g>
          <g>
            <path class="cls-6" d="M121.53,79.93c-.37-.06-.72,.11-.95,.45l-3.27,5.66-5.64-3.26c-.3-.17-.78-.2-1.09,.09-.29,.22-.42,.61-.31,.99l3.42,12.77c.14,.54,.64,.83,1.18,.68s.82-.67,.68-1.18l-2.82-10.51c1.16,.68,2.69,1.56,3.61,2.07l-.13,.23c-.13,.22-.17,.48-.1,.73s.23,.45,.45,.58c.47,.27,1.04,.12,1.3-.34,0-.01,.63-1.07,.63-1.07,0,0,1.92-3.34,2.57-4.46,.75,2.82,2.3,8.71,2.71,10.27l.1,.38c.14,.51,.72,.8,1.24,.67s.81-.66,.67-1.19l-3.45-12.87c-.11-.4-.42-.67-.8-.71Z"/>
            <path class="cls-25" d="M126.67,82.89c-.54,.14-.83,.64-.68,1.18l2.32,8.66c.14,.54,.64,.83,1.18,.68s.82-.67,.68-1.18l-2.32-8.66c-.14-.51-.67-.82-1.18-.68Z"/>
            <path class="cls-3" d="M137.29,81.44c.22,.13,.49,.16,.74,.1s.47-.23,.6-.46l.02-.05c.19-.43,.05-.94-.33-1.22l-1.69-.94c-.24-.14-.48-.17-.72-.11-.38,.1-.54,.37-.59,.46l-4.7,8.09-.02,.05c-.19,.43-.05,.94,.33,1.22l4.91,2.83c.22,.13,.5,.17,.72,.11l3.84-1.03c.54-.14,.83-.64,.68-1.18s-.66-.82-1.18-.68l-3.42,.92c-.66-.37-2.72-1.55-3.68-2.12l3.71-6.42c.38,.22,.76,.43,.78,.44Z"/>
            <path class="cls-1" d="M143.89,73.92c-.25,.07-.46,.23-.59,.46s-.17,.49-.1,.74l3.43,12.81v.05s.05,.08,.05,.08c.06,.12,.18,.29,.42,.43,.23,.13,.43,.14,.57,.14h.07s8.03-2.19,8.03-2.19c.27-.07,.46-.22,.59-.43s.15-.5,.09-.74l-3.42-12.8c-.07-.25-.22-.45-.46-.58-.21-.12-.48-.16-.72-.1l-7.96,2.13Zm7.53-.03c.2,.73,.55,2.04,.91,3.41l.02,.08c.55,2.09,1.7,6.39,2,7.46l-6.09,1.63c-.28-1.01-1.4-5.18-1.93-7.16v-.02c-.43-1.59-.81-2.99-1.02-3.75,.59-.16,1.53-.42,2.47-.68l1.14-.31c.95-.26,1.9-.52,2.5-.68Z"/>
            <path class="cls-12" d="M165.96,73.83l-.03-.03-3.33-1.94c-.25-.14-.54-.14-.73-.09-.25,.07-.45,.22-.58,.44l-2.57,4.5-.77-2.86c-.14-.51-.67-.82-1.18-.68-.54,.14-.83,.64-.68,1.18l2.74,10.21c.14,.54,.64,.83,1.18,.68s.82-.67,.68-1.18l-1.27-4.73c.57-1.03,2.37-4.16,3.04-5.32,.51,.3,1.23,.72,1.72,1.01l.32,.19,1.96,7.3c.14,.51,.67,.82,1.18,.68,.54-.14,.83-.64,.68-1.18l-2.06-7.68c-.05-.18-.16-.37-.3-.5Z"/>
            <polygon class="cls-32" points="125.21 79.82 124.85 80.82 125.67 81.51 126.49 82.2 126.85 81.19 127.22 80.19 126.4 79.5 125.58 78.81 125.21 79.82"/>
            <path class="cls-19" d="M148.42,92.01c-.13-.07-.26-.05-.3-.04l-1.81,.48c-.22,.06-.34,.27-.28,.48l1.21,4.53c.06,.22,.27,.34,.48,.28s.34-.27,.28-.48l-.26-.98c.13-.01,.24-.08,.31-.2l1.67-2.87v-.02c.09-.19,.02-.43-.15-.51l-1.15-.67Zm-.9,3.43l-.62-2.32,1.27-.34c.08,.05,.2,.12,.36,.21,.1,.06,.21,.12,.31,.18-.29,.51-1,1.74-1.31,2.27Z"/>
            <path class="cls-22" d="M151.95,92.03c-.18-.1-.42-.03-.52,.15l-.18,.31c-.06-.2-.27-.31-.48-.26-.22,.06-.34,.27-.28,.48l.97,3.62c.06,.22,.27,.34,.48,.28s.34-.27,.28-.48l-.69-2.56,.57-.99c.06-.1,.07-.23,.03-.34-.03-.1-.11-.17-.19-.21Z"/>
            <path class="cls-29" d="M158.7,95.78c.1-.03,.19-.09,.24-.18l.67-1.15s.08-.15,.04-.3l-.82-3.07c-.06-.21-.27-.34-.48-.28s-.34,.27-.28,.48l.78,2.91c-.15,.25-.51,.89-.58,1.02-.06,.1-.07,.2-.04,.3,.03,.09,.1,.19,.19,.24,.09,.05,.2,.07,.3,.04Z"/>
            <path class="cls-9" d="M162.05,93.78c.09,.05,.2,.07,.3,.04l1.36-.36c.22-.06,.34-.27,.28-.48s-.27-.34-.48-.28l-1.19,.32c-.24-.13-.89-.51-1.24-.71l.31-.54c.06,.19,.28,.31,.48,.26l1.36-.36c.21-.06,.34-.27,.28-.48l-.36-1.36c-.03-.11-.08-.17-.12-.21l-.63-.36c-.1-.06-.2-.07-.3-.04-.16,.04-.22,.15-.24,.19l-1.67,2.88-.02,.04c-.02,.08-.02,.16,0,.24,.03,.11,.08,.17,.12,.21l1.77,1.03Zm.28-3.66s.06,.03,.08,.05l.22,.83-.96,.26,.65-1.13Z"/>
            <path class="cls-20" d="M166.12,92.69c.09,.05,.2,.07,.3,.04l1.36-.36c.22-.06,.34-.27,.28-.48s-.27-.34-.48-.28l-1.19,.32c-.24-.13-.89-.51-1.24-.71l1.26-2.18c.09,.05,.18,.1,.21,.12h.02c.18,.12,.44,.05,.55-.14v-.02c.09-.17,.03-.38-.14-.5l-.59-.33c-.1-.06-.2-.07-.3-.04-.11,.03-.18,.09-.24,.19l-1.67,2.87v.02c-.09,.17-.03,.38,.13,.5l1.74,1Z"/>
            <path class="cls-16" d="M168.17,88.39l.06-.02,.87,3.24c.06,.22,.27,.34,.48,.28l.45-.12c.22-.06,.34-.27,.28-.48s-.27-.34-.48-.28l-.07,.02-.77-2.86,.52-.14c.21-.06,.34-.27,.28-.48s-.27-.34-.48-.28l-.52,.14-.14-.53c-.06-.21-.27-.34-.48-.28s-.34,.27-.28,.48l.14,.53-.06,.02c-.22,.06-.34,.27-.28,.48s.27,.34,.48,.28Z"/>
            <polygon class="cls-18" points="158.2 90.24 158.4 89.71 158.59 89.18 158.16 88.81 157.72 88.45 157.53 88.98 157.33 89.51 157.77 89.88 158.2 90.24"/>
            <path class="cls-11" d="M174.19,77.47c.29-.53,.57-1.04,.9-1.65-.64,.27-1.18,.5-1.73,.73-.4-.41-.78-.8-1.16-1.19-.03,.01-.06,.03-.09,.04,.02,.56,.05,1.12,.07,1.69-.54,.27-1.05,.54-1.56,.8,0,.03,.02,.06,.02,.08,.54,.12,1.08,.24,1.64,.37,.07,.58,.14,1.13,.21,1.68,.03,0,.07,0,.1,0,.25-.39,.51-.79,.76-1.18,.06,.03,.1,.04,.12,.06,.07,.09,.14,.18,.2,.28,1.58,2.51,2.35,5.23,2.15,8.19-.21,3.22-1.43,5.99-3.89,8.13-2.08,1.81-4.53,2.74-7.27,2.91-3.43,.22-6.51-.75-9.24-2.83l.02-.02,1.68-2.9c.05-.09,.07-.21,.04-.3s-.09-.2-.21-.25l-1.7-.98c-.18-.11-.43-.04-.54,.14l-1.66,2.87c-.07,.13-.04,.25-.03,.29,.02,.06,.05,.17,.17,.25l1.72,.99c3.32,2.63,7.07,3.64,11.3,2.93,1.91-.32,3.68-1.03,5.21-2.21,4.08-3.15,5.36-7.38,4.59-12.33-.29-1.85-1.01-3.56-2.04-5.14-.05-.07-.07-.17-.12-.31,.5,.07,.94,.14,1.5,.22-.43-.52-.78-.94-1.15-1.38Zm-18.99,14.56c.11,.06,.24,.13,.38,.21,.23,.13,.49,.28,.67,.38-.33,.58-.99,1.71-1.27,2.19-.27-.16-.75-.43-1.03-.6l1.26-2.19Z"/>
            <g>
              <path class="cls-21" d="M85.88,90.61c.13-.6,.44-1.12,.75-1.65,1.23-2.13,2.92-3.8,5.13-4.88,4.01-1.97,8.01-1.88,11.94,.27,.43,.24,.83,.54,1.24,.81,.11,.07,.2,.17,.3,.25l.07,.26s-.04,.09-.05,.14c-.09,.57-.64,.82-1.13,.51-.5-.32-.99-.66-1.51-.94-2.03-1.07-4.18-1.47-6.46-1.19-2.4,.29-4.49,1.26-6.27,2.9-1.08,1-1.92,2.19-2.54,3.53-.04,.08-.07,.17-.12,.25-.27,.5-.89,.54-1.22,.09-.02-.03-.05-.06-.07-.09-.02-.09-.05-.18-.07-.26Z"/>
              <path class="cls-8" d="M95.69,86.76c2.13-.51,4.52-.08,6.69,1.47,.35,.25,.43,.68,.2,1.01-.23,.33-.66,.4-1.02,.14-.95-.69-2-1.13-3.17-1.3-2.98-.45-6.01,1.18-7.28,3.92-.04,.08-.07,.15-.11,.23-.19,.38-.59,.53-.95,.36-.36-.17-.5-.58-.33-.96,.33-.75,.75-1.44,1.28-2.07,1.12-1.32,2.57-2.24,4.68-2.8Z"/>
              <path class="cls-31" d="M96.32,90.61c1.29-.27,2.42-.06,3.46,.66,.38,.26,.48,.67,.26,1.01-.23,.36-.65,.43-1.04,.16-.59-.41-1.24-.6-1.96-.52-.98,.12-1.71,.61-2.19,1.47-.05,.09-.09,.19-.14,.28-.2,.34-.59,.45-.93,.28-.34-.17-.48-.57-.32-.93,.26-.59,.64-1.11,1.13-1.53,.52-.45,1.13-.74,1.74-.89Z"/>
            </g>
            <g>
              <g>
                <path class="cls-26" d="M103.35,99.15l-.42-1.55c-.66-2.47-3.21-3.95-5.69-3.28-2.47,.66-3.95,3.21-3.28,5.69l.42,1.55c1.15-1.06,2.57-1.87,4.19-2.31s3.25-.44,4.78-.1Z"/>
                <path class="cls-15" d="M94.63,102.47l.45,1.66c.66,2.47,3.21,3.95,5.69,3.28s3.95-3.21,3.28-5.69l-.45-1.66c-1.52-.42-3.18-.46-4.81-.02s-3.05,1.3-4.16,2.42Z"/>
              </g>
              <path class="cls-2" d="M101.46,110.03c-3.87,1.04-7.86-1.27-8.9-5.14l-.21-.79c-.09-.33,.11-.68,.44-.77s.68,.11,.77,.44l.21,.79c.86,3.2,4.16,5.11,7.36,4.25,3.2-.86,5.11-4.16,4.25-7.36l-.21-.79c-.09-.33,.11-.68,.44-.77s.68,.11,.77,.44l.21,.79c1.04,3.87-1.27,7.86-5.14,8.9Z"/>
              <path class="cls-14" d="M103.03,115.62c-.33,.09-.68-.11-.77-.44l-1.44-5.37c-.09-.33,.11-.68,.44-.77s.68,.11,.77,.44l1.44,5.37c.09,.33-.11,.68-.44,.77Z"/>
              <path class="cls-28" d="M105.71,114.9l-5.37,1.44c-.33,.09-.68-.11-.77-.44s.11-.68,.44-.77l5.37-1.44c.33-.09,.68,.11,.77,.44s-.11,.68-.44,.77Z"/>
            </g>
          </g>
          <g>
            <g>
              <path class="cls-17" d="M218.71,219.28c.13-.6,.44-1.12,.75-1.65,1.23-2.13,2.92-3.8,5.13-4.88,4.01-1.97,8.01-1.88,11.94,.27,.43,.24,.83,.54,1.24,.81,.11,.07,.2,.17,.3,.25l.07,.26s-.04,.09-.05,.14c-.09,.57-.64,.82-1.13,.51-.5-.32-.99-.66-1.51-.94-2.03-1.07-4.18-1.47-6.46-1.19-2.4,.29-4.49,1.26-6.27,2.9-1.08,1-1.92,2.19-2.54,3.53-.04,.08-.07,.17-.12,.25-.27,.5-.89,.54-1.22,.09-.02-.03-.05-.06-.07-.09-.02-.09-.05-.18-.07-.26Z"/>
              <path class="cls-30" d="M228.51,215.43c2.13-.51,4.52-.08,6.69,1.47,.35,.25,.43,.68,.2,1.01-.23,.33-.66,.4-1.02,.14-.95-.69-2-1.13-3.17-1.3-2.98-.45-6.01,1.18-7.28,3.92-.04,.08-.07,.15-.11,.23-.19,.38-.59,.53-.95,.36-.36-.17-.5-.58-.33-.96,.33-.75,.75-1.44,1.28-2.07,1.12-1.32,2.57-2.24,4.68-2.8Z"/>
              <path class="cls-27" d="M229.15,219.28c1.29-.27,2.42-.06,3.46,.66,.38,.26,.48,.67,.26,1.01-.23,.36-.65,.43-1.04,.16-.59-.41-1.24-.6-1.96-.52-.98,.12-1.71,.61-2.19,1.47-.05,.09-.09,.19-.14,.28-.2,.34-.59,.45-.93,.28-.34-.17-.48-.57-.32-.93,.26-.59,.64-1.11,1.13-1.53,.52-.45,1.13-.74,1.74-.89Z"/>
            </g>
            <g>
              <g>
                <path class="cls-7" d="M236.18,227.81l-.42-1.55c-.66-2.47-3.21-3.95-5.69-3.28s-3.95,3.21-3.28,5.69l.42,1.55c1.15-1.06,2.57-1.87,4.19-2.31s3.25-.44,4.78-.1Z"/>
                <path class="cls-33" d="M227.45,231.14l.45,1.66c.66,2.47,3.21,3.95,5.69,3.28s3.95-3.21,3.28-5.69l-.45-1.66c-1.52-.42-3.18-.46-4.81-.02s-3.05,1.3-4.16,2.42Z"/>
              </g>
              <path class="cls-10" d="M234.29,238.7c-3.87,1.04-7.86-1.27-8.9-5.14l-.21-.79c-.09-.33,.11-.68,.44-.77s.68,.11,.77,.44l.21,.79c.86,3.2,4.16,5.11,7.36,4.25,3.2-.86,5.11-4.16,4.25-7.36l-.21-.79c-.09-.33,.11-.68,.44-.77s.68,.11,.77,.44l.21,.79c1.04,3.87-1.27,7.86-5.14,8.9Z"/>
              <path class="cls-4" d="M235.85,244.28c-.33,.09-.68-.11-.77-.44l-1.44-5.37c-.09-.33,.11-.68,.44-.77s.68,.11,.77,.44l1.44,5.37c.09,.33-.11,.68-.44,.77Z"/>
            </g>
          </g>
        </g>
      </g>
    </g>
  </g>
  <circle cx="120" cy="120" r="120"/>
</svg>