<?xml version="1.0" encoding="UTF-8"?>
<svg id="Layer_1" data-name="Layer 1" xmlns="http://www.w3.org/2000/svg" xmlns:xlink="http://www.w3.org/1999/xlink" viewBox="0 0 614 583">
  <defs>
    <style>
      .cls-1 {
        fill: url(#_未命名漸層_2-171);
      }

      .cls-2 {
        fill: url(#_未命名漸層_2-130);
      }

      .cls-3 {
        fill: url(#_未命名漸層_2-122);
      }

      .cls-4 {
        fill: url(#_未命名漸層_2-141);
      }

      .cls-5 {
        fill: url(#_未命名漸層_2-128);
      }

      .cls-6 {
        fill: url(#_未命名漸層_2-50);
      }

      .cls-7 {
        fill: url(#_未命名漸層_2-97);
      }

      .cls-8 {
        fill: url(#_未命名漸層_2-116);
      }

      .cls-9 {
        fill: url(#_未命名漸層_2-4);
      }

      .cls-10 {
        fill: url(#_未命名漸層_2-39);
      }

      .cls-11 {
        fill: url(#_未命名漸層_2-172);
      }

      .cls-12 {
        fill: url(#_未命名漸層_2-163);
      }

      .cls-13 {
        fill: url(#_未命名漸層_2-157);
      }

      .cls-14 {
        fill: url(#_未命名漸層_2-175);
      }

      .cls-15 {
        fill: url(#_未命名漸層_2-56);
      }

      .cls-16 {
        fill: url(#_未命名漸層_2-121);
      }

      .cls-17 {
        fill: url(#_未命名漸層_2-20);
      }

      .cls-18 {
        fill: url(#_未命名漸層_2-64);
      }

      .cls-19 {
        fill: url(#_未命名漸層_2-68);
      }

      .cls-20 {
        fill: url(#_未命名漸層_2-153);
      }

      .cls-21 {
        fill: url(#_未命名漸層_2-3);
      }

      .cls-22 {
        fill: url(#_未命名漸層_2-131);
      }

      .cls-23 {
        fill: url(#_未命名漸層_2-133);
      }

      .cls-24 {
        fill: url(#_未命名漸層_2-93);
      }

      .cls-25 {
        fill: url(#_未命名漸層_2-29);
      }

      .cls-26 {
        opacity: .5;
      }

      .cls-27 {
        fill: url(#_未命名漸層_2);
      }

      .cls-28 {
        fill: url(#_未命名漸層_2-156);
      }

      .cls-29 {
        fill: url(#_未命名漸層_2-67);
      }

      .cls-30 {
        fill: url(#_未命名漸層_2-65);
      }

      .cls-31 {
        fill: url(#_未命名漸層_2-26);
      }

      .cls-32 {
        fill: url(#_未命名漸層_2-105);
      }

      .cls-33 {
        fill: url(#_未命名漸層_2-76);
      }

      .cls-34 {
        fill: url(#_未命名漸層_2-34);
      }

      .cls-35 {
        fill: url(#_未命名漸層_2-16);
      }

      .cls-36 {
        fill: url(#_未命名漸層_2-42);
      }

      .cls-37 {
        fill: url(#_未命名漸層_2-127);
      }

      .cls-38 {
        fill: url(#_未命名漸層_2-10);
      }

      .cls-39 {
        fill: url(#_未命名漸層_2-41);
      }

      .cls-40 {
        fill: url(#_未命名漸層_2-176);
      }

      .cls-41 {
        fill: url(#_未命名漸層_2-138);
      }

      .cls-42 {
        fill: url(#_未命名漸層_2-32);
      }

      .cls-43 {
        fill: url(#_未命名漸層_2-83);
      }

      .cls-44 {
        fill: url(#_未命名漸層_2-87);
      }

      .cls-45 {
        fill: url(#_未命名漸層_2-107);
      }

      .cls-46 {
        fill: url(#_未命名漸層_2-91);
      }

      .cls-47 {
        fill: url(#_未命名漸層_2-132);
      }

      .cls-48 {
        fill: url(#_未命名漸層_2-162);
      }

      .cls-49 {
        fill: url(#_未命名漸層_2-102);
      }

      .cls-50 {
        fill: url(#_未命名漸層_2-167);
      }

      .cls-51 {
        fill: url(#_未命名漸層_2-109);
      }

      .cls-52 {
        fill: url(#_未命名漸層_2-137);
      }

      .cls-53 {
        fill: url(#_未命名漸層_2-125);
      }

      .cls-54 {
        fill: url(#_未命名漸層_2-73);
      }

      .cls-55 {
        fill: url(#_未命名漸層_2-110);
      }

      .cls-56 {
        fill: url(#_未命名漸層_2-86);
      }

      .cls-57 {
        fill: url(#_未命名漸層_2-159);
      }

      .cls-58 {
        fill: url(#_未命名漸層_2-99);
      }

      .cls-59 {
        fill: url(#_未命名漸層_2-120);
      }

      .cls-60 {
        fill: url(#_未命名漸層_2-108);
      }

      .cls-61 {
        fill: url(#_未命名漸層_2-28);
      }

      .cls-62 {
        fill: url(#_未命名漸層_2-48);
      }

      .cls-63 {
        fill: url(#_未命名漸層_2-75);
      }

      .cls-64 {
        fill: url(#_未命名漸層_2-40);
      }

      .cls-65 {
        fill: url(#_未命名漸層_2-179);
      }

      .cls-66 {
        fill: url(#_未命名漸層_2-53);
      }

      .cls-67 {
        fill: url(#_未命名漸層_2-14);
      }

      .cls-68 {
        fill: url(#_未命名漸層_2-82);
      }

      .cls-69 {
        fill: url(#_未命名漸層_2-100);
      }

      .cls-70 {
        fill: url(#_未命名漸層_2-124);
      }

      .cls-71 {
        fill: url(#_未命名漸層_2-38);
      }

      .cls-72 {
        fill: url(#_未命名漸層_2-144);
      }

      .cls-73 {
        fill: url(#_未命名漸層_2-135);
      }

      .cls-74 {
        fill: url(#_未命名漸層_2-151);
      }

      .cls-75 {
        fill: url(#_未命名漸層_2-5);
      }

      .cls-76 {
        fill: url(#_未命名漸層_2-173);
      }

      .cls-77 {
        fill: url(#_未命名漸層_2-123);
      }

      .cls-78 {
        clip-path: url(#clippath-1);
      }

      .cls-79 {
        fill: url(#_未命名漸層_2-35);
      }

      .cls-80 {
        fill: url(#_未命名漸層_2-21);
      }

      .cls-81 {
        fill: url(#_未命名漸層_2-80);
      }

      .cls-82 {
        fill: url(#_未命名漸層_2-19);
      }

      .cls-83 {
        fill: url(#_未命名漸層_2-180);
      }

      .cls-84 {
        fill: url(#_未命名漸層_2-166);
      }

      .cls-85 {
        fill: url(#_未命名漸層_2-12);
      }

      .cls-86 {
        fill: url(#_未命名漸層_2-114);
      }

      .cls-87 {
        fill: url(#_未命名漸層_2-74);
      }

      .cls-88 {
        fill: url(#_未命名漸層_2-177);
      }

      .cls-89 {
        fill: url(#_未命名漸層_2-47);
      }

      .cls-90 {
        fill: url(#_未命名漸層_2-23);
      }

      .cls-91 {
        fill: url(#_未命名漸層_2-143);
      }

      .cls-92 {
        fill: url(#_未命名漸層_2-69);
      }

      .cls-93 {
        fill: url(#_未命名漸層_2-13);
      }

      .cls-94 {
        fill: url(#_未命名漸層_2-77);
      }

      .cls-95 {
        fill: url(#_未命名漸層_2-85);
      }

      .cls-96 {
        fill: url(#_未命名漸層_2-96);
      }

      .cls-97 {
        fill: url(#_未命名漸層_2-45);
      }

      .cls-98 {
        fill: url(#_未命名漸層_2-72);
      }

      .cls-99 {
        fill: url(#_未命名漸層_2-103);
      }

      .cls-100 {
        fill: url(#_未命名漸層_2-7);
      }

      .cls-101 {
        fill: url(#_未命名漸層_2-59);
      }

      .cls-102 {
        fill: url(#_未命名漸層_2-149);
      }

      .cls-103 {
        fill: url(#_未命名漸層_2-66);
      }

      .cls-104 {
        fill: url(#_未命名漸層_2-154);
      }

      .cls-105 {
        fill: url(#_未命名漸層_2-43);
      }

      .cls-106 {
        fill: url(#_未命名漸層_2-11);
      }

      .cls-107 {
        fill: url(#_未命名漸層_2-71);
      }

      .cls-108 {
        fill: url(#_未命名漸層_2-118);
      }

      .cls-109 {
        fill: url(#_未命名漸層_2-58);
      }

      .cls-110 {
        fill: url(#_未命名漸層_2-136);
      }

      .cls-111 {
        fill: url(#_未命名漸層_2-57);
      }

      .cls-112 {
        fill: url(#_未命名漸層_2-168);
      }

      .cls-113 {
        fill: url(#_未命名漸層_2-15);
      }

      .cls-114 {
        fill: url(#_未命名漸層_2-113);
      }

      .cls-115 {
        fill: url(#_未命名漸層_2-84);
      }

      .cls-116 {
        fill: url(#_未命名漸層_2-51);
      }

      .cls-117 {
        fill: url(#_未命名漸層_2-117);
      }

      .cls-118 {
        fill: url(#_未命名漸層_2-158);
      }

      .cls-119 {
        fill: url(#_未命名漸層_2-61);
      }

      .cls-120 {
        fill: url(#_未命名漸層_2-88);
      }

      .cls-121 {
        fill: url(#_未命名漸層_2-8);
      }

      .cls-122 {
        fill: url(#_未命名漸層_2-55);
      }

      .cls-123 {
        fill: url(#_未命名漸層_2-52);
      }

      .cls-124 {
        clip-path: url(#clippath);
      }

      .cls-125 {
        fill: url(#_未命名漸層_2-92);
      }

      .cls-126 {
        fill: url(#_未命名漸層_2-81);
      }

      .cls-127 {
        fill: url(#_未命名漸層_2-89);
      }

      .cls-128 {
        fill: url(#_未命名漸層_2-181);
      }

      .cls-129 {
        fill: url(#_未命名漸層_2-126);
      }

      .cls-130 {
        fill: url(#_未命名漸層_2-169);
      }

      .cls-131 {
        fill: url(#_未命名漸層_2-170);
      }

      .cls-132 {
        fill: none;
      }

      .cls-133 {
        fill: url(#_未命名漸層_2-46);
      }

      .cls-134 {
        fill: url(#_未命名漸層_2-54);
      }

      .cls-135 {
        fill: url(#_未命名漸層_2-101);
      }

      .cls-136 {
        fill: url(#_未命名漸層_2-37);
      }

      .cls-137 {
        fill: url(#_未命名漸層_2-134);
      }

      .cls-138 {
        fill: url(#_未命名漸層_2-178);
      }

      .cls-139 {
        fill: url(#_未命名漸層_2-2);
      }

      .cls-140 {
        fill: url(#_未命名漸層_2-164);
      }

      .cls-141 {
        fill: url(#_未命名漸層_2-161);
      }

      .cls-142 {
        fill: url(#_未命名漸層_2-155);
      }

      .cls-143 {
        fill: url(#_未命名漸層_2-49);
      }

      .cls-144 {
        fill: url(#_未命名漸層_2-140);
      }

      .cls-145 {
        fill: url(#_未命名漸層_2-18);
      }

      .cls-146 {
        fill: url(#_未命名漸層_2-112);
      }

      .cls-147 {
        fill: url(#_未命名漸層_2-25);
      }

      .cls-148 {
        fill: url(#_未命名漸層_2-139);
      }

      .cls-149 {
        fill: url(#_未命名漸層_2-147);
      }

      .cls-150 {
        fill: url(#_未命名漸層_2-174);
      }

      .cls-151 {
        fill: url(#_未命名漸層_2-111);
      }

      .cls-152 {
        fill: url(#_未命名漸層_2-79);
      }

      .cls-153 {
        fill: url(#_未命名漸層_2-31);
      }

      .cls-154 {
        fill: url(#_未命名漸層_2-129);
      }

      .cls-155 {
        fill: url(#_未命名漸層_2-119);
      }

      .cls-156 {
        fill: url(#_未命名漸層_2-165);
      }

      .cls-157 {
        fill: url(#_未命名漸層_2-148);
      }

      .cls-158 {
        fill: url(#_未命名漸層_2-94);
      }

      .cls-159 {
        fill: url(#_未命名漸層_2-78);
      }

      .cls-160 {
        fill: url(#_未命名漸層_2-115);
      }

      .cls-161 {
        fill: url(#_未命名漸層_2-146);
      }

      .cls-162 {
        fill: url(#_未命名漸層_2-36);
      }

      .cls-163 {
        fill: url(#_未命名漸層_2-145);
      }

      .cls-164 {
        fill: url(#_未命名漸層_2-90);
      }

      .cls-165 {
        fill: url(#_未命名漸層_2-22);
      }

      .cls-166 {
        fill: url(#_未命名漸層_2-62);
      }

      .cls-167 {
        fill: url(#_未命名漸層_2-106);
      }

      .cls-168 {
        fill: url(#_未命名漸層_2-95);
      }

      .cls-169 {
        fill: url(#_未命名漸層_2-9);
      }

      .cls-170 {
        fill: url(#_未命名漸層_2-33);
      }

      .cls-171 {
        fill: url(#_未命名漸層_2-24);
      }

      .cls-172 {
        fill: url(#_未命名漸層_2-17);
      }

      .cls-173 {
        fill: url(#_未命名漸層_2-152);
      }

      .cls-174 {
        fill: url(#_未命名漸層_2-98);
      }

      .cls-175 {
        fill: url(#_未命名漸層_2-6);
      }

      .cls-176 {
        fill: url(#_未命名漸層_2-160);
      }

      .cls-177 {
        fill: url(#_未命名漸層_2-30);
      }

      .cls-178 {
        fill: url(#_未命名漸層_2-70);
      }

      .cls-179 {
        fill: url(#_未命名漸層_2-104);
      }

      .cls-180 {
        fill: url(#_未命名漸層_2-63);
      }

      .cls-181 {
        fill: url(#_未命名漸層_2-150);
      }

      .cls-182 {
        fill: url(#_未命名漸層_2-44);
      }

      .cls-183 {
        fill: url(#_未命名漸層_2-27);
      }

      .cls-184 {
        fill: url(#_未命名漸層_2-142);
      }

      .cls-185 {
        fill: url(#_未命名漸層_2-60);
      }
    </style>
    <clipPath id="clippath">
      <rect class="cls-132" x="-260" y="-1156" width="1920" height="1080"/>
    </clipPath>
    <clipPath id="clippath-1">
      <rect class="cls-132" x="-231.28" y="-1454.72" width="2010.4" height="1587.95" transform="translate(197.38 177.79) rotate(-15)"/>
    </clipPath>
    <linearGradient id="_未命名漸層_2" data-name="未命名漸層 2" x1="-311.66" y1="1531.01" x2="-221.68" y2="1564.79" gradientTransform="translate(-87.11 -1523.3) rotate(-15)" gradientUnits="userSpaceOnUse">
      <stop offset=".1" stop-color="#5a79b5"/>
      <stop offset=".25" stop-color="#7683b6"/>
      <stop offset=".49" stop-color="#9d91b8"/>
      <stop offset=".68" stop-color="#b69ab9"/>
      <stop offset=".8" stop-color="#bf9eba"/>
    </linearGradient>
    <linearGradient id="_未命名漸層_2-2" data-name="未命名漸層 2" x1="-311.15" y1="1529.64" x2="-221.16" y2="1563.42" xlink:href="#_未命名漸層_2"/>
    <linearGradient id="_未命名漸層_2-3" data-name="未命名漸層 2" x1="-309.81" y1="1526.07" x2="-219.82" y2="1559.86" xlink:href="#_未命名漸層_2"/>
    <linearGradient id="_未命名漸層_2-4" data-name="未命名漸層 2" x1="-311.13" y1="1518.92" x2="-216.43" y2="1554.47" xlink:href="#_未命名漸層_2"/>
    <linearGradient id="_未命名漸層_2-5" data-name="未命名漸層 2" x1="-306.65" y1="1517.65" x2="-216.66" y2="1551.44" xlink:href="#_未命名漸層_2"/>
    <linearGradient id="_未命名漸層_2-6" data-name="未命名漸層 2" x1="-308.54" y1="1522.69" x2="-218.55" y2="1556.48" xlink:href="#_未命名漸層_2"/>
    <linearGradient id="_未命名漸層_2-7" data-name="未命名漸層 2" x1="-266.83" y1="1551.34" x2="-250.58" y2="1557.44" xlink:href="#_未命名漸層_2"/>
    <linearGradient id="_未命名漸層_2-8" data-name="未命名漸層 2" x1="-257.14" y1="1553.99" x2="-248.01" y2="1557.42" xlink:href="#_未命名漸層_2"/>
    <linearGradient id="_未命名漸層_2-9" data-name="未命名漸層 2" x1="-248.99" y1="1555.27" x2="-240.72" y2="1558.37" xlink:href="#_未命名漸層_2"/>
    <linearGradient id="_未命名漸層_2-10" data-name="未命名漸層 2" x1="-252.54" y1="1551.66" x2="-235.61" y2="1558.02" xlink:href="#_未命名漸層_2"/>
    <linearGradient id="_未命名漸層_2-11" data-name="未命名漸層 2" x1="-248.35" y1="1551.66" x2="-231.4" y2="1558.02" xlink:href="#_未命名漸層_2"/>
    <linearGradient id="_未命名漸層_2-12" data-name="未命名漸層 2" x1="-241.96" y1="1552.53" x2="-229.05" y2="1557.38" xlink:href="#_未命名漸層_2"/>
    <linearGradient id="_未命名漸層_2-13" data-name="未命名漸層 2" x1="-246.25" y1="1552.16" x2="-240.97" y2="1554.15" xlink:href="#_未命名漸層_2"/>
    <linearGradient id="_未命名漸層_2-14" data-name="未命名漸層 2" x1="-316.3" y1="1522.49" x2="-219.09" y2="1558.98" xlink:href="#_未命名漸層_2"/>
    <linearGradient id="_未命名漸層_2-15" data-name="未命名漸層 2" x1="-311.96" y1="1531.79" x2="-221.97" y2="1565.57" xlink:href="#_未命名漸層_2"/>
    <linearGradient id="_未命名漸層_2-16" data-name="未命名漸層 2" x1="-312.82" y1="1534.08" x2="-222.83" y2="1567.87" xlink:href="#_未命名漸層_2"/>
    <linearGradient id="_未命名漸層_2-17" data-name="未命名漸層 2" x1="-313.69" y1="1536.4" x2="-223.7" y2="1570.19" xlink:href="#_未命名漸層_2"/>
    <linearGradient id="_未命名漸層_2-18" data-name="未命名漸層 2" x1="-315.62" y1="1541.54" x2="-225.63" y2="1575.32" xlink:href="#_未命名漸層_2"/>
    <linearGradient id="_未命名漸層_2-19" data-name="未命名漸層 2" x1="-317.51" y1="1546.59" x2="-227.53" y2="1580.37" xlink:href="#_未命名漸層_2"/>
    <linearGradient id="_未命名漸層_2-20" data-name="未命名漸層 2" x1="-317.94" y1="1547.73" x2="-227.95" y2="1581.51" xlink:href="#_未命名漸層_2"/>
    <linearGradient id="_未命名漸層_2-21" data-name="未命名漸層 2" x1="-320.49" y1="1554.52" x2="-230.5" y2="1588.3" xlink:href="#_未命名漸層_2"/>
    <linearGradient id="_未命名漸層_2-22" data-name="未命名漸層 2" x1="-321.4" y1="1556.95" x2="-231.42" y2="1590.74" xlink:href="#_未命名漸層_2"/>
    <linearGradient id="_未命名漸層_2-23" data-name="未命名漸層 2" x1="-126.3" y1="1522.49" x2="-29.09" y2="1558.98" xlink:href="#_未命名漸層_2"/>
    <linearGradient id="_未命名漸層_2-24" data-name="未命名漸層 2" x1="-125.62" y1="1541.54" x2="-35.63" y2="1575.32" xlink:href="#_未命名漸層_2"/>
    <linearGradient id="_未命名漸層_2-25" data-name="未命名漸層 2" x1="-127.51" y1="1546.59" x2="-37.53" y2="1580.37" xlink:href="#_未命名漸層_2"/>
    <linearGradient id="_未命名漸層_2-26" data-name="未命名漸層 2" x1="-127.94" y1="1547.73" x2="-37.95" y2="1581.51" xlink:href="#_未命名漸層_2"/>
    <linearGradient id="_未命名漸層_2-27" data-name="未命名漸層 2" x1="-130.49" y1="1554.52" x2="-40.5" y2="1588.3" xlink:href="#_未命名漸層_2"/>
    <linearGradient id="_未命名漸層_2-28" data-name="未命名漸層 2" x1="-131.4" y1="1556.95" x2="-41.42" y2="1590.74" xlink:href="#_未命名漸層_2"/>
    <linearGradient id="_未命名漸層_2-29" data-name="未命名漸層 2" x1="-406.15" y1="1688.3" x2="-316.16" y2="1722.08" xlink:href="#_未命名漸層_2"/>
    <linearGradient id="_未命名漸層_2-30" data-name="未命名漸層 2" x1="-404.81" y1="1684.74" x2="-314.82" y2="1718.52" xlink:href="#_未命名漸層_2"/>
    <linearGradient id="_未命名漸層_2-31" data-name="未命名漸層 2" x1="-406.13" y1="1677.58" x2="-311.43" y2="1713.13" xlink:href="#_未命名漸層_2"/>
    <linearGradient id="_未命名漸層_2-32" data-name="未命名漸層 2" x1="-401.65" y1="1676.32" x2="-311.66" y2="1710.1" xlink:href="#_未命名漸層_2"/>
    <linearGradient id="_未命名漸層_2-33" data-name="未命名漸層 2" x1="-403.54" y1="1681.36" x2="-313.55" y2="1715.14" xlink:href="#_未命名漸層_2"/>
    <linearGradient id="_未命名漸層_2-34" data-name="未命名漸層 2" x1="-361.83" y1="1710" x2="-345.58" y2="1716.1" xlink:href="#_未命名漸層_2"/>
    <linearGradient id="_未命名漸層_2-35" data-name="未命名漸層 2" x1="-352.14" y1="1712.65" x2="-343.01" y2="1716.08" xlink:href="#_未命名漸層_2"/>
    <linearGradient id="_未命名漸層_2-36" data-name="未命名漸層 2" x1="-343.99" y1="1713.93" x2="-335.72" y2="1717.03" xlink:href="#_未命名漸層_2"/>
    <linearGradient id="_未命名漸層_2-37" data-name="未命名漸層 2" x1="-347.54" y1="1710.32" x2="-330.61" y2="1716.68" xlink:href="#_未命名漸層_2"/>
    <linearGradient id="_未命名漸層_2-38" data-name="未命名漸層 2" x1="-343.35" y1="1710.32" x2="-326.4" y2="1716.68" xlink:href="#_未命名漸層_2"/>
    <linearGradient id="_未命名漸層_2-39" data-name="未命名漸層 2" x1="-336.96" y1="1711.2" x2="-324.05" y2="1716.04" xlink:href="#_未命名漸層_2"/>
    <linearGradient id="_未命名漸層_2-40" data-name="未命名漸層 2" x1="-341.25" y1="1710.83" x2="-335.97" y2="1712.81" xlink:href="#_未命名漸層_2"/>
    <linearGradient id="_未命名漸層_2-41" data-name="未命名漸層 2" x1="-411.3" y1="1681.15" x2="-314.09" y2="1717.64" xlink:href="#_未命名漸層_2"/>
    <linearGradient id="_未命名漸層_2-42" data-name="未命名漸層 2" x1="-216.66" y1="1689.67" x2="-126.68" y2="1723.45" xlink:href="#_未命名漸層_2"/>
    <linearGradient id="_未命名漸層_2-43" data-name="未命名漸層 2" x1="-216.15" y1="1688.3" x2="-126.16" y2="1722.08" xlink:href="#_未命名漸層_2"/>
    <linearGradient id="_未命名漸層_2-44" data-name="未命名漸層 2" x1="-214.81" y1="1684.74" x2="-124.82" y2="1718.52" xlink:href="#_未命名漸層_2"/>
    <linearGradient id="_未命名漸層_2-45" data-name="未命名漸層 2" x1="-216.13" y1="1677.58" x2="-121.43" y2="1713.13" xlink:href="#_未命名漸層_2"/>
    <linearGradient id="_未命名漸層_2-46" data-name="未命名漸層 2" x1="-211.65" y1="1676.32" x2="-121.66" y2="1710.1" xlink:href="#_未命名漸層_2"/>
    <linearGradient id="_未命名漸層_2-47" data-name="未命名漸層 2" x1="-213.54" y1="1681.36" x2="-123.55" y2="1715.14" xlink:href="#_未命名漸層_2"/>
    <linearGradient id="_未命名漸層_2-48" data-name="未命名漸層 2" x1="-171.83" y1="1710" x2="-155.58" y2="1716.1" xlink:href="#_未命名漸層_2"/>
    <linearGradient id="_未命名漸層_2-49" data-name="未命名漸層 2" x1="-162.14" y1="1712.65" x2="-153.01" y2="1716.08" xlink:href="#_未命名漸層_2"/>
    <linearGradient id="_未命名漸層_2-50" data-name="未命名漸層 2" x1="-153.99" y1="1713.93" x2="-145.72" y2="1717.03" xlink:href="#_未命名漸層_2"/>
    <linearGradient id="_未命名漸層_2-51" data-name="未命名漸層 2" x1="-157.54" y1="1710.32" x2="-140.61" y2="1716.68" xlink:href="#_未命名漸層_2"/>
    <linearGradient id="_未命名漸層_2-52" data-name="未命名漸層 2" x1="-153.35" y1="1710.32" x2="-136.4" y2="1716.68" xlink:href="#_未命名漸層_2"/>
    <linearGradient id="_未命名漸層_2-53" data-name="未命名漸層 2" x1="-146.96" y1="1711.2" x2="-134.05" y2="1716.04" xlink:href="#_未命名漸層_2"/>
    <linearGradient id="_未命名漸層_2-54" data-name="未命名漸層 2" x1="-151.25" y1="1710.83" x2="-145.97" y2="1712.81" xlink:href="#_未命名漸層_2"/>
    <linearGradient id="_未命名漸層_2-55" data-name="未命名漸層 2" x1="-221.3" y1="1681.15" x2="-124.09" y2="1717.64" xlink:href="#_未命名漸層_2"/>
    <linearGradient id="_未命名漸層_2-56" data-name="未命名漸層 2" x1="-216.96" y1="1690.45" x2="-126.97" y2="1724.24" xlink:href="#_未命名漸層_2"/>
    <linearGradient id="_未命名漸層_2-57" data-name="未命名漸層 2" x1="-217.82" y1="1692.75" x2="-127.83" y2="1726.53" xlink:href="#_未命名漸層_2"/>
    <linearGradient id="_未命名漸層_2-58" data-name="未命名漸層 2" x1="-218.69" y1="1695.07" x2="-128.7" y2="1728.85" xlink:href="#_未命名漸層_2"/>
    <linearGradient id="_未命名漸層_2-59" data-name="未命名漸層 2" x1="-220.62" y1="1700.2" x2="-130.63" y2="1733.99" xlink:href="#_未命名漸層_2"/>
    <linearGradient id="_未命名漸層_2-60" data-name="未命名漸層 2" x1="-222.51" y1="1705.25" x2="-132.53" y2="1739.04" xlink:href="#_未命名漸層_2"/>
    <linearGradient id="_未命名漸層_2-61" data-name="未命名漸層 2" x1="-222.94" y1="1706.39" x2="-132.95" y2="1740.18" xlink:href="#_未命名漸層_2"/>
    <linearGradient id="_未命名漸層_2-62" data-name="未命名漸層 2" x1="-225.49" y1="1713.18" x2="-135.5" y2="1746.96" xlink:href="#_未命名漸層_2"/>
    <linearGradient id="_未命名漸層_2-63" data-name="未命名漸層 2" x1="-226.4" y1="1715.62" x2="-136.42" y2="1749.4" xlink:href="#_未命名漸層_2"/>
    <linearGradient id="_未命名漸層_2-64" data-name="未命名漸層 2" x1="-26.66" y1="1689.67" x2="63.32" y2="1723.45" xlink:href="#_未命名漸層_2"/>
    <linearGradient id="_未命名漸層_2-65" data-name="未命名漸層 2" x1="-26.15" y1="1688.3" x2="63.84" y2="1722.08" xlink:href="#_未命名漸層_2"/>
    <linearGradient id="_未命名漸層_2-66" data-name="未命名漸層 2" x1="-24.81" y1="1684.74" x2="65.18" y2="1718.52" xlink:href="#_未命名漸層_2"/>
    <linearGradient id="_未命名漸層_2-67" data-name="未命名漸層 2" x1="-26.13" y1="1677.58" x2="68.57" y2="1713.13" xlink:href="#_未命名漸層_2"/>
    <linearGradient id="_未命名漸層_2-68" data-name="未命名漸層 2" x1="-21.65" y1="1676.32" x2="68.34" y2="1710.1" xlink:href="#_未命名漸層_2"/>
    <linearGradient id="_未命名漸層_2-69" data-name="未命名漸層 2" x1="-23.54" y1="1681.36" x2="66.45" y2="1715.14" xlink:href="#_未命名漸層_2"/>
    <linearGradient id="_未命名漸層_2-70" data-name="未命名漸層 2" x1="18.17" y1="1710" x2="34.42" y2="1716.1" xlink:href="#_未命名漸層_2"/>
    <linearGradient id="_未命名漸層_2-71" data-name="未命名漸層 2" x1="27.86" y1="1712.65" x2="36.99" y2="1716.08" xlink:href="#_未命名漸層_2"/>
    <linearGradient id="_未命名漸層_2-72" data-name="未命名漸層 2" x1="36.01" y1="1713.93" x2="44.28" y2="1717.03" xlink:href="#_未命名漸層_2"/>
    <linearGradient id="_未命名漸層_2-73" data-name="未命名漸層 2" x1="32.46" y1="1710.32" x2="49.39" y2="1716.68" xlink:href="#_未命名漸層_2"/>
    <linearGradient id="_未命名漸層_2-74" data-name="未命名漸層 2" x1="36.65" y1="1710.32" x2="53.6" y2="1716.68" xlink:href="#_未命名漸層_2"/>
    <linearGradient id="_未命名漸層_2-75" data-name="未命名漸層 2" x1="43.04" y1="1711.2" x2="55.95" y2="1716.04" xlink:href="#_未命名漸層_2"/>
    <linearGradient id="_未命名漸層_2-76" data-name="未命名漸層 2" x1="38.75" y1="1710.83" x2="44.03" y2="1712.81" xlink:href="#_未命名漸層_2"/>
    <linearGradient id="_未命名漸層_2-77" data-name="未命名漸層 2" x1="-31.3" y1="1681.15" x2="65.91" y2="1717.64" xlink:href="#_未命名漸層_2"/>
    <linearGradient id="_未命名漸層_2-78" data-name="未命名漸層 2" x1="-26.96" y1="1690.45" x2="63.03" y2="1724.24" xlink:href="#_未命名漸層_2"/>
    <linearGradient id="_未命名漸層_2-79" data-name="未命名漸層 2" x1="-27.82" y1="1692.75" x2="62.17" y2="1726.53" xlink:href="#_未命名漸層_2"/>
    <linearGradient id="_未命名漸層_2-80" data-name="未命名漸層 2" x1="-28.69" y1="1695.07" x2="61.3" y2="1728.85" xlink:href="#_未命名漸層_2"/>
    <linearGradient id="_未命名漸層_2-81" data-name="未命名漸層 2" x1="-30.62" y1="1700.2" x2="59.37" y2="1733.99" xlink:href="#_未命名漸層_2"/>
    <linearGradient id="_未命名漸層_2-82" data-name="未命名漸層 2" x1="-32.51" y1="1705.25" x2="57.47" y2="1739.04" xlink:href="#_未命名漸層_2"/>
    <linearGradient id="_未命名漸層_2-83" data-name="未命名漸層 2" x1="-32.94" y1="1706.39" x2="57.05" y2="1740.18" xlink:href="#_未命名漸層_2"/>
    <linearGradient id="_未命名漸層_2-84" data-name="未命名漸層 2" x1="-35.49" y1="1713.18" x2="54.5" y2="1746.96" xlink:href="#_未命名漸層_2"/>
    <linearGradient id="_未命名漸層_2-85" data-name="未命名漸層 2" x1="-36.4" y1="1715.62" x2="53.58" y2="1749.4" xlink:href="#_未命名漸層_2"/>
    <linearGradient id="_未命名漸層_2-86" data-name="未命名漸層 2" x1="163.34" y1="1689.67" x2="253.32" y2="1723.45" xlink:href="#_未命名漸層_2"/>
    <linearGradient id="_未命名漸層_2-87" data-name="未命名漸層 2" x1="163.85" y1="1688.3" x2="253.84" y2="1722.08" xlink:href="#_未命名漸層_2"/>
    <linearGradient id="_未命名漸層_2-88" data-name="未命名漸層 2" x1="165.19" y1="1684.74" x2="255.18" y2="1718.52" xlink:href="#_未命名漸層_2"/>
    <linearGradient id="_未命名漸層_2-89" data-name="未命名漸層 2" x1="163.87" y1="1677.58" x2="258.57" y2="1713.13" xlink:href="#_未命名漸層_2"/>
    <linearGradient id="_未命名漸層_2-90" data-name="未命名漸層 2" x1="168.35" y1="1676.32" x2="258.34" y2="1710.1" xlink:href="#_未命名漸層_2"/>
    <linearGradient id="_未命名漸層_2-91" data-name="未命名漸層 2" x1="166.46" y1="1681.36" x2="256.45" y2="1715.14" xlink:href="#_未命名漸層_2"/>
    <linearGradient id="_未命名漸層_2-92" data-name="未命名漸層 2" x1="208.17" y1="1710" x2="224.42" y2="1716.1" xlink:href="#_未命名漸層_2"/>
    <linearGradient id="_未命名漸層_2-93" data-name="未命名漸層 2" x1="217.86" y1="1712.65" x2="226.99" y2="1716.08" xlink:href="#_未命名漸層_2"/>
    <linearGradient id="_未命名漸層_2-94" data-name="未命名漸層 2" x1="226.01" y1="1713.93" x2="234.28" y2="1717.03" xlink:href="#_未命名漸層_2"/>
    <linearGradient id="_未命名漸層_2-95" data-name="未命名漸層 2" x1="222.46" y1="1710.32" x2="239.39" y2="1716.68" xlink:href="#_未命名漸層_2"/>
    <linearGradient id="_未命名漸層_2-96" data-name="未命名漸層 2" x1="226.65" y1="1710.32" x2="243.6" y2="1716.68" xlink:href="#_未命名漸層_2"/>
    <linearGradient id="_未命名漸層_2-97" data-name="未命名漸層 2" x1="233.04" y1="1711.2" x2="245.95" y2="1716.04" xlink:href="#_未命名漸層_2"/>
    <linearGradient id="_未命名漸層_2-98" data-name="未命名漸層 2" x1="228.75" y1="1710.83" x2="234.03" y2="1712.81" xlink:href="#_未命名漸層_2"/>
    <linearGradient id="_未命名漸層_2-99" data-name="未命名漸層 2" x1="158.7" y1="1681.15" x2="255.91" y2="1717.64" xlink:href="#_未命名漸層_2"/>
    <linearGradient id="_未命名漸層_2-100" data-name="未命名漸層 2" x1="163.04" y1="1690.45" x2="253.03" y2="1724.24" xlink:href="#_未命名漸層_2"/>
    <linearGradient id="_未命名漸層_2-101" data-name="未命名漸層 2" x1="162.18" y1="1692.75" x2="252.17" y2="1726.53" xlink:href="#_未命名漸層_2"/>
    <linearGradient id="_未命名漸層_2-102" data-name="未命名漸層 2" x1="161.31" y1="1695.07" x2="251.3" y2="1728.85" xlink:href="#_未命名漸層_2"/>
    <linearGradient id="_未命名漸層_2-103" data-name="未命名漸層 2" x1="159.38" y1="1700.2" x2="249.37" y2="1733.99" xlink:href="#_未命名漸層_2"/>
    <linearGradient id="_未命名漸層_2-104" data-name="未命名漸層 2" x1="157.49" y1="1705.25" x2="247.47" y2="1739.04" xlink:href="#_未命名漸層_2"/>
    <linearGradient id="_未命名漸層_2-105" data-name="未命名漸層 2" x1="157.06" y1="1706.39" x2="247.05" y2="1740.18" xlink:href="#_未命名漸層_2"/>
    <linearGradient id="_未命名漸層_2-106" data-name="未命名漸層 2" x1="154.51" y1="1713.18" x2="244.5" y2="1746.96" xlink:href="#_未命名漸層_2"/>
    <linearGradient id="_未命名漸層_2-107" data-name="未命名漸層 2" x1="153.6" y1="1715.62" x2="243.58" y2="1749.4" xlink:href="#_未命名漸層_2"/>
    <linearGradient id="_未命名漸層_2-108" data-name="未命名漸層 2" x1="-311.66" y1="1848.33" x2="-221.68" y2="1882.12" xlink:href="#_未命名漸層_2"/>
    <linearGradient id="_未命名漸層_2-109" data-name="未命名漸層 2" x1="-311.15" y1="1846.96" x2="-221.16" y2="1880.74" xlink:href="#_未命名漸層_2"/>
    <linearGradient id="_未命名漸層_2-110" data-name="未命名漸層 2" x1="-309.81" y1="1843.4" x2="-219.82" y2="1877.18" xlink:href="#_未命名漸層_2"/>
    <linearGradient id="_未命名漸層_2-111" data-name="未命名漸層 2" x1="-311.13" y1="1836.24" x2="-216.43" y2="1871.79" xlink:href="#_未命名漸層_2"/>
    <linearGradient id="_未命名漸層_2-112" data-name="未命名漸層 2" x1="-306.65" y1="1834.98" x2="-216.66" y2="1868.76" xlink:href="#_未命名漸層_2"/>
    <linearGradient id="_未命名漸層_2-113" data-name="未命名漸層 2" x1="-308.54" y1="1840.02" x2="-218.55" y2="1873.8" xlink:href="#_未命名漸層_2"/>
    <linearGradient id="_未命名漸層_2-114" data-name="未命名漸層 2" x1="-266.83" y1="1868.67" x2="-250.58" y2="1874.77" xlink:href="#_未命名漸層_2"/>
    <linearGradient id="_未命名漸層_2-115" data-name="未命名漸層 2" x1="-257.14" y1="1871.32" x2="-248.01" y2="1874.74" xlink:href="#_未命名漸層_2"/>
    <linearGradient id="_未命名漸層_2-116" data-name="未命名漸層 2" x1="-248.99" y1="1872.59" x2="-240.72" y2="1875.7" xlink:href="#_未命名漸層_2"/>
    <linearGradient id="_未命名漸層_2-117" data-name="未命名漸層 2" x1="-252.54" y1="1868.99" x2="-235.61" y2="1875.34" xlink:href="#_未命名漸層_2"/>
    <linearGradient id="_未命名漸層_2-118" data-name="未命名漸層 2" x1="-248.35" y1="1868.98" x2="-231.4" y2="1875.34" xlink:href="#_未命名漸層_2"/>
    <linearGradient id="_未命名漸層_2-119" data-name="未命名漸層 2" x1="-241.96" y1="1869.86" x2="-229.05" y2="1874.71" xlink:href="#_未命名漸層_2"/>
    <linearGradient id="_未命名漸層_2-120" data-name="未命名漸層 2" x1="-246.25" y1="1869.49" x2="-240.97" y2="1871.47" xlink:href="#_未命名漸層_2"/>
    <linearGradient id="_未命名漸層_2-121" data-name="未命名漸層 2" x1="-316.3" y1="1839.81" x2="-219.09" y2="1876.3" xlink:href="#_未命名漸層_2"/>
    <linearGradient id="_未命名漸層_2-122" data-name="未命名漸層 2" x1="-311.96" y1="1849.12" x2="-221.97" y2="1882.9" xlink:href="#_未命名漸層_2"/>
    <linearGradient id="_未命名漸層_2-123" data-name="未命名漸層 2" x1="-312.82" y1="1851.41" x2="-222.83" y2="1885.19" xlink:href="#_未命名漸層_2"/>
    <linearGradient id="_未命名漸層_2-124" data-name="未命名漸層 2" x1="-313.69" y1="1853.73" x2="-223.7" y2="1887.51" xlink:href="#_未命名漸層_2"/>
    <linearGradient id="_未命名漸層_2-125" data-name="未命名漸層 2" x1="-315.62" y1="1858.87" x2="-225.63" y2="1892.65" xlink:href="#_未命名漸層_2"/>
    <linearGradient id="_未命名漸層_2-126" data-name="未命名漸層 2" x1="-317.51" y1="1863.92" x2="-227.53" y2="1897.7" xlink:href="#_未命名漸層_2"/>
    <linearGradient id="_未命名漸層_2-127" data-name="未命名漸層 2" x1="-317.94" y1="1865.06" x2="-227.95" y2="1898.84" xlink:href="#_未命名漸層_2"/>
    <linearGradient id="_未命名漸層_2-128" data-name="未命名漸層 2" x1="-320.49" y1="1871.84" x2="-230.5" y2="1905.63" xlink:href="#_未命名漸層_2"/>
    <linearGradient id="_未命名漸層_2-129" data-name="未命名漸層 2" x1="-321.4" y1="1874.28" x2="-231.42" y2="1908.06" xlink:href="#_未命名漸層_2"/>
    <linearGradient id="_未命名漸層_2-130" data-name="未命名漸層 2" x1="-121.66" y1="1848.33" x2="-31.68" y2="1882.12" xlink:href="#_未命名漸層_2"/>
    <linearGradient id="_未命名漸層_2-131" data-name="未命名漸層 2" x1="-121.15" y1="1846.96" x2="-31.16" y2="1880.74" xlink:href="#_未命名漸層_2"/>
    <linearGradient id="_未命名漸層_2-132" data-name="未命名漸層 2" x1="-119.81" y1="1843.4" x2="-29.82" y2="1877.18" xlink:href="#_未命名漸層_2"/>
    <linearGradient id="_未命名漸層_2-133" data-name="未命名漸層 2" x1="-121.13" y1="1836.24" x2="-26.43" y2="1871.79" xlink:href="#_未命名漸層_2"/>
    <linearGradient id="_未命名漸層_2-134" data-name="未命名漸層 2" x1="-116.65" y1="1834.98" x2="-26.66" y2="1868.76" xlink:href="#_未命名漸層_2"/>
    <linearGradient id="_未命名漸層_2-135" data-name="未命名漸層 2" x1="-118.54" y1="1840.02" x2="-28.55" y2="1873.8" xlink:href="#_未命名漸層_2"/>
    <linearGradient id="_未命名漸層_2-136" data-name="未命名漸層 2" x1="-76.83" y1="1868.67" x2="-60.58" y2="1874.77" xlink:href="#_未命名漸層_2"/>
    <linearGradient id="_未命名漸層_2-137" data-name="未命名漸層 2" x1="-67.14" y1="1871.32" x2="-58.01" y2="1874.74" xlink:href="#_未命名漸層_2"/>
    <linearGradient id="_未命名漸層_2-138" data-name="未命名漸層 2" x1="-58.99" y1="1872.59" x2="-50.72" y2="1875.7" xlink:href="#_未命名漸層_2"/>
    <linearGradient id="_未命名漸層_2-139" data-name="未命名漸層 2" x1="-62.54" y1="1868.99" x2="-45.61" y2="1875.34" xlink:href="#_未命名漸層_2"/>
    <linearGradient id="_未命名漸層_2-140" data-name="未命名漸層 2" x1="-58.35" y1="1868.98" x2="-41.4" y2="1875.34" xlink:href="#_未命名漸層_2"/>
    <linearGradient id="_未命名漸層_2-141" data-name="未命名漸層 2" x1="-51.96" y1="1869.86" x2="-39.05" y2="1874.71" xlink:href="#_未命名漸層_2"/>
    <linearGradient id="_未命名漸層_2-142" data-name="未命名漸層 2" x1="-56.25" y1="1869.49" x2="-50.97" y2="1871.47" xlink:href="#_未命名漸層_2"/>
    <linearGradient id="_未命名漸層_2-143" data-name="未命名漸層 2" x1="-126.3" y1="1839.81" x2="-29.09" y2="1876.3" xlink:href="#_未命名漸層_2"/>
    <linearGradient id="_未命名漸層_2-144" data-name="未命名漸層 2" x1="-121.96" y1="1849.12" x2="-31.97" y2="1882.9" xlink:href="#_未命名漸層_2"/>
    <linearGradient id="_未命名漸層_2-145" data-name="未命名漸層 2" x1="-122.82" y1="1851.41" x2="-32.83" y2="1885.19" xlink:href="#_未命名漸層_2"/>
    <linearGradient id="_未命名漸層_2-146" data-name="未命名漸層 2" x1="-123.69" y1="1853.73" x2="-33.7" y2="1887.51" xlink:href="#_未命名漸層_2"/>
    <linearGradient id="_未命名漸層_2-147" data-name="未命名漸層 2" x1="-125.62" y1="1858.87" x2="-35.63" y2="1892.65" xlink:href="#_未命名漸層_2"/>
    <linearGradient id="_未命名漸層_2-148" data-name="未命名漸層 2" x1="-127.51" y1="1863.92" x2="-37.53" y2="1897.7" xlink:href="#_未命名漸層_2"/>
    <linearGradient id="_未命名漸層_2-149" data-name="未命名漸層 2" x1="-127.94" y1="1865.06" x2="-37.95" y2="1898.84" xlink:href="#_未命名漸層_2"/>
    <linearGradient id="_未命名漸層_2-150" data-name="未命名漸層 2" x1="-130.49" y1="1871.84" x2="-40.5" y2="1905.63" xlink:href="#_未命名漸層_2"/>
    <linearGradient id="_未命名漸層_2-151" data-name="未命名漸層 2" x1="-131.4" y1="1874.28" x2="-41.42" y2="1908.06" xlink:href="#_未命名漸層_2"/>
    <linearGradient id="_未命名漸層_2-152" data-name="未命名漸層 2" x1="68.34" y1="1848.33" x2="158.32" y2="1882.12" xlink:href="#_未命名漸層_2"/>
    <linearGradient id="_未命名漸層_2-153" data-name="未命名漸層 2" x1="68.85" y1="1846.96" x2="158.84" y2="1880.74" xlink:href="#_未命名漸層_2"/>
    <linearGradient id="_未命名漸層_2-154" data-name="未命名漸層 2" x1="70.19" y1="1843.4" x2="160.18" y2="1877.18" xlink:href="#_未命名漸層_2"/>
    <linearGradient id="_未命名漸層_2-155" data-name="未命名漸層 2" x1="68.87" y1="1836.24" x2="163.57" y2="1871.79" xlink:href="#_未命名漸層_2"/>
    <linearGradient id="_未命名漸層_2-156" data-name="未命名漸層 2" x1="73.35" y1="1834.98" x2="163.34" y2="1868.76" xlink:href="#_未命名漸層_2"/>
    <linearGradient id="_未命名漸層_2-157" data-name="未命名漸層 2" x1="71.46" y1="1840.02" x2="161.45" y2="1873.8" xlink:href="#_未命名漸層_2"/>
    <linearGradient id="_未命名漸層_2-158" data-name="未命名漸層 2" x1="113.17" y1="1868.67" x2="129.42" y2="1874.77" xlink:href="#_未命名漸層_2"/>
    <linearGradient id="_未命名漸層_2-159" data-name="未命名漸層 2" x1="122.86" y1="1871.32" x2="131.99" y2="1874.74" xlink:href="#_未命名漸層_2"/>
    <linearGradient id="_未命名漸層_2-160" data-name="未命名漸層 2" x1="131.01" y1="1872.59" x2="139.28" y2="1875.7" xlink:href="#_未命名漸層_2"/>
    <linearGradient id="_未命名漸層_2-161" data-name="未命名漸層 2" x1="127.46" y1="1868.99" x2="144.39" y2="1875.34" xlink:href="#_未命名漸層_2"/>
    <linearGradient id="_未命名漸層_2-162" data-name="未命名漸層 2" x1="131.65" y1="1868.98" x2="148.6" y2="1875.34" xlink:href="#_未命名漸層_2"/>
    <linearGradient id="_未命名漸層_2-163" data-name="未命名漸層 2" x1="138.04" y1="1869.86" x2="150.95" y2="1874.71" xlink:href="#_未命名漸層_2"/>
    <linearGradient id="_未命名漸層_2-164" data-name="未命名漸層 2" x1="133.75" y1="1869.49" x2="139.03" y2="1871.47" xlink:href="#_未命名漸層_2"/>
    <linearGradient id="_未命名漸層_2-165" data-name="未命名漸層 2" x1="63.7" y1="1839.81" x2="160.91" y2="1876.3" xlink:href="#_未命名漸層_2"/>
    <linearGradient id="_未命名漸層_2-166" data-name="未命名漸層 2" x1="68.04" y1="1849.12" x2="158.03" y2="1882.9" xlink:href="#_未命名漸層_2"/>
    <linearGradient id="_未命名漸層_2-167" data-name="未命名漸層 2" x1="67.18" y1="1851.41" x2="157.17" y2="1885.19" xlink:href="#_未命名漸層_2"/>
    <linearGradient id="_未命名漸層_2-168" data-name="未命名漸層 2" x1="66.31" y1="1853.73" x2="156.3" y2="1887.51" xlink:href="#_未命名漸層_2"/>
    <linearGradient id="_未命名漸層_2-169" data-name="未命名漸層 2" x1="64.38" y1="1858.87" x2="154.37" y2="1892.65" xlink:href="#_未命名漸層_2"/>
    <linearGradient id="_未命名漸層_2-170" data-name="未命名漸層 2" x1="62.49" y1="1863.92" x2="152.47" y2="1897.7" xlink:href="#_未命名漸層_2"/>
    <linearGradient id="_未命名漸層_2-171" data-name="未命名漸層 2" x1="62.06" y1="1865.06" x2="152.05" y2="1898.84" xlink:href="#_未命名漸層_2"/>
    <linearGradient id="_未命名漸層_2-172" data-name="未命名漸層 2" x1="59.51" y1="1871.84" x2="149.5" y2="1905.63" xlink:href="#_未命名漸層_2"/>
    <linearGradient id="_未命名漸層_2-173" data-name="未命名漸層 2" x1="58.6" y1="1874.28" x2="148.58" y2="1908.06" xlink:href="#_未命名漸層_2"/>
    <linearGradient id="_未命名漸層_2-174" data-name="未命名漸層 2" x1="163.04" y1="2007.78" x2="253.03" y2="2041.56" xlink:href="#_未命名漸層_2"/>
    <linearGradient id="_未命名漸層_2-175" data-name="未命名漸層 2" x1="162.18" y1="2010.07" x2="252.17" y2="2043.85" xlink:href="#_未命名漸層_2"/>
    <linearGradient id="_未命名漸層_2-176" data-name="未命名漸層 2" x1="161.31" y1="2012.39" x2="251.3" y2="2046.17" xlink:href="#_未命名漸層_2"/>
    <linearGradient id="_未命名漸層_2-177" data-name="未命名漸層 2" x1="159.38" y1="2017.53" x2="249.37" y2="2051.31" xlink:href="#_未命名漸層_2"/>
    <linearGradient id="_未命名漸層_2-178" data-name="未命名漸層 2" x1="157.49" y1="2022.58" x2="247.47" y2="2056.36" xlink:href="#_未命名漸層_2"/>
    <linearGradient id="_未命名漸層_2-179" data-name="未命名漸層 2" x1="157.06" y1="2023.72" x2="247.05" y2="2057.5" xlink:href="#_未命名漸層_2"/>
    <linearGradient id="_未命名漸層_2-180" data-name="未命名漸層 2" x1="154.51" y1="2030.5" x2="244.5" y2="2064.29" xlink:href="#_未命名漸層_2"/>
    <linearGradient id="_未命名漸層_2-181" data-name="未命名漸層 2" x1="153.6" y1="2032.94" x2="243.58" y2="2066.72" xlink:href="#_未命名漸層_2"/>
  </defs>
  <g class="cls-26">
    <g class="cls-124">
      <g class="cls-78">
        <g>
          <g>
            <path class="cls-27" d="M45.06,30.76c-.37-.06-.72,.11-.95,.45l-3.27,5.66-5.64-3.26c-.3-.17-.78-.2-1.09,.09-.29,.22-.42,.61-.31,.99l3.42,12.77c.14,.54,.64,.83,1.18,.68s.82-.67,.68-1.18l-2.82-10.51c1.16,.68,2.69,1.56,3.61,2.07l-.13,.23c-.13,.22-.17,.48-.1,.73s.23,.45,.45,.58c.47,.27,1.04,.12,1.3-.34,0-.01,.63-1.07,.63-1.07,0,0,1.92-3.34,2.57-4.46,.75,2.82,2.3,8.71,2.71,10.27l.1,.38c.14,.51,.72,.8,1.24,.67s.81-.66,.67-1.19l-3.45-12.87c-.11-.4-.42-.67-.8-.71Z"/>
            <path class="cls-139" d="M50.19,33.72c-.54,.14-.83,.64-.68,1.18l2.32,8.66c.14,.54,.64,.83,1.18,.68s.82-.67,.68-1.18l-2.32-8.66c-.14-.51-.67-.82-1.18-.68Z"/>
            <path class="cls-21" d="M60.81,32.27c.22,.13,.49,.16,.74,.1s.47-.23,.6-.46l.02-.05c.19-.43,.05-.94-.33-1.22l-1.69-.94c-.24-.14-.48-.17-.72-.11-.38,.1-.54,.37-.59,.46l-4.7,8.09-.02,.05c-.19,.43-.05,.94,.33,1.22l4.91,2.83c.22,.13,.5,.17,.72,.11l3.84-1.03c.54-.14,.83-.64,.68-1.18s-.66-.82-1.18-.68l-3.42,.92c-.66-.37-2.72-1.55-3.68-2.12l3.71-6.42c.38,.22,.76,.43,.78,.44Z"/>
            <path class="cls-9" d="M67.41,24.74c-.25,.07-.46,.23-.59,.46s-.17,.49-.1,.74l3.43,12.81v.05s.05,.08,.05,.08c.06,.12,.18,.29,.42,.43,.23,.13,.43,.14,.57,.14h.07s8.03-2.19,8.03-2.19c.27-.07,.46-.22,.59-.43s.15-.5,.09-.74l-3.42-12.8c-.07-.25-.22-.45-.46-.58-.21-.12-.48-.16-.72-.1l-7.96,2.13Zm7.53-.03c.2,.73,.55,2.04,.91,3.41l.02,.08c.55,2.09,1.7,6.39,2,7.46l-6.09,1.63c-.28-1.01-1.4-5.18-1.93-7.16v-.02c-.43-1.59-.81-2.99-1.02-3.75,.59-.16,1.53-.42,2.47-.68l1.14-.31c.95-.26,1.9-.52,2.5-.68Z"/>
            <path class="cls-75" d="M89.49,24.66l-.03-.03-3.33-1.94c-.25-.14-.54-.14-.73-.09-.25,.07-.45,.22-.58,.44l-2.57,4.5-.77-2.86c-.14-.51-.67-.82-1.18-.68-.54,.14-.83,.64-.68,1.18l2.74,10.21c.14,.54,.64,.83,1.18,.68s.82-.67,.68-1.18l-1.27-4.73c.57-1.03,2.37-4.16,3.04-5.32,.51,.3,1.23,.72,1.72,1.01l.32,.19,1.96,7.3c.14,.51,.67,.82,1.18,.68,.54-.14,.83-.64,.68-1.18l-2.06-7.68c-.05-.18-.16-.37-.3-.5Z"/>
            <polygon class="cls-175" points="48.74 30.64 48.38 31.65 49.19 32.33 50.01 33.02 50.38 32.02 50.74 31.01 49.92 30.33 49.11 29.64 48.74 30.64"/>
            <path class="cls-100" d="M71.94,42.83c-.13-.07-.26-.05-.3-.04l-1.81,.48c-.22,.06-.34,.27-.28,.48l1.21,4.53c.06,.22,.27,.34,.48,.28s.34-.27,.28-.48l-.26-.98c.13-.01,.24-.08,.31-.2l1.67-2.87v-.02c.09-.19,.02-.43-.15-.51l-1.15-.67Zm-.9,3.43l-.62-2.32,1.27-.34c.08,.05,.2,.12,.36,.21,.1,.06,.21,.12,.31,.18-.29,.51-1,1.74-1.31,2.27Z"/>
            <path class="cls-121" d="M75.47,42.86c-.18-.1-.42-.03-.52,.15l-.18,.31c-.06-.2-.27-.31-.48-.26-.22,.06-.34,.27-.28,.48l.97,3.62c.06,.22,.27,.34,.48,.28s.34-.27,.28-.48l-.69-2.56,.57-.99c.06-.1,.07-.23,.03-.34-.03-.1-.11-.17-.19-.21Z"/>
            <path class="cls-169" d="M82.23,46.61c.1-.03,.19-.09,.24-.18l.67-1.15s.08-.15,.04-.3l-.82-3.07c-.06-.21-.27-.34-.48-.28s-.34,.27-.28,.48l.78,2.91c-.15,.25-.51,.89-.58,1.02-.06,.1-.07,.2-.04,.3,.03,.09,.1,.19,.19,.24,.09,.05,.2,.07,.3,.04Z"/>
            <path class="cls-38" d="M85.58,44.61c.09,.05,.2,.07,.3,.04l1.36-.36c.22-.06,.34-.27,.28-.48s-.27-.34-.48-.28l-1.19,.32c-.24-.13-.89-.51-1.24-.71l.31-.54c.06,.19,.28,.31,.48,.26l1.36-.36c.21-.06,.34-.27,.28-.48l-.36-1.36c-.03-.11-.08-.17-.12-.21l-.63-.36c-.1-.06-.2-.07-.3-.04-.16,.04-.22,.15-.24,.19l-1.67,2.88-.02,.04c-.02,.08-.02,.16,0,.24,.03,.11,.08,.17,.12,.21l1.77,1.03Zm.28-3.66s.06,.03,.08,.05l.22,.83-.96,.26,.65-1.13Z"/>
            <path class="cls-106" d="M89.65,43.52c.09,.05,.2,.07,.3,.04l1.36-.36c.22-.06,.34-.27,.28-.48s-.27-.34-.48-.28l-1.19,.32c-.24-.13-.89-.51-1.24-.71l1.26-2.18c.09,.05,.18,.1,.21,.12h.02c.18,.12,.44,.05,.55-.14v-.02c.09-.17,.03-.38-.14-.5l-.59-.33c-.1-.06-.2-.07-.3-.04-.11,.03-.18,.09-.24,.19l-1.67,2.87v.02c-.09,.17-.03,.38,.13,.5l1.74,1Z"/>
            <path class="cls-85" d="M91.7,39.21l.06-.02,.87,3.24c.06,.22,.27,.34,.48,.28l.45-.12c.22-.06,.34-.27,.28-.48s-.27-.34-.48-.28l-.07,.02-.77-2.86,.52-.14c.21-.06,.34-.27,.28-.48s-.27-.34-.48-.28l-.52,.14-.14-.53c-.06-.21-.27-.34-.48-.28s-.34,.27-.28,.48l.14,.53-.06,.02c-.22,.06-.34,.27-.28,.48s.27,.34,.48,.28Z"/>
            <polygon class="cls-93" points="81.73 41.07 81.92 40.53 82.12 40 81.68 39.64 81.25 39.27 81.05 39.81 80.86 40.34 81.3 40.7 81.73 41.07"/>
            <path class="cls-67" d="M97.72,28.3c.29-.53,.57-1.04,.9-1.65-.64,.27-1.18,.5-1.73,.73-.4-.41-.78-.8-1.16-1.19-.03,.01-.06,.03-.09,.04,.02,.56,.05,1.12,.07,1.69-.54,.27-1.05,.54-1.56,.8,0,.03,.02,.06,.02,.08,.54,.12,1.08,.24,1.64,.37,.07,.58,.14,1.13,.21,1.68,.03,0,.07,0,.1,0,.25-.39,.51-.79,.76-1.18,.06,.03,.1,.04,.12,.06,.07,.09,.14,.18,.2,.28,1.58,2.51,2.35,5.23,2.15,8.19-.21,3.22-1.43,5.99-3.89,8.13-2.08,1.81-4.53,2.74-7.27,2.91-3.43,.22-6.51-.75-9.24-2.83l.02-.02,1.68-2.9c.05-.09,.07-.21,.04-.3s-.09-.2-.21-.25l-1.7-.98c-.18-.11-.43-.04-.54,.14l-1.66,2.87c-.07,.13-.04,.25-.03,.29,.02,.06,.05,.17,.17,.25l1.72,.99c3.32,2.63,7.07,3.64,11.3,2.93,1.91-.32,3.68-1.03,5.21-2.21,4.08-3.15,5.36-7.38,4.59-12.33-.29-1.85-1.01-3.56-2.04-5.14-.05-.07-.07-.17-.12-.31,.5,.07,.94,.14,1.5,.22-.43-.52-.78-.94-1.15-1.38Zm-18.99,14.56c.11,.06,.24,.13,.38,.21,.23,.13,.49,.28,.67,.38-.33,.58-.99,1.71-1.27,2.19-.27-.16-.75-.43-1.03-.6l1.26-2.19Z"/>
            <g>
              <path class="cls-113" d="M9.4,41.43c.13-.6,.44-1.12,.75-1.65,1.23-2.13,2.92-3.8,5.13-4.88,4.01-1.97,8.01-1.88,11.94,.27,.43,.24,.83,.54,1.24,.81,.11,.07,.2,.17,.3,.25l.07,.26s-.04,.09-.05,.14c-.09,.57-.64,.82-1.13,.51-.5-.32-.99-.66-1.51-.94-2.03-1.07-4.18-1.47-6.46-1.19-2.4,.29-4.49,1.26-6.27,2.9-1.08,1-1.92,2.19-2.54,3.53-.04,.08-.07,.17-.12,.25-.27,.5-.89,.54-1.22,.09-.02-.03-.05-.06-.07-.09-.02-.09-.05-.18-.07-.26Z"/>
              <path class="cls-35" d="M19.21,37.58c2.13-.51,4.52-.08,6.69,1.47,.35,.25,.43,.68,.2,1.01-.23,.33-.66,.4-1.02,.14-.95-.69-2-1.13-3.17-1.3-2.98-.45-6.01,1.18-7.28,3.92-.04,.08-.07,.15-.11,.23-.19,.38-.59,.53-.95,.36-.36-.17-.5-.58-.33-.96,.33-.75,.75-1.44,1.28-2.07,1.12-1.32,2.57-2.24,4.68-2.8Z"/>
              <path class="cls-172" d="M19.85,41.43c1.29-.27,2.42-.06,3.46,.66,.38,.26,.48,.67,.26,1.01-.23,.36-.65,.43-1.04,.16-.59-.41-1.24-.6-1.96-.52-.98,.12-1.71,.61-2.19,1.47-.05,.09-.09,.19-.14,.28-.2,.34-.59,.45-.93,.28-.34-.17-.48-.57-.32-.93,.26-.59,.64-1.11,1.13-1.53,.52-.45,1.13-.74,1.74-.89Z"/>
            </g>
            <g>
              <g>
                <path class="cls-145" d="M26.87,49.97l-.42-1.55c-.66-2.47-3.21-3.95-5.69-3.28s-3.95,3.21-3.28,5.69l.42,1.55c1.15-1.06,2.57-1.87,4.19-2.31s3.25-.44,4.78-.1Z"/>
                <path class="cls-82" d="M18.15,53.3l.45,1.66c.66,2.47,3.21,3.95,5.69,3.28s3.95-3.21,3.28-5.69l-.45-1.66c-1.52-.42-3.18-.46-4.81-.02-1.64,.44-3.05,1.3-4.16,2.42Z"/>
              </g>
              <path class="cls-17" d="M24.98,60.86c-3.87,1.04-7.86-1.27-8.9-5.14l-.21-.79c-.09-.33,.11-.68,.44-.77s.68,.11,.77,.44l.21,.79c.86,3.2,4.16,5.11,7.36,4.25,3.2-.86,5.11-4.16,4.25-7.36l-.21-.79c-.09-.33,.11-.68,.44-.77s.68,.11,.77,.44l.21,.79c1.04,3.87-1.27,7.86-5.14,8.9Z"/>
              <path class="cls-80" d="M26.55,66.44c-.33,.09-.68-.11-.77-.44l-1.44-5.37c-.09-.33,.11-.68,.44-.77s.68,.11,.77,.44l1.44,5.37c.09,.33-.11,.68-.44,.77Z"/>
              <path class="cls-165" d="M29.24,65.72l-5.37,1.44c-.33,.09-.68-.11-.77-.44s.11-.68,.44-.77l5.37-1.44c.33-.09,.68,.11,.77,.44s-.11,.68-.44,.77Z"/>
            </g>
          </g>
          <g>
            <path class="cls-90" d="M281.24-20.88c.29-.53,.57-1.04,.9-1.65-.64,.27-1.18,.5-1.73,.73-.4-.41-.78-.8-1.16-1.19-.03,.01-.06,.03-.09,.04,.02,.56,.05,1.12,.07,1.69-.54,.27-1.05,.54-1.56,.8,0,.03,.02,.06,.02,.08,.54,.12,1.08,.24,1.64,.37,.07,.58,.14,1.13,.21,1.68,.03,0,.07,0,.1,0,.25-.39,.51-.79,.76-1.18,.06,.03,.1,.04,.12,.06,.07,.09,.14,.18,.2,.28,1.58,2.51,2.35,5.23,2.15,8.19-.21,3.22-1.43,5.99-3.89,8.13-2.08,1.81-4.53,2.74-7.27,2.91-3.43,.22-6.51-.75-9.24-2.83l.02-.02,1.68-2.9c.05-.09,.07-.21,.04-.3s-.09-.2-.21-.25l-1.7-.98c-.18-.11-.43-.04-.54,.14l-1.66,2.87c-.07,.13-.04,.25-.03,.29,.02,.06,.05,.17,.17,.25l1.72,.99c3.32,2.63,7.07,3.64,11.3,2.93,1.91-.32,3.68-1.03,5.21-2.21,4.08-3.15,5.36-7.38,4.59-12.33-.29-1.85-1.01-3.56-2.04-5.14-.05-.07-.07-.17-.12-.31,.5,.07,.94,.14,1.5,.22-.43-.52-.78-.94-1.15-1.38Zm-18.99,14.56c.11,.06,.24,.13,.38,.21,.23,.13,.49,.28,.67,.38-.33,.58-.99,1.71-1.27,2.19-.27-.16-.75-.43-1.03-.6l1.26-2.19Z"/>
            <g>
              <g>
                <path class="cls-171" d="M210.4,.8l-.42-1.55c-.66-2.47-3.21-3.95-5.69-3.28-2.47,.66-3.95,3.21-3.28,5.69l.42,1.55c1.15-1.06,2.57-1.87,4.19-2.31s3.25-.44,4.78-.1Z"/>
                <path class="cls-147" d="M201.68,4.12l.45,1.66c.66,2.47,3.21,3.95,5.69,3.28s3.95-3.21,3.28-5.69l-.45-1.66c-1.52-.42-3.18-.46-4.81-.02s-3.05,1.3-4.16,2.42Z"/>
              </g>
              <path class="cls-31" d="M208.51,11.68c-3.87,1.04-7.86-1.27-8.9-5.14l-.21-.79c-.09-.33,.11-.68,.44-.77s.68,.11,.77,.44l.21,.79c.86,3.2,4.16,5.11,7.36,4.25,3.2-.86,5.11-4.16,4.25-7.36l-.21-.79c-.09-.33,.11-.68,.44-.77s.68,.11,.77,.44l.21,.79c1.04,3.87-1.27,7.86-5.14,8.9Z"/>
              <path class="cls-183" d="M210.08,17.27c-.33,.09-.68-.11-.77-.44l-1.44-5.37c-.09-.33,.11-.68,.44-.77s.68,.11,.77,.44l1.44,5.37c.09,.33-.11,.68-.44,.77Z"/>
              <path class="cls-61" d="M212.76,16.55l-5.37,1.44c-.33,.09-.68-.11-.77-.44s.11-.68,.44-.77l5.37-1.44c.33-.09,.68,.11,.77,.44s-.11,.68-.44,.77Z"/>
            </g>
          </g>
          <g>
            <path class="cls-25" d="M-.5,211.56c-.54,.14-.83,.64-.68,1.18l2.32,8.66c.14,.54,.64,.83,1.18,.68s.82-.67,.68-1.18l-2.32-8.66c-.14-.51-.67-.82-1.18-.68Z"/>
            <path class="cls-177" d="M10.12,210.11c.22,.13,.49,.16,.74,.1s.47-.23,.6-.46l.02-.05c.19-.43,.05-.94-.33-1.22l-1.69-.94c-.24-.14-.48-.17-.72-.11-.38,.1-.54,.37-.59,.46l-4.7,8.09-.02,.05c-.19,.43-.05,.94,.33,1.22l4.91,2.83c.22,.13,.5,.17,.72,.11l3.84-1.03c.54-.14,.83-.64,.68-1.18s-.66-.82-1.18-.68l-3.42,.92c-.66-.37-2.72-1.55-3.68-2.12l3.71-6.42c.38,.22,.76,.43,.78,.44Z"/>
            <path class="cls-153" d="M16.71,202.59c-.25,.07-.46,.23-.59,.46s-.17,.49-.1,.74l3.43,12.81v.05s.05,.08,.05,.08c.06,.12,.18,.29,.42,.43,.23,.13,.43,.14,.57,.14h.07s8.03-2.19,8.03-2.19c.27-.07,.46-.22,.59-.43s.15-.5,.09-.74l-3.42-12.8c-.07-.25-.22-.45-.46-.58-.21-.12-.48-.16-.72-.1l-7.96,2.13Zm7.53-.03c.2,.73,.55,2.04,.91,3.41l.02,.08c.55,2.09,1.7,6.39,2,7.46l-6.09,1.63c-.28-1.01-1.4-5.18-1.93-7.16v-.02c-.43-1.59-.81-2.99-1.02-3.75,.59-.16,1.53-.42,2.47-.68l1.14-.31c.95-.26,1.9-.52,2.5-.68Z"/>
            <path class="cls-42" d="M38.79,202.5l-.03-.03-3.33-1.94c-.25-.14-.54-.14-.73-.09-.25,.07-.45,.22-.58,.44l-2.57,4.5-.77-2.86c-.14-.51-.67-.82-1.18-.68-.54,.14-.83,.64-.68,1.18l2.74,10.21c.14,.54,.64,.83,1.18,.68s.82-.67,.68-1.18l-1.27-4.73c.57-1.03,2.37-4.16,3.04-5.32,.51,.3,1.23,.72,1.72,1.01l.32,.19,1.96,7.3c.14,.51,.67,.82,1.18,.68,.54-.14,.83-.64,.68-1.18l-2.06-7.68c-.05-.18-.16-.37-.3-.5Z"/>
            <polygon class="cls-170" points="-1.96 208.49 -2.32 209.49 -1.5 210.18 -.69 210.86 -.32 209.86 .04 208.86 -.77 208.17 -1.59 207.48 -1.96 208.49"/>
            <path class="cls-34" d="M21.25,220.68c-.13-.07-.26-.05-.3-.04l-1.81,.48c-.22,.06-.34,.27-.28,.48l1.21,4.53c.06,.22,.27,.34,.48,.28s.34-.27,.28-.48l-.26-.98c.13-.01,.24-.08,.31-.2l1.67-2.87v-.02c.09-.19,.02-.43-.15-.51l-1.15-.67Zm-.9,3.43l-.62-2.32,1.27-.34c.08,.05,.2,.12,.36,.21,.1,.06,.21,.12,.31,.18-.29,.51-1,1.74-1.31,2.27Z"/>
            <path class="cls-79" d="M24.77,220.7c-.18-.1-.42-.03-.52,.15l-.18,.31c-.06-.2-.27-.31-.48-.26-.22,.06-.34,.27-.28,.48l.97,3.62c.06,.22,.27,.34,.48,.28s.34-.27,.28-.48l-.69-2.56,.57-.99c.06-.1,.07-.23,.03-.34-.03-.1-.11-.17-.19-.21Z"/>
            <path class="cls-162" d="M31.53,224.45c.1-.03,.19-.09,.24-.18l.67-1.15s.08-.15,.04-.3l-.82-3.07c-.06-.21-.27-.34-.48-.28s-.34,.27-.28,.48l.78,2.91c-.15,.25-.51,.89-.58,1.02-.06,.1-.07,.2-.04,.3,.03,.09,.1,.19,.19,.24,.09,.05,.2,.07,.3,.04Z"/>
            <path class="cls-136" d="M34.88,222.45c.09,.05,.2,.07,.3,.04l1.36-.36c.22-.06,.34-.27,.28-.48s-.27-.34-.48-.28l-1.19,.32c-.24-.13-.89-.51-1.24-.71l.31-.54c.06,.19,.28,.31,.48,.26l1.36-.36c.21-.06,.34-.27,.28-.48l-.36-1.36c-.03-.11-.08-.17-.12-.21l-.63-.36c-.1-.06-.2-.07-.3-.04-.16,.04-.22,.15-.24,.19l-1.67,2.88-.02,.04c-.02,.08-.02,.16,0,.24,.03,.11,.08,.17,.12,.21l1.77,1.03Zm.28-3.66s.06,.03,.08,.05l.22,.83-.96,.26,.65-1.13Z"/>
            <path class="cls-71" d="M38.95,221.36c.09,.05,.2,.07,.3,.04l1.36-.36c.22-.06,.34-.27,.28-.48s-.27-.34-.48-.28l-1.19,.32c-.24-.13-.89-.51-1.24-.71l1.26-2.18c.09,.05,.18,.1,.21,.12h.02c.18,.12,.44,.05,.55-.14v-.02c.09-.17,.03-.38-.14-.5l-.59-.33c-.1-.06-.2-.07-.3-.04-.11,.03-.18,.09-.24,.19l-1.67,2.87v.02c-.09,.17-.03,.38,.13,.5l1.74,1Z"/>
            <path class="cls-10" d="M41,217.06l.06-.02,.87,3.24c.06,.22,.27,.34,.48,.28l.45-.12c.22-.06,.34-.27,.28-.48s-.27-.34-.48-.28l-.07,.02-.77-2.86,.52-.14c.21-.06,.34-.27,.28-.48s-.27-.34-.48-.28l-.52,.14-.14-.53c-.06-.21-.27-.34-.48-.28s-.34,.27-.28,.48l.14,.53-.06,.02c-.22,.06-.34,.27-.28,.48s.27,.34,.48,.28Z"/>
            <polygon class="cls-64" points="31.03 218.91 31.23 218.38 31.42 217.85 30.99 217.48 30.55 217.12 30.36 217.65 30.16 218.18 30.6 218.55 31.03 218.91"/>
            <path class="cls-39" d="M47.02,206.14c.29-.53,.57-1.04,.9-1.65-.64,.27-1.18,.5-1.73,.73-.4-.41-.78-.8-1.16-1.19-.03,.01-.06,.03-.09,.04,.02,.56,.05,1.12,.07,1.69-.54,.27-1.05,.54-1.56,.8,0,.03,.02,.06,.02,.08,.54,.12,1.08,.24,1.64,.37,.07,.58,.14,1.13,.21,1.68,.03,0,.07,0,.1,0,.25-.39,.51-.79,.76-1.18,.06,.03,.1,.04,.12,.06,.07,.09,.14,.18,.2,.28,1.58,2.51,2.35,5.23,2.15,8.19-.21,3.22-1.43,5.99-3.89,8.13-2.08,1.81-4.53,2.74-7.27,2.91-3.43,.22-6.51-.75-9.24-2.83l.02-.02,1.68-2.9c.05-.09,.07-.21,.04-.3s-.09-.2-.21-.25l-1.7-.98c-.18-.11-.43-.04-.54,.14l-1.66,2.87c-.07,.13-.04,.25-.03,.29,.02,.06,.05,.17,.17,.25l1.72,.99c3.32,2.63,7.07,3.64,11.3,2.93,1.91-.32,3.68-1.03,5.21-2.21,4.08-3.15,5.36-7.38,4.59-12.33-.29-1.85-1.01-3.56-2.04-5.14-.05-.07-.07-.17-.12-.31,.5,.07,.94,.14,1.5,.22-.43-.52-.78-.94-1.15-1.38Zm-18.99,14.56c.11,.06,.24,.13,.38,.21,.23,.13,.49,.28,.67,.38-.33,.58-.99,1.71-1.27,2.19-.27-.16-.75-.43-1.03-.6l1.26-2.19Z"/>
          </g>
          <g>
            <path class="cls-36" d="M177.89,159.42c-.37-.06-.72,.11-.95,.45l-3.27,5.66-5.64-3.26c-.3-.17-.78-.2-1.09,.09-.29,.22-.42,.61-.31,.99l3.42,12.77c.14,.54,.64,.83,1.18,.68s.82-.67,.68-1.18l-2.82-10.51c1.16,.68,2.69,1.56,3.61,2.07l-.13,.23c-.13,.22-.17,.48-.1,.73s.23,.45,.45,.58c.47,.27,1.04,.12,1.3-.34,0-.01,.63-1.07,.63-1.07,0,0,1.92-3.34,2.57-4.46,.75,2.82,2.3,8.71,2.71,10.27l.1,.38c.14,.51,.72,.8,1.24,.67s.81-.66,.67-1.19l-3.45-12.87c-.11-.4-.42-.67-.8-.71Z"/>
            <path class="cls-105" d="M183.02,162.38c-.54,.14-.83,.64-.68,1.18l2.32,8.66c.14,.54,.64,.83,1.18,.68s.82-.67,.68-1.18l-2.32-8.66c-.14-.51-.67-.82-1.18-.68Z"/>
            <path class="cls-182" d="M193.64,160.93c.22,.13,.49,.16,.74,.1s.47-.23,.6-.46l.02-.05c.19-.43,.05-.94-.33-1.22l-1.69-.94c-.24-.14-.48-.17-.72-.11-.38,.1-.54,.37-.59,.46l-4.7,8.09-.02,.05c-.19,.43-.05,.94,.33,1.22l4.91,2.83c.22,.13,.5,.17,.72,.11l3.84-1.03c.54-.14,.83-.64,.68-1.18s-.66-.82-1.18-.68l-3.42,.92c-.66-.37-2.72-1.55-3.68-2.12l3.71-6.42c.38,.22,.76,.43,.78,.44Z"/>
            <path class="cls-97" d="M200.24,153.41c-.25,.07-.46,.23-.59,.46s-.17,.49-.1,.74l3.43,12.81v.05s.05,.08,.05,.08c.06,.12,.18,.29,.42,.43,.23,.13,.43,.14,.57,.14h.07s8.03-2.19,8.03-2.19c.27-.07,.46-.22,.59-.43s.15-.5,.09-.74l-3.42-12.8c-.07-.25-.22-.45-.46-.58-.21-.12-.48-.16-.72-.1l-7.96,2.13Zm7.53-.03c.2,.73,.55,2.04,.91,3.41l.02,.08c.55,2.09,1.7,6.39,2,7.46l-6.09,1.63c-.28-1.01-1.4-5.18-1.93-7.16v-.02c-.43-1.59-.81-2.99-1.02-3.75,.59-.16,1.53-.42,2.47-.68l1.14-.31c.95-.26,1.9-.52,2.5-.68Z"/>
            <path class="cls-133" d="M222.31,153.32l-.03-.03-3.33-1.94c-.25-.14-.54-.14-.73-.09-.25,.07-.45,.22-.58,.44l-2.57,4.5-.77-2.86c-.14-.51-.67-.82-1.18-.68-.54,.14-.83,.64-.68,1.18l2.74,10.21c.14,.54,.64,.83,1.18,.68s.82-.67,.68-1.18l-1.27-4.73c.57-1.03,2.37-4.16,3.04-5.32,.51,.3,1.23,.72,1.72,1.01l.32,.19,1.96,7.3c.14,.51,.67,.82,1.18,.68,.54-.14,.83-.64,.68-1.18l-2.06-7.68c-.05-.18-.16-.37-.3-.5Z"/>
            <polygon class="cls-89" points="181.57 159.31 181.2 160.31 182.02 161 182.84 161.69 183.21 160.68 183.57 159.68 182.75 158.99 181.93 158.31 181.57 159.31"/>
            <path class="cls-62" d="M204.77,171.5c-.13-.07-.26-.05-.3-.04l-1.81,.48c-.22,.06-.34,.27-.28,.48l1.21,4.53c.06,.22,.27,.34,.48,.28s.34-.27,.28-.48l-.26-.98c.13-.01,.24-.08,.31-.2l1.67-2.87v-.02c.09-.19,.02-.43-.15-.51l-1.15-.67Zm-.9,3.43l-.62-2.32,1.27-.34c.08,.05,.2,.12,.36,.21,.1,.06,.21,.12,.31,.18-.29,.51-1,1.74-1.31,2.27Z"/>
            <path class="cls-143" d="M208.3,171.52c-.18-.1-.42-.03-.52,.15l-.18,.31c-.06-.2-.27-.31-.48-.26-.22,.06-.34,.27-.28,.48l.97,3.62c.06,.22,.27,.34,.48,.28s.34-.27,.28-.48l-.69-2.56,.57-.99c.06-.1,.07-.23,.03-.34-.03-.1-.11-.17-.19-.21Z"/>
            <path class="cls-6" d="M215.06,175.27c.1-.03,.19-.09,.24-.18l.67-1.15s.08-.15,.04-.3l-.82-3.07c-.06-.21-.27-.34-.48-.28s-.34,.27-.28,.48l.78,2.91c-.15,.25-.51,.89-.58,1.02-.06,.1-.07,.2-.04,.3,.03,.09,.1,.19,.19,.24,.09,.05,.2,.07,.3,.04Z"/>
            <path class="cls-116" d="M218.41,173.28c.09,.05,.2,.07,.3,.04l1.36-.36c.22-.06,.34-.27,.28-.48s-.27-.34-.48-.28l-1.19,.32c-.24-.13-.89-.51-1.24-.71l.31-.54c.06,.19,.28,.31,.48,.26l1.36-.36c.21-.06,.34-.27,.28-.48l-.36-1.36c-.03-.11-.08-.17-.12-.21l-.63-.36c-.1-.06-.2-.07-.3-.04-.16,.04-.22,.15-.24,.19l-1.67,2.88-.02,.04c-.02,.08-.02,.16,0,.24,.03,.11,.08,.17,.12,.21l1.77,1.03Zm.28-3.66s.06,.03,.08,.05l.22,.83-.96,.26,.65-1.13Z"/>
            <path class="cls-123" d="M222.47,172.19c.09,.05,.2,.07,.3,.04l1.36-.36c.22-.06,.34-.27,.28-.48s-.27-.34-.48-.28l-1.19,.32c-.24-.13-.89-.51-1.24-.71l1.26-2.18c.09,.05,.18,.1,.21,.12h.02c.18,.12,.44,.05,.55-.14v-.02c.09-.17,.03-.38-.14-.5l-.59-.33c-.1-.06-.2-.07-.3-.04-.11,.03-.18,.09-.24,.19l-1.67,2.87v.02c-.09,.17-.03,.38,.13,.5l1.74,1Z"/>
            <path class="cls-66" d="M224.52,167.88l.06-.02,.87,3.24c.06,.22,.27,.34,.48,.28l.45-.12c.22-.06,.34-.27,.28-.48s-.27-.34-.48-.28l-.07,.02-.77-2.86,.52-.14c.21-.06,.34-.27,.28-.48s-.27-.34-.48-.28l-.52,.14-.14-.53c-.06-.21-.27-.34-.48-.28s-.34,.27-.28,.48l.14,.53-.06,.02c-.22,.06-.34,.27-.28,.48s.27,.34,.48,.28Z"/>
            <polygon class="cls-134" points="214.56 169.74 214.75 169.2 214.95 168.67 214.51 168.3 214.08 167.94 213.88 168.47 213.69 169.01 214.12 169.37 214.56 169.74"/>
            <path class="cls-122" d="M230.54,156.97c.29-.53,.57-1.04,.9-1.65-.64,.27-1.18,.5-1.73,.73-.4-.41-.78-.8-1.16-1.19-.03,.01-.06,.03-.09,.04,.02,.56,.05,1.12,.07,1.69-.54,.27-1.05,.54-1.56,.8,0,.03,.02,.06,.02,.08,.54,.12,1.08,.24,1.64,.37,.07,.58,.14,1.13,.21,1.68,.03,0,.07,0,.1,0,.25-.39,.51-.79,.76-1.18,.06,.03,.1,.04,.12,.06,.07,.09,.14,.18,.2,.28,1.58,2.51,2.35,5.23,2.15,8.19-.21,3.22-1.43,5.99-3.89,8.13-2.08,1.81-4.53,2.74-7.27,2.91-3.43,.22-6.51-.75-9.24-2.83l.02-.02,1.68-2.9c.05-.09,.07-.21,.04-.3s-.09-.2-.21-.25l-1.7-.98c-.18-.11-.43-.04-.54,.14l-1.66,2.87c-.07,.13-.04,.25-.03,.29,.02,.06,.05,.17,.17,.25l1.72,.99c3.32,2.63,7.07,3.64,11.3,2.93,1.91-.32,3.68-1.03,5.21-2.21,4.08-3.15,5.36-7.38,4.59-12.33-.29-1.85-1.01-3.56-2.04-5.14-.05-.07-.07-.17-.12-.31,.5,.07,.94,.14,1.5,.22-.43-.52-.78-.94-1.15-1.38Zm-18.99,14.56c.11,.06,.24,.13,.38,.21,.23,.13,.49,.28,.67,.38-.33,.58-.99,1.71-1.27,2.19-.27-.16-.75-.43-1.03-.6l1.26-2.19Z"/>
            <g>
              <path class="cls-15" d="M142.23,170.1c.13-.6,.44-1.12,.75-1.65,1.23-2.13,2.92-3.8,5.13-4.88,4.01-1.97,8.01-1.88,11.94,.27,.43,.24,.83,.54,1.24,.81,.11,.07,.2,.17,.3,.25l.07,.26s-.04,.09-.05,.14c-.09,.57-.64,.82-1.13,.51-.5-.32-.99-.66-1.51-.94-2.03-1.07-4.18-1.47-6.46-1.19-2.4,.29-4.49,1.26-6.27,2.9-1.08,1-1.92,2.19-2.54,3.53-.04,.08-.07,.17-.12,.25-.27,.5-.89,.54-1.22,.09-.02-.03-.05-.06-.07-.09-.02-.09-.05-.18-.07-.26Z"/>
              <path class="cls-111" d="M152.04,166.25c2.13-.51,4.52-.08,6.69,1.47,.35,.25,.43,.68,.2,1.01-.23,.33-.66,.4-1.02,.14-.95-.69-2-1.13-3.17-1.3-2.98-.45-6.01,1.18-7.28,3.92-.04,.08-.07,.15-.11,.23-.19,.38-.59,.53-.95,.36-.36-.17-.5-.58-.33-.96,.33-.75,.75-1.44,1.28-2.07,1.12-1.32,2.57-2.24,4.68-2.8Z"/>
              <path class="cls-109" d="M152.67,170.1c1.29-.27,2.42-.06,3.46,.66,.38,.26,.48,.67,.26,1.01-.23,.36-.65,.43-1.04,.16-.59-.41-1.24-.6-1.96-.52-.98,.12-1.71,.61-2.19,1.47-.05,.09-.09,.19-.14,.28-.2,.34-.59,.45-.93,.28-.34-.17-.48-.57-.32-.93,.26-.59,.64-1.11,1.13-1.53,.52-.45,1.13-.74,1.74-.89Z"/>
            </g>
            <g>
              <g>
                <path class="cls-101" d="M159.7,178.64l-.42-1.55c-.66-2.47-3.21-3.95-5.69-3.28s-3.95,3.21-3.28,5.69l.42,1.55c1.15-1.06,2.57-1.87,4.19-2.31s3.25-.44,4.78-.1Z"/>
                <path class="cls-185" d="M150.98,181.96l.45,1.66c.66,2.47,3.21,3.95,5.69,3.28s3.95-3.21,3.28-5.69l-.45-1.66c-1.52-.42-3.18-.46-4.81-.02s-3.05,1.3-4.16,2.42Z"/>
              </g>
              <path class="cls-119" d="M157.81,189.53c-3.87,1.04-7.86-1.27-8.9-5.14l-.21-.79c-.09-.33,.11-.68,.44-.77s.68,.11,.77,.44l.21,.79c.86,3.2,4.16,5.11,7.36,4.25,3.2-.86,5.11-4.16,4.25-7.36l-.21-.79c-.09-.33,.11-.68,.44-.77s.68,.11,.77,.44l.21,.79c1.04,3.87-1.27,7.86-5.14,8.9Z"/>
              <path class="cls-166" d="M159.38,195.11c-.33,.09-.68-.11-.77-.44l-1.44-5.37c-.09-.33,.11-.68,.44-.77s.68,.11,.77,.44l1.44,5.37c.09,.33-.11,.68-.44,.77Z"/>
              <path class="cls-180" d="M162.07,194.39l-5.37,1.44c-.33,.09-.68-.11-.77-.44s.11-.68,.44-.77l5.37-1.44c.33-.09,.68,.11,.77,.44s-.11,.68-.44,.77Z"/>
            </g>
          </g>
          <g>
            <path class="cls-18" d="M361.41,110.25c-.37-.06-.72,.11-.95,.45l-3.27,5.66-5.64-3.26c-.3-.17-.78-.2-1.09,.09-.29,.22-.42,.61-.31,.99l3.42,12.77c.14,.54,.64,.83,1.18,.68s.82-.67,.68-1.18l-2.82-10.51c1.16,.68,2.69,1.56,3.61,2.07l-.13,.23c-.13,.22-.17,.48-.1,.73s.23,.45,.45,.58c.47,.27,1.04,.12,1.3-.34,0-.01,.63-1.07,.63-1.07,0,0,1.92-3.34,2.57-4.46,.75,2.82,2.3,8.71,2.71,10.27l.1,.38c.14,.51,.72,.8,1.24,.67s.81-.66,.67-1.19l-3.45-12.87c-.11-.4-.42-.67-.8-.71Z"/>
            <path class="cls-30" d="M366.55,113.21c-.54,.14-.83,.64-.68,1.18l2.32,8.66c.14,.54,.64,.83,1.18,.68s.82-.67,.68-1.18l-2.32-8.66c-.14-.51-.67-.82-1.18-.68Z"/>
            <path class="cls-103" d="M377.17,111.76c.22,.13,.49,.16,.74,.1s.47-.23,.6-.46l.02-.05c.19-.43,.05-.94-.33-1.22l-1.69-.94c-.24-.14-.48-.17-.72-.11-.38,.1-.54,.37-.59,.46l-4.7,8.09-.02,.05c-.19,.43-.05,.94,.33,1.22l4.91,2.83c.22,.13,.5,.17,.72,.11l3.84-1.03c.54-.14,.83-.64,.68-1.18s-.66-.82-1.18-.68l-3.42,.92c-.66-.37-2.72-1.55-3.68-2.12l3.71-6.42c.38,.22,.76,.43,.78,.44Z"/>
            <path class="cls-29" d="M383.77,104.23c-.25,.07-.46,.23-.59,.46s-.17,.49-.1,.74l3.43,12.81v.05s.05,.08,.05,.08c.06,.12,.18,.29,.42,.43,.23,.13,.43,.14,.57,.14h.07s8.03-2.19,8.03-2.19c.27-.07,.46-.22,.59-.43s.15-.5,.09-.74l-3.42-12.8c-.07-.25-.22-.45-.46-.58-.21-.12-.48-.16-.72-.1l-7.96,2.13Zm7.53-.03c.2,.73,.55,2.04,.91,3.41l.02,.08c.55,2.09,1.7,6.39,2,7.46l-6.09,1.63c-.28-1.01-1.4-5.18-1.93-7.16v-.02c-.43-1.59-.81-2.99-1.02-3.75,.59-.16,1.53-.42,2.47-.68l1.14-.31c.95-.26,1.9-.52,2.5-.68Z"/>
            <path class="cls-19" d="M405.84,104.15l-.03-.03-3.33-1.94c-.25-.14-.54-.14-.73-.09-.25,.07-.45,.22-.58,.44l-2.57,4.5-.77-2.86c-.14-.51-.67-.82-1.18-.68-.54,.14-.83,.64-.68,1.18l2.74,10.21c.14,.54,.64,.83,1.18,.68s.82-.67,.68-1.18l-1.27-4.73c.57-1.03,2.37-4.16,3.04-5.32,.51,.3,1.23,.72,1.72,1.01l.32,.19,1.96,7.3c.14,.51,.67,.82,1.18,.68,.54-.14,.83-.64,.68-1.18l-2.06-7.68c-.05-.18-.16-.37-.3-.5Z"/>
            <polygon class="cls-92" points="365.09 110.14 364.73 111.14 365.55 111.83 366.37 112.51 366.73 111.51 367.1 110.5 366.28 109.82 365.46 109.13 365.09 110.14"/>
            <path class="cls-178" d="M388.3,122.33c-.13-.07-.26-.05-.3-.04l-1.81,.48c-.22,.06-.34,.27-.28,.48l1.21,4.53c.06,.22,.27,.34,.48,.28s.34-.27,.28-.48l-.26-.98c.13-.01,.24-.08,.31-.2l1.67-2.87v-.02c.09-.19,.02-.43-.15-.51l-1.15-.67Zm-.9,3.43l-.62-2.32,1.27-.34c.08,.05,.2,.12,.36,.21,.1,.06,.21,.12,.31,.18-.29,.51-1,1.74-1.31,2.27Z"/>
            <path class="cls-107" d="M391.83,122.35c-.18-.1-.42-.03-.52,.15l-.18,.31c-.06-.2-.27-.31-.48-.26-.22,.06-.34,.27-.28,.48l.97,3.62c.06,.22,.27,.34,.48,.28s.34-.27,.28-.48l-.69-2.56,.57-.99c.06-.1,.07-.23,.03-.34-.03-.1-.11-.17-.19-.21Z"/>
            <path class="cls-98" d="M398.58,126.1c.1-.03,.19-.09,.24-.18l.67-1.15s.08-.15,.04-.3l-.82-3.07c-.06-.21-.27-.34-.48-.28s-.34,.27-.28,.48l.78,2.91c-.15,.25-.51,.89-.58,1.02-.06,.1-.07,.2-.04,.3,.03,.09,.1,.19,.19,.24,.09,.05,.2,.07,.3,.04Z"/>
            <path class="cls-54" d="M401.93,124.1c.09,.05,.2,.07,.3,.04l1.36-.36c.22-.06,.34-.27,.28-.48s-.27-.34-.48-.28l-1.19,.32c-.24-.13-.89-.51-1.24-.71l.31-.54c.06,.19,.28,.31,.48,.26l1.36-.36c.21-.06,.34-.27,.28-.48l-.36-1.36c-.03-.11-.08-.17-.12-.21l-.63-.36c-.1-.06-.2-.07-.3-.04-.16,.04-.22,.15-.24,.19l-1.67,2.88-.02,.04c-.02,.08-.02,.16,0,.24,.03,.11,.08,.17,.12,.21l1.77,1.03Zm.28-3.66s.06,.03,.08,.05l.22,.83-.96,.26,.65-1.13Z"/>
            <path class="cls-87" d="M406,123.01c.09,.05,.2,.07,.3,.04l1.36-.36c.22-.06,.34-.27,.28-.48s-.27-.34-.48-.28l-1.19,.32c-.24-.13-.89-.51-1.24-.71l1.26-2.18c.09,.05,.18,.1,.21,.12h.02c.18,.12,.44,.05,.55-.14v-.02c.09-.17,.03-.38-.14-.5l-.59-.33c-.1-.06-.2-.07-.3-.04-.11,.03-.18,.09-.24,.19l-1.67,2.87v.02c-.09,.17-.03,.38,.13,.5l1.74,1Z"/>
            <path class="cls-63" d="M408.05,118.71l.06-.02,.87,3.24c.06,.22,.27,.34,.48,.28l.45-.12c.22-.06,.34-.27,.28-.48s-.27-.34-.48-.28l-.07,.02-.77-2.86,.52-.14c.21-.06,.34-.27,.28-.48s-.27-.34-.48-.28l-.52,.14-.14-.53c-.06-.21-.27-.34-.48-.28s-.34,.27-.28,.48l.14,.53-.06,.02c-.22,.06-.34,.27-.28,.48s.27,.34,.48,.28Z"/>
            <polygon class="cls-33" points="398.08 120.56 398.28 120.03 398.47 119.49 398.04 119.13 397.6 118.76 397.41 119.3 397.21 119.83 397.65 120.2 398.08 120.56"/>
            <path class="cls-94" d="M414.07,107.79c.29-.53,.57-1.04,.9-1.65-.64,.27-1.18,.5-1.73,.73-.4-.41-.78-.8-1.16-1.19-.03,.01-.06,.03-.09,.04,.02,.56,.05,1.12,.07,1.69-.54,.27-1.05,.54-1.56,.8,0,.03,.02,.06,.02,.08,.54,.12,1.08,.24,1.64,.37,.07,.58,.14,1.13,.21,1.68,.03,0,.07,0,.1,0,.25-.39,.51-.79,.76-1.18,.06,.03,.1,.04,.12,.06,.07,.09,.14,.18,.2,.28,1.58,2.51,2.35,5.23,2.15,8.19-.21,3.22-1.43,5.99-3.89,8.13-2.08,1.81-4.53,2.74-7.27,2.91-3.43,.22-6.51-.75-9.24-2.83l.02-.02,1.68-2.9c.05-.09,.07-.21,.04-.3s-.09-.2-.21-.25l-1.7-.98c-.18-.11-.43-.04-.54,.14l-1.66,2.87c-.07,.13-.04,.25-.03,.29,.02,.06,.05,.17,.17,.25l1.72,.99c3.32,2.63,7.07,3.64,11.3,2.93,1.91-.32,3.68-1.03,5.21-2.21,4.08-3.15,5.36-7.38,4.59-12.33-.29-1.85-1.01-3.56-2.04-5.14-.05-.07-.07-.17-.12-.31,.5,.07,.94,.14,1.5,.22-.43-.52-.78-.94-1.15-1.38Zm-18.99,14.56c.11,.06,.24,.13,.38,.21,.23,.13,.49,.28,.67,.38-.33,.58-.99,1.71-1.27,2.19-.27-.16-.75-.43-1.03-.6l1.26-2.19Z"/>
            <g>
              <path class="cls-159" d="M325.76,120.93c.13-.6,.44-1.12,.75-1.65,1.23-2.13,2.92-3.8,5.13-4.88,4.01-1.97,8.01-1.88,11.94,.27,.43,.24,.83,.54,1.24,.81,.11,.07,.2,.17,.3,.25l.07,.26s-.04,.09-.05,.14c-.09,.57-.64,.82-1.13,.51-.5-.32-.99-.66-1.51-.94-2.03-1.07-4.18-1.47-6.46-1.19-2.4,.29-4.49,1.26-6.27,2.9-1.08,1-1.92,2.19-2.54,3.53-.04,.08-.07,.17-.12,.25-.27,.5-.89,.54-1.22,.09-.02-.03-.05-.06-.07-.09-.02-.09-.05-.18-.07-.26Z"/>
              <path class="cls-152" d="M335.56,117.08c2.13-.51,4.52-.08,6.69,1.47,.35,.25,.43,.68,.2,1.01-.23,.33-.66,.4-1.02,.14-.95-.69-2-1.13-3.17-1.3-2.98-.45-6.01,1.18-7.28,3.92-.04,.08-.07,.15-.11,.23-.19,.38-.59,.53-.95,.36-.36-.17-.5-.58-.33-.96,.33-.75,.75-1.44,1.28-2.07,1.12-1.32,2.57-2.24,4.68-2.8Z"/>
              <path class="cls-81" d="M336.2,120.93c1.29-.27,2.42-.06,3.46,.66,.38,.26,.48,.67,.26,1.01-.23,.36-.65,.43-1.04,.16-.59-.41-1.24-.6-1.96-.52-.98,.12-1.71,.61-2.19,1.47-.05,.09-.09,.19-.14,.28-.2,.34-.59,.45-.93,.28-.34-.17-.48-.57-.32-.93,.26-.59,.64-1.11,1.13-1.53,.52-.45,1.13-.74,1.74-.89Z"/>
            </g>
            <g>
              <g>
                <path class="cls-126" d="M343.23,129.46l-.42-1.55c-.66-2.47-3.21-3.95-5.69-3.28s-3.95,3.21-3.28,5.69l.42,1.55c1.15-1.06,2.57-1.87,4.19-2.31s3.25-.44,4.78-.1Z"/>
                <path class="cls-68" d="M334.51,132.79l.45,1.66c.66,2.47,3.21,3.95,5.69,3.28s3.95-3.21,3.28-5.69l-.45-1.66c-1.52-.42-3.18-.46-4.81-.02s-3.05,1.3-4.16,2.42Z"/>
              </g>
              <path class="cls-43" d="M341.34,140.35c-3.87,1.04-7.86-1.27-8.9-5.14l-.21-.79c-.09-.33,.11-.68,.44-.77s.68,.11,.77,.44l.21,.79c.86,3.2,4.16,5.11,7.36,4.25,3.2-.86,5.11-4.16,4.25-7.36l-.21-.79c-.09-.33,.11-.68,.44-.77s.68,.11,.77,.44l.21,.79c1.04,3.87-1.27,7.86-5.14,8.9Z"/>
              <path class="cls-115" d="M342.91,145.93c-.33,.09-.68-.11-.77-.44l-1.44-5.37c-.09-.33,.11-.68,.44-.77s.68,.11,.77,.44l1.44,5.37c.09,.33-.11,.68-.44,.77Z"/>
              <path class="cls-95" d="M345.59,145.21l-5.37,1.44c-.33,.09-.68-.11-.77-.44s.11-.68,.44-.77l5.37-1.44c.33-.09,.68,.11,.77,.44s-.11,.68-.44,.77Z"/>
            </g>
          </g>
          <g>
            <path class="cls-56" d="M544.94,61.07c-.37-.06-.72,.11-.95,.45l-3.27,5.66-5.64-3.26c-.3-.17-.78-.2-1.09,.09-.29,.22-.42,.61-.31,.99l3.42,12.77c.14,.54,.64,.83,1.18,.68s.82-.67,.68-1.18l-2.82-10.51c1.16,.68,2.69,1.56,3.61,2.07l-.13,.23c-.13,.22-.17,.48-.1,.73s.23,.45,.45,.58c.47,.27,1.04,.12,1.3-.34,0-.01,.63-1.07,.63-1.07,0,0,1.92-3.34,2.57-4.46,.75,2.82,2.3,8.71,2.71,10.27l.1,.38c.14,.51,.72,.8,1.24,.67s.81-.66,.67-1.19l-3.45-12.87c-.11-.4-.42-.67-.8-.71Z"/>
            <path class="cls-44" d="M550.07,64.03c-.54,.14-.83,.64-.68,1.18l2.32,8.66c.14,.54,.64,.83,1.18,.68s.82-.67,.68-1.18l-2.32-8.66c-.14-.51-.67-.82-1.18-.68Z"/>
            <path class="cls-120" d="M560.69,62.58c.22,.13,.49,.16,.74,.1s.47-.23,.6-.46l.02-.05c.19-.43,.05-.94-.33-1.22l-1.69-.94c-.24-.14-.48-.17-.72-.11-.38,.1-.54,.37-.59,.46l-4.7,8.09-.02,.05c-.19,.43-.05,.94,.33,1.22l4.91,2.83c.22,.13,.5,.17,.72,.11l3.84-1.03c.54-.14,.83-.64,.68-1.18s-.66-.82-1.18-.68l-3.42,.92c-.66-.37-2.72-1.55-3.68-2.12l3.71-6.42c.38,.22,.76,.43,.78,.44Z"/>
            <path class="cls-127" d="M567.29,55.06c-.25,.07-.46,.23-.59,.46s-.17,.49-.1,.74l3.43,12.81v.05s.05,.08,.05,.08c.06,.12,.18,.29,.42,.43,.23,.13,.43,.14,.57,.14h.07s8.03-2.19,8.03-2.19c.27-.07,.46-.22,.59-.43s.15-.5,.09-.74l-3.42-12.8c-.07-.25-.22-.45-.46-.58-.21-.12-.48-.16-.72-.1l-7.96,2.13Zm7.53-.03c.2,.73,.55,2.04,.91,3.41l.02,.08c.55,2.09,1.7,6.39,2,7.46l-6.09,1.63c-.28-1.01-1.4-5.18-1.93-7.16v-.02c-.43-1.59-.81-2.99-1.02-3.75,.59-.16,1.53-.42,2.47-.68l1.14-.31c.95-.26,1.9-.52,2.5-.68Z"/>
            <path class="cls-164" d="M589.37,54.97l-.03-.03-3.33-1.94c-.25-.14-.54-.14-.73-.09-.25,.07-.45,.22-.58,.44l-2.57,4.5-.77-2.86c-.14-.51-.67-.82-1.18-.68-.54,.14-.83,.64-.68,1.18l2.74,10.21c.14,.54,.64,.83,1.18,.68s.82-.67,.68-1.18l-1.27-4.73c.57-1.03,2.37-4.16,3.04-5.32,.51,.3,1.23,.72,1.72,1.01l.32,.19,1.96,7.3c.14,.51,.67,.82,1.18,.68,.54-.14,.83-.64,.68-1.18l-2.06-7.68c-.05-.18-.16-.37-.3-.5Z"/>
            <polygon class="cls-46" points="548.62 60.96 548.25 61.96 549.07 62.65 549.89 63.34 550.26 62.33 550.62 61.33 549.8 60.64 548.99 59.96 548.62 60.96"/>
            <path class="cls-125" d="M571.82,73.15c-.13-.07-.26-.05-.3-.04l-1.81,.48c-.22,.06-.34,.27-.28,.48l1.21,4.53c.06,.22,.27,.34,.48,.28s.34-.27,.28-.48l-.26-.98c.13-.01,.24-.08,.31-.2l1.67-2.87v-.02c.09-.19,.02-.43-.15-.51l-1.15-.67Zm-.9,3.43l-.62-2.32,1.27-.34c.08,.05,.2,.12,.36,.21,.1,.06,.21,.12,.31,.18-.29,.51-1,1.74-1.31,2.27Z"/>
            <path class="cls-24" d="M575.35,73.17c-.18-.1-.42-.03-.52,.15l-.18,.31c-.06-.2-.27-.31-.48-.26-.22,.06-.34,.27-.28,.48l.97,3.62c.06,.22,.27,.34,.48,.28s.34-.27,.28-.48l-.69-2.56,.57-.99c.06-.1,.07-.23,.03-.34-.03-.1-.11-.17-.19-.21Z"/>
            <path class="cls-158" d="M582.11,76.92c.1-.03,.19-.09,.24-.18l.67-1.15s.08-.15,.04-.3l-.82-3.07c-.06-.21-.27-.34-.48-.28s-.34,.27-.28,.48l.78,2.91c-.15,.25-.51,.89-.58,1.02-.06,.1-.07,.2-.04,.3,.03,.09,.1,.19,.19,.24,.09,.05,.2,.07,.3,.04Z"/>
            <path class="cls-168" d="M585.46,74.92c.09,.05,.2,.07,.3,.04l1.36-.36c.22-.06,.34-.27,.28-.48s-.27-.34-.48-.28l-1.19,.32c-.24-.13-.89-.51-1.24-.71l.31-.54c.06,.19,.28,.31,.48,.26l1.36-.36c.21-.06,.34-.27,.28-.48l-.36-1.36c-.03-.11-.08-.17-.12-.21l-.63-.36c-.1-.06-.2-.07-.3-.04-.16,.04-.22,.15-.24,.19l-1.67,2.88-.02,.04c-.02,.08-.02,.16,0,.24,.03,.11,.08,.17,.12,.21l1.77,1.03Zm.28-3.66s.06,.03,.08,.05l.22,.83-.96,.26,.65-1.13Z"/>
            <path class="cls-96" d="M589.52,73.83c.09,.05,.2,.07,.3,.04l1.36-.36c.22-.06,.34-.27,.28-.48s-.27-.34-.48-.28l-1.19,.32c-.24-.13-.89-.51-1.24-.71l1.26-2.18c.09,.05,.18,.1,.21,.12h.02c.18,.12,.44,.05,.55-.14v-.02c.09-.17,.03-.38-.14-.5l-.59-.33c-.1-.06-.2-.07-.3-.04-.11,.03-.18,.09-.24,.19l-1.67,2.87v.02c-.09,.17-.03,.38,.13,.5l1.74,1Z"/>
            <path class="cls-7" d="M591.57,69.53l.06-.02,.87,3.24c.06,.22,.27,.34,.48,.28l.45-.12c.22-.06,.34-.27,.28-.48s-.27-.34-.48-.28l-.07,.02-.77-2.86,.52-.14c.21-.06,.34-.27,.28-.48s-.27-.34-.48-.28l-.52,.14-.14-.53c-.06-.21-.27-.34-.48-.28s-.34,.27-.28,.48l.14,.53-.06,.02c-.22,.06-.34,.27-.28,.48s.27,.34,.48,.28Z"/>
            <polygon class="cls-174" points="581.61 71.38 581.8 70.85 582 70.32 581.56 69.95 581.13 69.59 580.93 70.12 580.74 70.66 581.18 71.02 581.61 71.38"/>
            <path class="cls-58" d="M597.59,58.62c.29-.53,.57-1.04,.9-1.65-.64,.27-1.18,.5-1.73,.73-.4-.41-.78-.8-1.16-1.19-.03,.01-.06,.03-.09,.04,.02,.56,.05,1.12,.07,1.69-.54,.27-1.05,.54-1.56,.8,0,.03,.02,.06,.02,.08,.54,.12,1.08,.24,1.64,.37,.07,.58,.14,1.13,.21,1.68,.03,0,.07,0,.1,0,.25-.39,.51-.79,.76-1.18,.06,.03,.1,.04,.12,.06,.07,.09,.14,.18,.2,.28,1.58,2.51,2.35,5.23,2.15,8.19-.21,3.22-1.43,5.99-3.89,8.13-2.08,1.81-4.53,2.74-7.27,2.91-3.43,.22-6.51-.75-9.24-2.83l.02-.02,1.68-2.9c.05-.09,.07-.21,.04-.3s-.09-.2-.21-.25l-1.7-.98c-.18-.11-.43-.04-.54,.14l-1.66,2.87c-.07,.13-.04,.25-.03,.29,.02,.06,.05,.17,.17,.25l1.72,.99c3.32,2.63,7.07,3.64,11.3,2.93,1.91-.32,3.68-1.03,5.21-2.21,4.08-3.15,5.36-7.38,4.59-12.33-.29-1.85-1.01-3.56-2.04-5.14-.05-.07-.07-.17-.12-.31,.5,.07,.94,.14,1.5,.22-.43-.52-.78-.94-1.15-1.38Zm-18.99,14.56c.11,.06,.24,.13,.38,.21,.23,.13,.49,.28,.67,.38-.33,.58-.99,1.71-1.27,2.19-.27-.16-.75-.43-1.03-.6l1.26-2.19Z"/>
            <g>
              <path class="cls-69" d="M509.28,71.75c.13-.6,.44-1.12,.75-1.65,1.23-2.13,2.92-3.8,5.13-4.88,4.01-1.97,8.01-1.88,11.94,.27,.43,.24,.83,.54,1.24,.81,.11,.07,.2,.17,.3,.25l.07,.26s-.04,.09-.05,.14c-.09,.57-.64,.82-1.13,.51-.5-.32-.99-.66-1.51-.94-2.03-1.07-4.18-1.47-6.46-1.19-2.4,.29-4.49,1.26-6.27,2.9-1.08,1-1.92,2.19-2.54,3.53-.04,.08-.07,.17-.12,.25-.27,.5-.89,.54-1.22,.09-.02-.03-.05-.06-.07-.09-.02-.09-.05-.18-.07-.26Z"/>
              <path class="cls-135" d="M519.09,67.9c2.13-.51,4.52-.08,6.69,1.47,.35,.25,.43,.68,.2,1.01-.23,.33-.66,.4-1.02,.14-.95-.69-2-1.13-3.17-1.3-2.98-.45-6.01,1.18-7.28,3.92-.04,.08-.07,.15-.11,.23-.19,.38-.59,.53-.95,.36-.36-.17-.5-.58-.33-.96,.33-.75,.75-1.44,1.28-2.07,1.12-1.32,2.57-2.24,4.68-2.8Z"/>
              <path class="cls-49" d="M519.73,71.75c1.29-.27,2.42-.06,3.46,.66,.38,.26,.48,.67,.26,1.01-.23,.36-.65,.43-1.04,.16-.59-.41-1.24-.6-1.96-.52-.98,.12-1.71,.61-2.19,1.47-.05,.09-.09,.19-.14,.28-.2,.34-.59,.45-.93,.28-.34-.17-.48-.57-.32-.93,.26-.59,.64-1.11,1.13-1.53,.52-.45,1.13-.74,1.74-.89Z"/>
            </g>
            <g>
              <g>
                <path class="cls-99" d="M526.75,80.29l-.42-1.55c-.66-2.47-3.21-3.95-5.69-3.28s-3.95,3.21-3.28,5.69l.42,1.55c1.15-1.06,2.57-1.87,4.19-2.31s3.25-.44,4.78-.1Z"/>
                <path class="cls-179" d="M518.03,83.61l.45,1.66c.66,2.47,3.21,3.95,5.69,3.28s3.95-3.21,3.28-5.69l-.45-1.66c-1.52-.42-3.18-.46-4.81-.02-1.64,.44-3.05,1.3-4.16,2.42Z"/>
              </g>
              <path class="cls-32" d="M524.86,91.17c-3.87,1.04-7.86-1.27-8.9-5.14l-.21-.79c-.09-.33,.11-.68,.44-.77s.68,.11,.77,.44l.21,.79c.86,3.2,4.16,5.11,7.36,4.25,3.2-.86,5.11-4.16,4.25-7.36l-.21-.79c-.09-.33,.11-.68,.44-.77s.68,.11,.77,.44l.21,.79c1.04,3.87-1.27,7.86-5.14,8.9Z"/>
              <path class="cls-167" d="M526.43,96.76c-.33,.09-.68-.11-.77-.44l-1.44-5.37c-.09-.33,.11-.68,.44-.77s.68,.11,.77,.44l1.44,5.37c.09,.33-.11,.68-.44,.77Z"/>
              <path class="cls-45" d="M529.12,96.04l-5.37,1.44c-.33,.09-.68-.11-.77-.44s.11-.68,.44-.77l5.37-1.44c.33-.09,.68,.11,.77,.44s-.11,.68-.44,.77Z"/>
            </g>
          </g>
          <g>
            <path class="cls-60" d="M127.19,337.27c-.37-.06-.72,.11-.95,.45l-3.27,5.66-5.64-3.26c-.3-.17-.78-.2-1.09,.09-.29,.22-.42,.61-.31,.99l3.42,12.77c.14,.54,.64,.83,1.18,.68s.82-.67,.68-1.18l-2.82-10.51c1.16,.68,2.69,1.56,3.61,2.07l-.13,.23c-.13,.22-.17,.48-.1,.73s.23,.45,.45,.58c.47,.27,1.04,.12,1.3-.34,0-.01,.63-1.07,.63-1.07,0,0,1.92-3.34,2.57-4.46,.75,2.82,2.3,8.71,2.71,10.27l.1,.38c.14,.51,.72,.8,1.24,.67s.81-.66,.67-1.19l-3.45-12.87c-.11-.4-.42-.67-.8-.71Z"/>
            <path class="cls-51" d="M132.32,340.23c-.54,.14-.83,.64-.68,1.18l2.32,8.66c.14,.54,.64,.83,1.18,.68s.82-.67,.68-1.18l-2.32-8.66c-.14-.51-.67-.82-1.18-.68Z"/>
            <path class="cls-55" d="M142.94,338.78c.22,.13,.49,.16,.74,.1s.47-.23,.6-.46l.02-.05c.19-.43,.05-.94-.33-1.22l-1.69-.94c-.24-.14-.48-.17-.72-.11-.38,.1-.54,.37-.59,.46l-4.7,8.09-.02,.05c-.19,.43-.05,.94,.33,1.22l4.91,2.83c.22,.13,.5,.17,.72,.11l3.84-1.03c.54-.14,.83-.64,.68-1.18s-.66-.82-1.18-.68l-3.42,.92c-.66-.37-2.72-1.55-3.68-2.12l3.71-6.42c.38,.22,.76,.43,.78,.44Z"/>
            <path class="cls-151" d="M149.54,331.25c-.25,.07-.46,.23-.59,.46s-.17,.49-.1,.74l3.43,12.81v.05s.05,.08,.05,.08c.06,.12,.18,.29,.42,.43,.23,.13,.43,.14,.57,.14h.07s8.03-2.19,8.03-2.19c.27-.07,.46-.22,.59-.43s.15-.5,.09-.74l-3.42-12.8c-.07-.25-.22-.45-.46-.58-.21-.12-.48-.16-.72-.1l-7.96,2.13Zm7.53-.03c.2,.73,.55,2.04,.91,3.41l.02,.08c.55,2.09,1.7,6.39,2,7.46l-6.09,1.63c-.28-1.01-1.4-5.18-1.93-7.16v-.02c-.43-1.59-.81-2.99-1.02-3.75,.59-.16,1.53-.42,2.47-.68l1.14-.31c.95-.26,1.9-.52,2.5-.68Z"/>
            <path class="cls-146" d="M171.62,331.17l-.03-.03-3.33-1.94c-.25-.14-.54-.14-.73-.09-.25,.07-.45,.22-.58,.44l-2.57,4.5-.77-2.86c-.14-.51-.67-.82-1.18-.68-.54,.14-.83,.64-.68,1.18l2.74,10.21c.14,.54,.64,.83,1.18,.68s.82-.67,.68-1.18l-1.27-4.73c.57-1.03,2.37-4.16,3.04-5.32,.51,.3,1.23,.72,1.72,1.01l.32,.19,1.96,7.3c.14,.51,.67,.82,1.18,.68,.54-.14,.83-.64,.68-1.18l-2.06-7.68c-.05-.18-.16-.37-.3-.5Z"/>
            <polygon class="cls-114" points="130.87 337.15 130.5 338.16 131.32 338.85 132.14 339.53 132.51 338.53 132.87 337.52 132.05 336.84 131.24 336.15 130.87 337.15"/>
            <path class="cls-86" d="M154.07,349.34c-.13-.07-.26-.05-.3-.04l-1.81,.48c-.22,.06-.34,.27-.28,.48l1.21,4.53c.06,.22,.27,.34,.48,.28s.34-.27,.28-.48l-.26-.98c.13-.01,.24-.08,.31-.2l1.67-2.87v-.02c.09-.19,.02-.43-.15-.51l-1.15-.67Zm-.9,3.43l-.62-2.32,1.27-.34c.08,.05,.2,.12,.36,.21,.1,.06,.21,.12,.31,.18-.29,.51-1,1.74-1.31,2.27Z"/>
            <path class="cls-160" d="M157.6,349.37c-.18-.1-.42-.03-.52,.15l-.18,.31c-.06-.2-.27-.31-.48-.26-.22,.06-.34,.27-.28,.48l.97,3.62c.06,.22,.27,.34,.48,.28s.34-.27,.28-.48l-.69-2.56,.57-.99c.06-.1,.07-.23,.03-.34-.03-.1-.11-.17-.19-.21Z"/>
            <path class="cls-8" d="M164.36,353.12c.1-.03,.19-.09,.24-.18l.67-1.15s.08-.15,.04-.3l-.82-3.07c-.06-.21-.27-.34-.48-.28s-.34,.27-.28,.48l.78,2.91c-.15,.25-.51,.89-.58,1.02-.06,.1-.07,.2-.04,.3,.03,.09,.1,.19,.19,.24,.09,.05,.2,.07,.3,.04Z"/>
            <path class="cls-117" d="M167.71,351.12c.09,.05,.2,.07,.3,.04l1.36-.36c.22-.06,.34-.27,.28-.48s-.27-.34-.48-.28l-1.19,.32c-.24-.13-.89-.51-1.24-.71l.31-.54c.06,.19,.28,.31,.48,.26l1.36-.36c.21-.06,.34-.27,.28-.48l-.36-1.36c-.03-.11-.08-.17-.12-.21l-.63-.36c-.1-.06-.2-.07-.3-.04-.16,.04-.22,.15-.24,.19l-1.67,2.88-.02,.04c-.02,.08-.02,.16,0,.24,.03,.11,.08,.17,.12,.21l1.77,1.03Zm.28-3.66s.06,.03,.08,.05l.22,.83-.96,.26,.65-1.13Z"/>
            <path class="cls-108" d="M171.77,350.03c.09,.05,.2,.07,.3,.04l1.36-.36c.22-.06,.34-.27,.28-.48s-.27-.34-.48-.28l-1.19,.32c-.24-.13-.89-.51-1.24-.71l1.26-2.18c.09,.05,.18,.1,.21,.12h.02c.18,.12,.44,.05,.55-.14v-.02c.09-.17,.03-.38-.14-.5l-.59-.33c-.1-.06-.2-.07-.3-.04-.11,.03-.18,.09-.24,.19l-1.67,2.87v.02c-.09,.17-.03,.38,.13,.5l1.74,1Z"/>
            <path class="cls-155" d="M173.83,345.73l.06-.02,.87,3.24c.06,.22,.27,.34,.48,.28l.45-.12c.22-.06,.34-.27,.28-.48s-.27-.34-.48-.28l-.07,.02-.77-2.86,.52-.14c.21-.06,.34-.27,.28-.48s-.27-.34-.48-.28l-.52,.14-.14-.53c-.06-.21-.27-.34-.48-.28s-.34,.27-.28,.48l.14,.53-.06,.02c-.22,.06-.34,.27-.28,.48s.27,.34,.48,.28Z"/>
            <polygon class="cls-59" points="163.86 347.58 164.05 347.05 164.25 346.51 163.81 346.15 163.38 345.78 163.18 346.32 162.99 346.85 163.43 347.22 163.86 347.58"/>
            <path class="cls-16" d="M179.84,334.81c.29-.53,.57-1.04,.9-1.65-.64,.27-1.18,.5-1.73,.73-.4-.41-.78-.8-1.16-1.19-.03,.01-.06,.03-.09,.04,.02,.56,.05,1.12,.07,1.69-.54,.27-1.05,.54-1.56,.8,0,.03,.02,.06,.02,.08,.54,.12,1.08,.24,1.64,.37,.07,.58,.14,1.13,.21,1.68,.03,0,.07,0,.1,0,.25-.39,.51-.79,.76-1.18,.06,.03,.1,.04,.12,.06,.07,.09,.14,.18,.2,.28,1.58,2.51,2.35,5.23,2.15,8.19-.21,3.22-1.43,5.99-3.89,8.13-2.08,1.81-4.53,2.74-7.27,2.91-3.43,.22-6.51-.75-9.24-2.83l.02-.02,1.68-2.9c.05-.09,.07-.21,.04-.3s-.09-.2-.21-.25l-1.7-.98c-.18-.11-.43-.04-.54,.14l-1.66,2.87c-.07,.13-.04,.25-.03,.29,.02,.06,.05,.17,.17,.25l1.72,.99c3.32,2.63,7.07,3.64,11.3,2.93,1.91-.32,3.68-1.03,5.21-2.21,4.08-3.15,5.36-7.38,4.59-12.33-.29-1.85-1.01-3.56-2.04-5.14-.05-.07-.07-.17-.12-.31,.5,.07,.94,.14,1.5,.22-.43-.52-.78-.94-1.15-1.38Zm-18.99,14.56c.11,.06,.24,.13,.38,.21,.23,.13,.49,.28,.67,.38-.33,.58-.99,1.71-1.27,2.19-.27-.16-.75-.43-1.03-.6l1.26-2.19Z"/>
            <g>
              <path class="cls-3" d="M91.53,347.95c.13-.6,.44-1.12,.75-1.65,1.23-2.13,2.92-3.8,5.13-4.88,4.01-1.97,8.01-1.88,11.94,.27,.43,.24,.83,.54,1.24,.81,.11,.07,.2,.17,.3,.25l.07,.26s-.04,.09-.05,.14c-.09,.57-.64,.82-1.13,.51-.5-.32-.99-.66-1.51-.94-2.03-1.07-4.18-1.47-6.46-1.19-2.4,.29-4.49,1.26-6.27,2.9-1.08,1-1.92,2.19-2.54,3.53-.04,.08-.07,.17-.12,.25-.27,.5-.89,.54-1.22,.09-.02-.03-.05-.06-.07-.09-.02-.09-.05-.18-.07-.26Z"/>
              <path class="cls-77" d="M101.34,344.1c2.13-.51,4.52-.08,6.69,1.47,.35,.25,.43,.68,.2,1.01-.23,.33-.66,.4-1.02,.14-.95-.69-2-1.13-3.17-1.3-2.98-.45-6.01,1.18-7.28,3.92-.04,.08-.07,.15-.11,.23-.19,.38-.59,.53-.95,.36-.36-.17-.5-.58-.33-.96,.33-.75,.75-1.44,1.28-2.07,1.12-1.32,2.57-2.24,4.68-2.8Z"/>
              <path class="cls-70" d="M101.98,347.95c1.29-.27,2.42-.06,3.46,.66,.38,.26,.48,.67,.26,1.01-.23,.36-.65,.43-1.04,.16-.59-.41-1.24-.6-1.96-.52-.98,.12-1.71,.61-2.19,1.47-.05,.09-.09,.19-.14,.28-.2,.34-.59,.45-.93,.28-.34-.17-.48-.57-.32-.93,.26-.59,.64-1.11,1.13-1.53,.52-.45,1.13-.74,1.74-.89Z"/>
            </g>
            <g>
              <g>
                <path class="cls-53" d="M109,356.48l-.42-1.55c-.66-2.47-3.21-3.95-5.69-3.28s-3.95,3.21-3.28,5.69l.42,1.55c1.15-1.06,2.57-1.87,4.19-2.31s3.25-.44,4.78-.1Z"/>
                <path class="cls-129" d="M100.28,359.81l.45,1.66c.66,2.47,3.21,3.95,5.69,3.28s3.95-3.21,3.28-5.69l-.45-1.66c-1.52-.42-3.18-.46-4.81-.02s-3.05,1.3-4.16,2.42Z"/>
              </g>
              <path class="cls-37" d="M107.11,367.37c-3.87,1.04-7.86-1.27-8.9-5.14l-.21-.79c-.09-.33,.11-.68,.44-.77s.68,.11,.77,.44l.21,.79c.86,3.2,4.16,5.11,7.36,4.25,3.2-.86,5.11-4.16,4.25-7.36l-.21-.79c-.09-.33,.11-.68,.44-.77s.68,.11,.77,.44l.21,.79c1.04,3.87-1.27,7.86-5.14,8.9Z"/>
              <path class="cls-5" d="M108.68,372.95c-.33,.09-.68-.11-.77-.44l-1.44-5.37c-.09-.33,.11-.68,.44-.77s.68,.11,.77,.44l1.44,5.37c.09,.33-.11,.68-.44,.77Z"/>
              <path class="cls-154" d="M111.37,372.23l-5.37,1.44c-.33,.09-.68-.11-.77-.44s.11-.68,.44-.77l5.37-1.44c.33-.09,.68,.11,.77,.44s-.11,.68-.44,.77Z"/>
            </g>
          </g>
          <g>
            <path class="cls-2" d="M310.71,288.09c-.37-.06-.72,.11-.95,.45l-3.27,5.66-5.64-3.26c-.3-.17-.78-.2-1.09,.09-.29,.22-.42,.61-.31,.99l3.42,12.77c.14,.54,.64,.83,1.18,.68s.82-.67,.68-1.18l-2.82-10.51c1.16,.68,2.69,1.56,3.61,2.07l-.13,.23c-.13,.22-.17,.48-.1,.73s.23,.45,.45,.58c.47,.27,1.04,.12,1.3-.34,0-.01,.63-1.07,.63-1.07,0,0,1.92-3.34,2.57-4.46,.75,2.82,2.3,8.71,2.71,10.27l.1,.38c.14,.51,.72,.8,1.24,.67s.81-.66,.67-1.19l-3.45-12.87c-.11-.4-.42-.67-.8-.71Z"/>
            <path class="cls-22" d="M315.85,291.05c-.54,.14-.83,.64-.68,1.18l2.32,8.66c.14,.54,.64,.83,1.18,.68s.82-.67,.68-1.18l-2.32-8.66c-.14-.51-.67-.82-1.18-.68Z"/>
            <path class="cls-47" d="M326.47,289.6c.22,.13,.49,.16,.74,.1s.47-.23,.6-.46l.02-.05c.19-.43,.05-.94-.33-1.22l-1.69-.94c-.24-.14-.48-.17-.72-.11-.38,.1-.54,.37-.59,.46l-4.7,8.09-.02,.05c-.19,.43-.05,.94,.33,1.22l4.91,2.83c.22,.13,.5,.17,.72,.11l3.84-1.03c.54-.14,.83-.64,.68-1.18s-.66-.82-1.18-.68l-3.42,.92c-.66-.37-2.72-1.55-3.68-2.12l3.71-6.42c.38,.22,.76,.43,.78,.44Z"/>
            <path class="cls-23" d="M333.07,282.08c-.25,.07-.46,.23-.59,.46s-.17,.49-.1,.74l3.43,12.81v.05s.05,.08,.05,.08c.06,.12,.18,.29,.42,.43,.23,.13,.43,.14,.57,.14h.07s8.03-2.19,8.03-2.19c.27-.07,.46-.22,.59-.43s.15-.5,.09-.74l-3.42-12.8c-.07-.25-.22-.45-.46-.58-.21-.12-.48-.16-.72-.1l-7.96,2.13Zm7.53-.03c.2,.73,.55,2.04,.91,3.41l.02,.08c.55,2.09,1.7,6.39,2,7.46l-6.09,1.63c-.28-1.01-1.4-5.18-1.93-7.16v-.02c-.43-1.59-.81-2.99-1.02-3.75,.59-.16,1.53-.42,2.47-.68l1.14-.31c.95-.26,1.9-.52,2.5-.68Z"/>
            <path class="cls-137" d="M355.14,281.99l-.03-.03-3.33-1.94c-.25-.14-.54-.14-.73-.09-.25,.07-.45,.22-.58,.44l-2.57,4.5-.77-2.86c-.14-.51-.67-.82-1.18-.68-.54,.14-.83,.64-.68,1.18l2.74,10.21c.14,.54,.64,.83,1.18,.68s.82-.67,.68-1.18l-1.27-4.73c.57-1.03,2.37-4.16,3.04-5.32,.51,.3,1.23,.72,1.72,1.01l.32,.19,1.96,7.3c.14,.51,.67,.82,1.18,.68,.54-.14,.83-.64,.68-1.18l-2.06-7.68c-.05-.18-.16-.37-.3-.5Z"/>
            <polygon class="cls-73" points="314.4 287.98 314.03 288.98 314.85 289.67 315.67 290.36 316.03 289.35 316.4 288.35 315.58 287.66 314.76 286.97 314.4 287.98"/>
            <path class="cls-110" d="M337.6,300.17c-.13-.07-.26-.05-.3-.04l-1.81,.48c-.22,.06-.34,.27-.28,.48l1.21,4.53c.06,.22,.27,.34,.48,.28s.34-.27,.28-.48l-.26-.98c.13-.01,.24-.08,.31-.2l1.67-2.87v-.02c.09-.19,.02-.43-.15-.51l-1.15-.67Zm-.9,3.43l-.62-2.32,1.27-.34c.08,.05,.2,.12,.36,.21,.1,.06,.21,.12,.31,.18-.29,.51-1,1.74-1.31,2.27Z"/>
            <path class="cls-52" d="M341.13,300.19c-.18-.1-.42-.03-.52,.15l-.18,.31c-.06-.2-.27-.31-.48-.26-.22,.06-.34,.27-.28,.48l.97,3.62c.06,.22,.27,.34,.48,.28s.34-.27,.28-.48l-.69-2.56,.57-.99c.06-.1,.07-.23,.03-.34-.03-.1-.11-.17-.19-.21Z"/>
            <path class="cls-41" d="M347.89,303.94c.1-.03,.19-.09,.24-.18l.67-1.15s.08-.15,.04-.3l-.82-3.07c-.06-.21-.27-.34-.48-.28s-.34,.27-.28,.48l.78,2.91c-.15,.25-.51,.89-.58,1.02-.06,.1-.07,.2-.04,.3,.03,.09,.1,.19,.19,.24,.09,.05,.2,.07,.3,.04Z"/>
            <path class="cls-148" d="M351.23,301.94c.09,.05,.2,.07,.3,.04l1.36-.36c.22-.06,.34-.27,.28-.48s-.27-.34-.48-.28l-1.19,.32c-.24-.13-.89-.51-1.24-.71l.31-.54c.06,.19,.28,.31,.48,.26l1.36-.36c.21-.06,.34-.27,.28-.48l-.36-1.36c-.03-.11-.08-.17-.12-.21l-.63-.36c-.1-.06-.2-.07-.3-.04-.16,.04-.22,.15-.24,.19l-1.67,2.88-.02,.04c-.02,.08-.02,.16,0,.24,.03,.11,.08,.17,.12,.21l1.77,1.03Zm.28-3.66s.06,.03,.08,.05l.22,.83-.96,.26,.65-1.13Z"/>
            <path class="cls-144" d="M355.3,300.85c.09,.05,.2,.07,.3,.04l1.36-.36c.22-.06,.34-.27,.28-.48s-.27-.34-.48-.28l-1.19,.32c-.24-.13-.89-.51-1.24-.71l1.26-2.18c.09,.05,.18,.1,.21,.12h.02c.18,.12,.44,.05,.55-.14v-.02c.09-.17,.03-.38-.14-.5l-.59-.33c-.1-.06-.2-.07-.3-.04-.11,.03-.18,.09-.24,.19l-1.67,2.87v.02c-.09,.17-.03,.38,.13,.5l1.74,1Z"/>
            <path class="cls-4" d="M357.35,296.55l.06-.02,.87,3.24c.06,.22,.27,.34,.48,.28l.45-.12c.22-.06,.34-.27,.28-.48s-.27-.34-.48-.28l-.07,.02-.77-2.86,.52-.14c.21-.06,.34-.27,.28-.48s-.27-.34-.48-.28l-.52,.14-.14-.53c-.06-.21-.27-.34-.48-.28s-.34,.27-.28,.48l.14,.53-.06,.02c-.22,.06-.34,.27-.28,.48s.27,.34,.48,.28Z"/>
            <polygon class="cls-184" points="347.39 298.4 347.58 297.87 347.77 297.34 347.34 296.97 346.9 296.61 346.71 297.14 346.52 297.67 346.95 298.04 347.39 298.4"/>
            <path class="cls-91" d="M363.37,285.63c.29-.53,.57-1.04,.9-1.65-.64,.27-1.18,.5-1.73,.73-.4-.41-.78-.8-1.16-1.19-.03,.01-.06,.03-.09,.04,.02,.56,.05,1.12,.07,1.69-.54,.27-1.05,.54-1.56,.8,0,.03,.02,.06,.02,.08,.54,.12,1.08,.24,1.64,.37,.07,.58,.14,1.13,.21,1.68,.03,0,.07,0,.1,0,.25-.39,.51-.79,.76-1.18,.06,.03,.1,.04,.12,.06,.07,.09,.14,.18,.2,.28,1.58,2.51,2.35,5.23,2.15,8.19-.21,3.22-1.43,5.99-3.89,8.13-2.08,1.81-4.53,2.74-7.27,2.91-3.43,.22-6.51-.75-9.24-2.83l.02-.02,1.68-2.9c.05-.09,.07-.21,.04-.3s-.09-.2-.21-.25l-1.7-.98c-.18-.11-.43-.04-.54,.14l-1.66,2.87c-.07,.13-.04,.25-.03,.29,.02,.06,.05,.17,.17,.25l1.72,.99c3.32,2.63,7.07,3.64,11.3,2.93,1.91-.32,3.68-1.03,5.21-2.21,4.08-3.15,5.36-7.38,4.59-12.33-.29-1.85-1.01-3.56-2.04-5.14-.05-.07-.07-.17-.12-.31,.5,.07,.94,.14,1.5,.22-.43-.52-.78-.94-1.15-1.38Zm-18.99,14.56c.11,.06,.24,.13,.38,.21,.23,.13,.49,.28,.67,.38-.33,.58-.99,1.71-1.27,2.19-.27-.16-.75-.43-1.03-.6l1.26-2.19Z"/>
            <g>
              <path class="cls-72" d="M275.06,298.77c.13-.6,.44-1.12,.75-1.65,1.23-2.13,2.92-3.8,5.13-4.88,4.01-1.97,8.01-1.88,11.94,.27,.43,.24,.83,.54,1.24,.81,.11,.07,.2,.17,.3,.25l.07,.26s-.04,.09-.05,.14c-.09,.57-.64,.82-1.13,.51-.5-.32-.99-.66-1.51-.94-2.03-1.07-4.18-1.47-6.46-1.19-2.4,.29-4.49,1.26-6.27,2.9-1.08,1-1.92,2.19-2.54,3.53-.04,.08-.07,.17-.12,.25-.27,.5-.89,.54-1.22,.09-.02-.03-.05-.06-.07-.09-.02-.09-.05-.18-.07-.26Z"/>
              <path class="cls-163" d="M284.87,294.92c2.13-.51,4.52-.08,6.69,1.47,.35,.25,.43,.68,.2,1.01-.23,.33-.66,.4-1.02,.14-.95-.69-2-1.13-3.17-1.3-2.98-.45-6.01,1.18-7.28,3.92-.04,.08-.07,.15-.11,.23-.19,.38-.59,.53-.95,.36-.36-.17-.5-.58-.33-.96,.33-.75,.75-1.44,1.28-2.07,1.12-1.32,2.57-2.24,4.68-2.8Z"/>
              <path class="cls-161" d="M285.5,298.77c1.29-.27,2.42-.06,3.46,.66,.38,.26,.48,.67,.26,1.01-.23,.36-.65,.43-1.04,.16-.59-.41-1.24-.6-1.96-.52-.98,.12-1.71,.61-2.19,1.47-.05,.09-.09,.19-.14,.28-.2,.34-.59,.45-.93,.28-.34-.17-.48-.57-.32-.93,.26-.59,.64-1.11,1.13-1.53,.52-.45,1.13-.74,1.74-.89Z"/>
            </g>
            <g>
              <g>
                <path class="cls-149" d="M292.53,307.31l-.42-1.55c-.66-2.47-3.21-3.95-5.69-3.28s-3.95,3.21-3.28,5.69l.42,1.55c1.15-1.06,2.57-1.87,4.19-2.31s3.25-.44,4.78-.1Z"/>
                <path class="cls-157" d="M283.81,310.63l.45,1.66c.66,2.47,3.21,3.95,5.69,3.28s3.95-3.21,3.28-5.69l-.45-1.66c-1.52-.42-3.18-.46-4.81-.02s-3.05,1.3-4.16,2.42Z"/>
              </g>
              <path class="cls-102" d="M290.64,318.19c-3.87,1.04-7.86-1.27-8.9-5.14l-.21-.79c-.09-.33,.11-.68,.44-.77s.68,.11,.77,.44l.21,.79c.86,3.2,4.16,5.11,7.36,4.25,3.2-.86,5.11-4.16,4.25-7.36l-.21-.79c-.09-.33,.11-.68,.44-.77s.68,.11,.77,.44l.21,.79c1.04,3.87-1.27,7.86-5.14,8.9Z"/>
              <path class="cls-181" d="M292.21,323.78c-.33,.09-.68-.11-.77-.44l-1.44-5.37c-.09-.33,.11-.68,.44-.77s.68,.11,.77,.44l1.44,5.37c.09,.33-.11,.68-.44,.77Z"/>
              <path class="cls-74" d="M294.89,323.06l-5.37,1.44c-.33,.09-.68-.11-.77-.44s.11-.68,.44-.77l5.37-1.44c.33-.09,.68,.11,.77,.44s-.11,.68-.44,.77Z"/>
            </g>
          </g>
          <g>
            <path class="cls-173" d="M494.24,238.92c-.37-.06-.72,.11-.95,.45l-3.27,5.66-5.64-3.26c-.3-.17-.78-.2-1.09,.09-.29,.22-.42,.61-.31,.99l3.42,12.77c.14,.54,.64,.83,1.18,.68s.82-.67,.68-1.18l-2.82-10.51c1.16,.68,2.69,1.56,3.61,2.07l-.13,.23c-.13,.22-.17,.48-.1,.73s.23,.45,.45,.58c.47,.27,1.04,.12,1.3-.34,0-.01,.63-1.07,.63-1.07,0,0,1.92-3.34,2.57-4.46,.75,2.82,2.3,8.71,2.71,10.27l.1,.38c.14,.51,.72,.8,1.24,.67s.81-.66,.67-1.19l-3.45-12.87c-.11-.4-.42-.67-.8-.71Z"/>
            <path class="cls-20" d="M499.37,241.88c-.54,.14-.83,.64-.68,1.18l2.32,8.66c.14,.54,.64,.83,1.18,.68s.82-.67,.68-1.18l-2.32-8.66c-.14-.51-.67-.82-1.18-.68Z"/>
            <path class="cls-104" d="M509.99,240.43c.22,.13,.49,.16,.74,.1s.47-.23,.6-.46l.02-.05c.19-.43,.05-.94-.33-1.22l-1.69-.94c-.24-.14-.48-.17-.72-.11-.38,.1-.54,.37-.59,.46l-4.7,8.09-.02,.05c-.19,.43-.05,.94,.33,1.22l4.91,2.83c.22,.13,.5,.17,.72,.11l3.84-1.03c.54-.14,.83-.64,.68-1.18s-.66-.82-1.18-.68l-3.42,.92c-.66-.37-2.72-1.55-3.68-2.12l3.71-6.42c.38,.22,.76,.43,.78,.44Z"/>
            <path class="cls-142" d="M516.59,232.9c-.25,.07-.46,.23-.59,.46s-.17,.49-.1,.74l3.43,12.81v.05s.05,.08,.05,.08c.06,.12,.18,.29,.42,.43,.23,.13,.43,.14,.57,.14h.07s8.03-2.19,8.03-2.19c.27-.07,.46-.22,.59-.43s.15-.5,.09-.74l-3.42-12.8c-.07-.25-.22-.45-.46-.58-.21-.12-.48-.16-.72-.1l-7.96,2.13Zm7.53-.03c.2,.73,.55,2.04,.91,3.41l.02,.08c.55,2.09,1.7,6.39,2,7.46l-6.09,1.63c-.28-1.01-1.4-5.18-1.93-7.16v-.02c-.43-1.59-.81-2.99-1.02-3.75,.59-.16,1.53-.42,2.47-.68l1.14-.31c.95-.26,1.9-.52,2.5-.68Z"/>
            <path class="cls-28" d="M538.67,232.82l-.03-.03-3.33-1.94c-.25-.14-.54-.14-.73-.09-.25,.07-.45,.22-.58,.44l-2.57,4.5-.77-2.86c-.14-.51-.67-.82-1.18-.68-.54,.14-.83,.64-.68,1.18l2.74,10.21c.14,.54,.64,.83,1.18,.68s.82-.67,.68-1.18l-1.27-4.73c.57-1.03,2.37-4.16,3.04-5.32,.51,.3,1.23,.72,1.72,1.01l.32,.19,1.96,7.3c.14,.51,.67,.82,1.18,.68,.54-.14,.83-.64,.68-1.18l-2.06-7.68c-.05-.18-.16-.37-.3-.5Z"/>
            <polygon class="cls-13" points="497.92 238.8 497.56 239.81 498.37 240.49 499.19 241.18 499.56 240.18 499.92 239.17 499.11 238.49 498.29 237.8 497.92 238.8"/>
            <path class="cls-118" d="M521.13,250.99c-.13-.07-.26-.05-.3-.04l-1.81,.48c-.22,.06-.34,.27-.28,.48l1.21,4.53c.06,.22,.27,.34,.48,.28s.34-.27,.28-.48l-.26-.98c.13-.01,.24-.08,.31-.2l1.67-2.87v-.02c.09-.19,.02-.43-.15-.51l-1.15-.67Zm-.9,3.43l-.62-2.32,1.27-.34c.08,.05,.2,.12,.36,.21,.1,.06,.21,.12,.31,.18-.29,.51-1,1.74-1.31,2.27Z"/>
            <path class="cls-57" d="M524.65,251.02c-.18-.1-.42-.03-.52,.15l-.18,.31c-.06-.2-.27-.31-.48-.26-.22,.06-.34,.27-.28,.48l.97,3.62c.06,.22,.27,.34,.48,.28s.34-.27,.28-.48l-.69-2.56,.57-.99c.06-.1,.07-.23,.03-.34-.03-.1-.11-.17-.19-.21Z"/>
            <path class="cls-176" d="M531.41,254.77c.1-.03,.19-.09,.24-.18l.67-1.15s.08-.15,.04-.3l-.82-3.07c-.06-.21-.27-.34-.48-.28s-.34,.27-.28,.48l.78,2.91c-.15,.25-.51,.89-.58,1.02-.06,.1-.07,.2-.04,.3,.03,.09,.1,.19,.19,.24,.09,.05,.2,.07,.3,.04Z"/>
            <path class="cls-141" d="M534.76,252.77c.09,.05,.2,.07,.3,.04l1.36-.36c.22-.06,.34-.27,.28-.48s-.27-.34-.48-.28l-1.19,.32c-.24-.13-.89-.51-1.24-.71l.31-.54c.06,.19,.28,.31,.48,.26l1.36-.36c.21-.06,.34-.27,.28-.48l-.36-1.36c-.03-.11-.08-.17-.12-.21l-.63-.36c-.1-.06-.2-.07-.3-.04-.16,.04-.22,.15-.24,.19l-1.67,2.88-.02,.04c-.02,.08-.02,.16,0,.24,.03,.11,.08,.17,.12,.21l1.77,1.03Zm.28-3.66s.06,.03,.08,.05l.22,.83-.96,.26,.65-1.13Z"/>
            <path class="cls-48" d="M538.83,251.68c.09,.05,.2,.07,.3,.04l1.36-.36c.22-.06,.34-.27,.28-.48s-.27-.34-.48-.28l-1.19,.32c-.24-.13-.89-.51-1.24-.71l1.26-2.18c.09,.05,.18,.1,.21,.12h.02c.18,.12,.44,.05,.55-.14v-.02c.09-.17,.03-.38-.14-.5l-.59-.33c-.1-.06-.2-.07-.3-.04-.11,.03-.18,.09-.24,.19l-1.67,2.87v.02c-.09,.17-.03,.38,.13,.5l1.74,1Z"/>
            <path class="cls-12" d="M540.88,247.37l.06-.02,.87,3.24c.06,.22,.27,.34,.48,.28l.45-.12c.22-.06,.34-.27,.28-.48s-.27-.34-.48-.28l-.07,.02-.77-2.86,.52-.14c.21-.06,.34-.27,.28-.48s-.27-.34-.48-.28l-.52,.14-.14-.53c-.06-.21-.27-.34-.48-.28s-.34,.27-.28,.48l.14,.53-.06,.02c-.22,.06-.34,.27-.28,.48s.27,.34,.48,.28Z"/>
            <polygon class="cls-140" points="530.91 249.23 531.11 248.7 531.3 248.16 530.86 247.8 530.43 247.43 530.24 247.97 530.04 248.5 530.48 248.86 530.91 249.23"/>
            <path class="cls-156" d="M546.9,236.46c.29-.53,.57-1.04,.9-1.65-.64,.27-1.18,.5-1.73,.73-.4-.41-.78-.8-1.16-1.19-.03,.01-.06,.03-.09,.04,.02,.56,.05,1.12,.07,1.69-.54,.27-1.05,.54-1.56,.8,0,.03,.02,.06,.02,.08,.54,.12,1.08,.24,1.64,.37,.07,.58,.14,1.13,.21,1.68,.03,0,.07,0,.1,0,.25-.39,.51-.79,.76-1.18,.06,.03,.1,.04,.12,.06,.07,.09,.14,.18,.2,.28,1.58,2.51,2.35,5.23,2.15,8.19-.21,3.22-1.43,5.99-3.89,8.13-2.08,1.81-4.53,2.74-7.27,2.91-3.43,.22-6.51-.75-9.24-2.83l.02-.02,1.68-2.9c.05-.09,.07-.21,.04-.3s-.09-.2-.21-.25l-1.7-.98c-.18-.11-.43-.04-.54,.14l-1.66,2.87c-.07,.13-.04,.25-.03,.29,.02,.06,.05,.17,.17,.25l1.72,.99c3.32,2.63,7.07,3.64,11.3,2.93,1.91-.32,3.68-1.03,5.21-2.21,4.08-3.15,5.36-7.38,4.59-12.33-.29-1.85-1.01-3.56-2.04-5.14-.05-.07-.07-.17-.12-.31,.5,.07,.94,.14,1.5,.22-.43-.52-.78-.94-1.15-1.38Zm-18.99,14.56c.11,.06,.24,.13,.38,.21,.23,.13,.49,.28,.67,.38-.33,.58-.99,1.71-1.27,2.19-.27-.16-.75-.43-1.03-.6l1.26-2.19Z"/>
            <g>
              <path class="cls-84" d="M458.59,249.59c.13-.6,.44-1.12,.75-1.65,1.23-2.13,2.92-3.8,5.13-4.88,4.01-1.97,8.01-1.88,11.94,.27,.43,.24,.83,.54,1.24,.81,.11,.07,.2,.17,.3,.25l.07,.26s-.04,.09-.05,.14c-.09,.57-.64,.82-1.13,.51-.5-.32-.99-.66-1.51-.94-2.03-1.07-4.18-1.47-6.46-1.19-2.4,.29-4.49,1.26-6.27,2.9-1.08,1-1.92,2.19-2.54,3.53-.04,.08-.07,.17-.12,.25-.27,.5-.89,.54-1.22,.09-.02-.03-.05-.06-.07-.09-.02-.09-.05-.18-.07-.26Z"/>
              <path class="cls-50" d="M468.39,245.74c2.13-.51,4.52-.08,6.69,1.47,.35,.25,.43,.68,.2,1.01-.23,.33-.66,.4-1.02,.14-.95-.69-2-1.13-3.17-1.3-2.98-.45-6.01,1.18-7.28,3.92-.04,.08-.07,.15-.11,.23-.19,.38-.59,.53-.95,.36-.36-.17-.5-.58-.33-.96,.33-.75,.75-1.44,1.28-2.07,1.12-1.32,2.57-2.24,4.68-2.8Z"/>
              <path class="cls-112" d="M469.03,249.59c1.29-.27,2.42-.06,3.46,.66,.38,.26,.48,.67,.26,1.01-.23,.36-.65,.43-1.04,.16-.59-.41-1.24-.6-1.96-.52-.98,.12-1.71,.61-2.19,1.47-.05,.09-.09,.19-.14,.28-.2,.34-.59,.45-.93,.28-.34-.17-.48-.57-.32-.93,.26-.59,.64-1.11,1.13-1.53,.52-.45,1.13-.74,1.74-.89Z"/>
            </g>
            <g>
              <g>
                <path class="cls-130" d="M476.05,258.13l-.42-1.55c-.66-2.47-3.21-3.95-5.69-3.28s-3.95,3.21-3.28,5.69l.42,1.55c1.15-1.06,2.57-1.87,4.19-2.31s3.25-.44,4.78-.1Z"/>
                <path class="cls-131" d="M467.33,261.46l.45,1.66c.66,2.47,3.21,3.95,5.69,3.28s3.95-3.21,3.28-5.69l-.45-1.66c-1.52-.42-3.18-.46-4.81-.02s-3.05,1.3-4.16,2.42Z"/>
              </g>
              <path class="cls-1" d="M474.17,269.02c-3.87,1.04-7.86-1.27-8.9-5.14l-.21-.79c-.09-.33,.11-.68,.44-.77s.68,.11,.77,.44l.21,.79c.86,3.2,4.16,5.11,7.36,4.25,3.2-.86,5.11-4.16,4.25-7.36l-.21-.79c-.09-.33,.11-.68,.44-.77s.68,.11,.77,.44l.21,.79c1.04,3.87-1.27,7.86-5.14,8.9Z"/>
              <path class="cls-11" d="M475.73,274.6c-.33,.09-.68-.11-.77-.44l-1.44-5.37c-.09-.33,.11-.68,.44-.77s.68,.11,.77,.44l1.44,5.37c.09,.33-.11,.68-.44,.77Z"/>
              <path class="cls-76" d="M478.42,273.88l-5.37,1.44c-.33,.09-.68-.11-.77-.44s.11-.68,.44-.77l5.37-1.44c.33-.09,.68,.11,.77,.44s-.11,.68-.44,.77Z"/>
            </g>
          </g>
          <g>
            <g>
              <path class="cls-150" d="M591.41,378.26c.13-.6,.44-1.12,.75-1.65,1.23-2.13,2.92-3.8,5.13-4.88,4.01-1.97,8.01-1.88,11.94,.27,.43,.24,.83,.54,1.24,.81,.11,.07,.2,.17,.3,.25l.07,.26s-.04,.09-.05,.14c-.09,.57-.64,.82-1.13,.51-.5-.32-.99-.66-1.51-.94-2.03-1.07-4.18-1.47-6.46-1.19-2.4,.29-4.49,1.26-6.27,2.9-1.08,1-1.92,2.19-2.54,3.53-.04,.08-.07,.17-.12,.25-.27,.5-.89,.54-1.22,.09-.02-.03-.05-.06-.07-.09-.02-.09-.05-.18-.07-.26Z"/>
              <path class="cls-14" d="M601.22,374.41c2.13-.51,4.52-.08,6.69,1.47,.35,.25,.43,.68,.2,1.01-.23,.33-.66,.4-1.02,.14-.95-.69-2-1.13-3.17-1.3-2.98-.45-6.01,1.18-7.28,3.92-.04,.08-.07,.15-.11,.23-.19,.38-.59,.53-.95,.36-.36-.17-.5-.58-.33-.96,.33-.75,.75-1.44,1.28-2.07,1.12-1.32,2.57-2.24,4.68-2.8Z"/>
              <path class="cls-40" d="M601.86,378.26c1.29-.27,2.42-.06,3.46,.66,.38,.26,.48,.67,.26,1.01-.23,.36-.65,.43-1.04,.16-.59-.41-1.24-.6-1.96-.52-.98,.12-1.71,.61-2.19,1.47-.05,.09-.09,.19-.14,.28-.2,.34-.59,.45-.93,.28-.34-.17-.48-.57-.32-.93,.26-.59,.64-1.11,1.13-1.53,.52-.45,1.13-.74,1.74-.89Z"/>
            </g>
            <g>
              <g>
                <path class="cls-88" d="M608.88,386.8l-.42-1.55c-.66-2.47-3.21-3.95-5.69-3.28s-3.95,3.21-3.28,5.69l.42,1.55c1.15-1.06,2.57-1.87,4.19-2.31s3.25-.44,4.78-.1Z"/>
                <path class="cls-138" d="M600.16,390.12l.45,1.66c.66,2.47,3.21,3.95,5.69,3.28s3.95-3.21,3.28-5.69l-.45-1.66c-1.52-.42-3.18-.46-4.81-.02s-3.05,1.3-4.16,2.42Z"/>
              </g>
              <path class="cls-65" d="M606.99,397.69c-3.87,1.04-7.86-1.27-8.9-5.14l-.21-.79c-.09-.33,.11-.68,.44-.77s.68,.11,.77,.44l.21,.79c.86,3.2,4.16,5.11,7.36,4.25,3.2-.86,5.11-4.16,4.25-7.36l-.21-.79c-.09-.33,.11-.68,.44-.77s.68,.11,.77,.44l.21,.79c1.04,3.87-1.27,7.86-5.14,8.9Z"/>
              <path class="cls-83" d="M608.56,403.27c-.33,.09-.68-.11-.77-.44l-1.44-5.37c-.09-.33,.11-.68,.44-.77s.68,.11,.77,.44l1.44,5.37c.09,.33-.11,.68-.44,.77Z"/>
              <path class="cls-128" d="M611.25,402.55l-5.37,1.44c-.33,.09-.68-.11-.77-.44s.11-.68,.44-.77l5.37-1.44c.33-.09,.68,.11,.77,.44s-.11,.68-.44,.77Z"/>
            </g>
          </g>
        </g>
      </g>
    </g>
  </g>
  <polygon points="307 .87 385.21 214.53 612.58 222.89 433.55 363.3 495.86 582.13 307 455.25 118.14 582.13 180.45 363.3 1.42 222.89 228.79 214.53 307 .87"/>
</svg>