<?xml version="1.0" encoding="UTF-8"?>
<svg id="Layer_1" data-name="Layer 1" xmlns="http://www.w3.org/2000/svg" xmlns:xlink="http://www.w3.org/1999/xlink" viewBox="0 0 90 36">
  <defs>
    <style>
      .cls-1 {
        fill: url(#_未命名漸層_6-13);
      }

      .cls-2 {
        fill: url(#_未命名漸層_6-17);
      }

      .cls-3 {
        fill: url(#_未命名漸層_6-5);
      }

      .cls-4 {
        fill: url(#_未命名漸層_6-14);
      }

      .cls-5 {
        fill: url(#_未命名漸層_6-11);
      }

      .cls-6 {
        fill: url(#_未命名漸層_6-19);
      }

      .cls-7 {
        fill: url(#_未命名漸層_6-7);
      }

      .cls-8 {
        fill: url(#_未命名漸層_6-9);
      }

      .cls-9 {
        fill: url(#_未命名漸層_6-21);
      }

      .cls-10 {
        fill: url(#_未命名漸層_6-20);
      }

      .cls-11 {
        fill: url(#_未命名漸層_6-6);
      }

      .cls-12 {
        fill: url(#_未命名漸層_6-12);
      }

      .cls-13 {
        fill: url(#_未命名漸層_6-10);
      }

      .cls-14 {
        fill: url(#_未命名漸層_6-18);
      }

      .cls-15 {
        fill: url(#_未命名漸層_6-16);
      }

      .cls-16 {
        fill: url(#_未命名漸層_6-4);
      }

      .cls-17 {
        fill: url(#_未命名漸層_6-3);
      }

      .cls-18 {
        fill: url(#_未命名漸層_6-15);
      }

      .cls-19 {
        fill: url(#_未命名漸層_6-8);
      }

      .cls-20 {
        fill: url(#_未命名漸層_6-22);
      }

      .cls-21 {
        fill: url(#_未命名漸層_6);
      }

      .cls-22 {
        fill: url(#_未命名漸層_6-2);
      }
    </style>
    <linearGradient id="_未命名漸層_6" data-name="未命名漸層 6" x1="-.21" y1=".89" x2="89.63" y2="36.19" gradientUnits="userSpaceOnUse">
      <stop offset=".1" stop-color="#5a79ba"/>
      <stop offset=".27" stop-color="#7b86bb"/>
      <stop offset=".5" stop-color="#a295bd"/>
      <stop offset=".69" stop-color="#bb9fbe"/>
      <stop offset=".8" stop-color="#c4a3bf"/>
    </linearGradient>
    <linearGradient id="_未命名漸層_6-2" data-name="未命名漸層 6" x1=".39" y1="-.62" x2="90.22" y2="34.68" xlink:href="#_未命名漸層_6"/>
    <linearGradient id="_未命名漸層_6-3" data-name="未命名漸層 6" x1="1.82" y1="-4.27" x2="91.66" y2="31.03" xlink:href="#_未命名漸層_6"/>
    <linearGradient id="_未命名漸層_6-4" data-name="未命名漸層 6" x1="4.18" y1="-10.26" x2="94.01" y2="25.04" xlink:href="#_未命名漸層_6"/>
    <linearGradient id="_未命名漸層_6-5" data-name="未命名漸層 6" x1="5.24" y1="-12.98" x2="95.08" y2="22.32" xlink:href="#_未命名漸層_6"/>
    <linearGradient id="_未命名漸層_6-6" data-name="未命名漸層 6" x1="3.08" y1="-7.48" x2="92.92" y2="27.82" xlink:href="#_未命名漸層_6"/>
    <linearGradient id="_未命名漸層_6-7" data-name="未命名漸層 6" x1="-1.23" y1="3.51" x2="88.6" y2="38.81" xlink:href="#_未命名漸層_6"/>
    <linearGradient id="_未命名漸層_6-8" data-name="未命名漸層 6" x1="-.88" y1="2.6" x2="88.96" y2="37.89" xlink:href="#_未命名漸層_6"/>
    <linearGradient id="_未命名漸層_6-9" data-name="未命名漸層 6" x1="-.23" y1=".95" x2="89.61" y2="36.24" xlink:href="#_未命名漸層_6"/>
    <linearGradient id="_未命名漸層_6-10" data-name="未命名漸層 6" x1=".57" y1="-1.08" x2="90.4" y2="34.22" xlink:href="#_未命名漸層_6"/>
    <linearGradient id="_未命名漸層_6-11" data-name="未命名漸層 6" x1="1.13" y1="-2.51" x2="90.97" y2="32.79" xlink:href="#_未命名漸層_6"/>
    <linearGradient id="_未命名漸層_6-12" data-name="未命名漸層 6" x1="1.67" y1="-3.87" x2="91.5" y2="31.42" xlink:href="#_未命名漸層_6"/>
    <linearGradient id="_未命名漸層_6-13" data-name="未命名漸層 6" x1="1.18" y1="-2.64" x2="91.02" y2="32.66" xlink:href="#_未命名漸層_6"/>
    <linearGradient id="_未命名漸層_6-14" data-name="未命名漸層 6" x1="2.39" y1="-5.71" x2="92.22" y2="29.59" xlink:href="#_未命名漸層_6"/>
    <linearGradient id="_未命名漸層_6-15" data-name="未命名漸層 6" x1="-.17" y1=".79" x2="89.67" y2="36.09" xlink:href="#_未命名漸層_6"/>
    <linearGradient id="_未命名漸層_6-16" data-name="未命名漸層 6" x1="-1.05" y1="3.04" x2="88.78" y2="38.34" xlink:href="#_未命名漸層_6"/>
    <linearGradient id="_未命名漸層_6-17" data-name="未命名漸層 6" x1="-1.95" y1="5.32" x2="87.89" y2="40.62" xlink:href="#_未命名漸層_6"/>
    <linearGradient id="_未命名漸層_6-18" data-name="未命名漸層 6" x1="-3.95" y1="10.41" x2="85.89" y2="45.71" xlink:href="#_未命名漸層_6"/>
    <linearGradient id="_未命名漸層_6-19" data-name="未命名漸層 6" x1="-5.89" y1="15.37" x2="83.94" y2="50.66" xlink:href="#_未命名漸層_6"/>
    <linearGradient id="_未命名漸層_6-20" data-name="未命名漸層 6" x1="-6.33" y1="16.47" x2="83.51" y2="51.77" xlink:href="#_未命名漸層_6"/>
    <linearGradient id="_未命名漸層_6-21" data-name="未命名漸層 6" x1="-8.98" y1="23.21" x2="80.86" y2="58.51" xlink:href="#_未命名漸層_6"/>
    <linearGradient id="_未命名漸層_6-22" data-name="未命名漸層 6" x1="-9.92" y1="25.62" x2="79.91" y2="60.92" xlink:href="#_未命名漸層_6"/>
  </defs>
  <path class="cls-21" d="M37.2,5.86c-.34-.15-.73-.08-1.04,.19l-4.63,4.62-4.61-4.61c-.24-.24-.7-.39-1.07-.19-.34,.14-.56,.48-.56,.88v13.22c0,.56,.41,.96,.96,.96s.96-.43,.96-.96V9.1c.95,.96,2.2,2.21,2.95,2.94l-.18,.18c-.18,.18-.28,.42-.28,.68s.1,.49,.29,.68c.38,.38,.97,.38,1.35,0,.01-.01,.89-.87,.89-.87,0,0,2.72-2.73,3.64-3.64,0,2.92-.04,9.01-.04,10.62v.4c0,.53,.49,.96,1.02,.96s.95-.43,.95-.98V6.75c0-.41-.23-.76-.59-.89Z"/>
  <path class="cls-22" d="M41.4,10.05c-.56,0-.96,.41-.96,.96v8.96c0,.56,.41,.96,.96,.96s.96-.43,.96-.96V11.01c0-.53-.43-.96-.96-.96Z"/>
  <path class="cls-17" d="M52.03,11.4c.18,.18,.43,.28,.69,.28s.51-.1,.7-.29l.03-.04c.29-.37,.29-.9,0-1.26l-1.39-1.35c-.19-.19-.42-.29-.67-.29-.39,0-.61,.22-.69,.29l-6.63,6.6-.04,.04c-.29,.37-.29,.9,0,1.26l4.02,4c.18,.18,.44,.29,.67,.29h3.97c.56,0,.96-.41,.96-.96s-.42-.96-.96-.96h-3.54c-.54-.52-2.23-2.2-3.01-3l5.25-5.25c.31,.31,.62,.61,.64,.63Z"/>
  <path class="cls-16" d="M60.35,5.84c-.26,0-.5,.1-.69,.29s-.29,.43-.29,.69v13.31s.02,.09,.02,.09c.03,.13,.1,.32,.29,.52,.19,.19,.38,.25,.51,.28l.07,.02,8.32-.03c.27,0,.5-.09,.68-.27s.28-.44,.28-.69V6.8c.01-.26-.08-.49-.28-.68-.17-.17-.42-.28-.67-.28h-8.25Zm7.28,1.92c0,.75,0,2.11,0,3.53v.08c0,2.16,0,6.61,0,7.73h-6.31c0-1.05-.01-5.37-.01-7.41v-.02c0-1.65,0-3.09,0-3.88,.61,0,1.59,0,2.56-.01h1.18c.99,0,1.97-.01,2.59-.02Z"/>
  <path class="cls-3" d="M81.7,11.47l-.03-.04-2.71-2.74c-.2-.2-.49-.28-.69-.28-.26,0-.49,.09-.67,.28l-3.64,3.68v-2.96c0-.53-.43-.96-.96-.96-.56,0-.96,.41-.96,.96v10.57c0,.56,.41,.96,.96,.96s.96-.43,.96-.96v-4.89c.81-.85,3.37-3.41,4.32-4.35,.42,.42,1,1.02,1.4,1.43l.26,.26v7.56c0,.53,.43,.96,.96,.96,.56,0,.96-.41,.96-.96v-7.95c0-.18-.06-.4-.16-.56Z"/>
  <polygon class="cls-11" points="40.79 6.7 40.18 7.58 40.79 8.45 41.4 9.33 42.01 8.45 42.63 7.58 42.01 6.7 41.4 5.83 40.79 6.7"/>
  <g>
    <path class="cls-7" d="M60.05,24.48c-.11-.11-.24-.11-.28-.11h-1.87c-.23,0-.39,.17-.39,.39v4.69c0,.23,.17,.39,.39,.39s.39-.18,.39-.39v-1.02c.13,.02,.26-.02,.35-.11l2.35-2.34,.02-.02c.13-.16,.12-.41-.02-.54l-.94-.94Zm-1.76,3.08v-2.4h1.31c.06,.07,.16,.16,.29,.29,.08,.08,.17,.17,.25,.25-.42,.42-1.42,1.42-1.85,1.86Z"/>
    <path class="cls-19" d="M63.45,25.42c-.15-.14-.4-.14-.55,.01l-.25,.25c-.01-.21-.18-.37-.39-.37-.23,0-.39,.17-.39,.39v3.75c0,.23,.17,.39,.39,.39s.39-.18,.39-.39v-2.66l.81-.81c.08-.08,.13-.2,.12-.32,0-.1-.06-.19-.13-.25Z"/>
    <path class="cls-8" d="M69.01,30.79c.1,0,.2-.04,.28-.12l.94-.94s.12-.12,.12-.28v-3.18c0-.22-.18-.39-.39-.39s-.39,.17-.39,.39v3.01c-.21,.21-.72,.72-.83,.83-.08,.08-.12,.17-.12,.28,0,.1,.05,.21,.12,.28,.08,.08,.17,.12,.28,.12Z"/>
    <path class="cls-13" d="M72.76,29.73c.07,.07,.18,.12,.28,.12h1.41c.23,0,.39-.17,.39-.39s-.17-.39-.39-.39h-1.23c-.2-.19-.73-.72-1.01-1.01l.44-.44c.01,.2,.19,.37,.39,.37h1.41c.22,0,.39-.18,.39-.39v-1.41c0-.11-.04-.19-.06-.23l-.52-.51c-.08-.08-.17-.12-.28-.12-.16,0-.25,.09-.28,.12l-2.36,2.35-.03,.04c-.04,.07-.06,.15-.06,.23,0,.11,.04,.19,.06,.23l1.45,1.45Zm1.22-3.47s.05,.05,.07,.07v.86h-.99l.93-.93Z"/>
    <path class="cls-5" d="M76.97,29.73c.07,.07,.18,.12,.28,.12h1.41c.23,0,.39-.17,.39-.39s-.17-.39-.39-.39h-1.23c-.2-.19-.73-.72-1.01-1.01l1.78-1.78c.08,.08,.15,.14,.17,.17h.01c.15,.16,.41,.17,.57,0v-.02c.13-.15,.13-.37,0-.53l-.49-.47c-.08-.08-.17-.12-.28-.12-.11,0-.2,.04-.28,.12l-2.35,2.34-.02,.02c-.12,.15-.12,.37,0,.52l1.42,1.41Z"/>
    <path class="cls-12" d="M80.06,26.1h.07v3.35c0,.23,.17,.39,.39,.39h.47c.23,0,.39-.17,.39-.39s-.17-.39-.39-.39h-.07v-2.96h.53c.22,0,.39-.17,.39-.39s-.17-.39-.39-.39h-.53v-.55c0-.22-.17-.39-.39-.39s-.39,.17-.39,.39v.55h-.07c-.23,0-.39,.17-.39,.39s.17,.39,.39,.39Z"/>
    <polygon class="cls-1" points="69.96 25.31 70.28 24.85 70.61 24.38 70.28 23.92 69.96 23.45 69.63 23.92 69.31 24.38 69.63 24.85 69.96 25.31"/>
    <path class="cls-4" d="M88.7,17.12c.42-.44,.82-.86,1.3-1.36-.69,.09-1.27,.17-1.86,.25-.28-.5-.55-.97-.81-1.45-.03,0-.06,.01-.09,.02-.12,.55-.25,1.1-.37,1.65-.59,.13-1.15,.25-1.72,.37,0,.03,0,.06,0,.09,.49,.26,.98,.52,1.49,.78-.08,.57-.15,1.13-.23,1.68,.03,.01,.06,.02,.09,.03,.35-.32,.69-.63,1.04-.94,.05,.05,.09,.07,.1,.09,.05,.1,.09,.21,.12,.32,.87,2.83,.92,5.66-.04,8.47-1.04,3.05-2.93,5.41-5.86,6.85-2.47,1.21-5.08,1.47-7.77,.93-3.37-.68-6.09-2.41-8.19-5.12h.02s2.37-2.38,2.37-2.38c.07-.07,.12-.18,.12-.28s-.04-.22-.14-.3l-1.39-1.39c-.15-.15-.41-.15-.56,0l-2.35,2.34c-.1,.1-.1,.23-.1,.28,0,.06,0,.18,.1,.28l1.41,1.4c2.52,3.4,5.89,5.35,10.16,5.76,1.93,.19,3.82-.04,5.6-.79,4.76-1.98,7.09-5.74,7.62-10.72,.2-1.87-.06-3.7-.64-5.49-.03-.08-.02-.18-.04-.33,.47,.2,.88,.38,1.39,.6-.28-.61-.51-1.11-.76-1.63Zm-22.11,9.15c.09,.09,.19,.19,.31,.3,.19,.19,.4,.4,.55,.55-.47,.47-1.4,1.39-1.8,1.79-.22-.22-.61-.61-.84-.85l1.78-1.79Z"/>
  </g>
  <g>
    <g>
      <path class="cls-18" d="M0,5.52c.28-.55,.72-.97,1.15-1.4C2.89,2.38,4.95,1.21,7.37,.73c4.38-.86,8.22,.26,11.46,3.36,.36,.34,.67,.73,.99,1.11,.09,.1,.15,.21,.22,.32v.27s-.07,.08-.09,.12c-.23,.53-.83,.62-1.22,.2-.4-.44-.78-.89-1.21-1.3-1.68-1.56-3.66-2.5-5.93-2.82-2.39-.34-4.66,.05-6.8,1.18-1.31,.69-2.42,1.61-3.36,2.75-.06,.07-.12,.14-.18,.21-.39,.41-1,.29-1.2-.23-.01-.04-.03-.07-.04-.11,0-.09,0-.18,0-.27Z"/>
      <path class="cls-15" d="M10.47,4.34c2.2,.06,4.39,1.09,6.08,3.15,.28,.33,.24,.77-.07,1.03-.31,.26-.74,.22-1.02-.13-.74-.91-1.64-1.61-2.72-2.08-2.77-1.21-6.11-.42-8.05,1.91-.05,.07-.11,.13-.16,.19-.29,.32-.71,.36-1.01,.1-.3-.26-.33-.69-.07-1.02,.51-.64,1.1-1.2,1.77-1.67,1.43-.99,3.06-1.49,5.25-1.49Z"/>
      <path class="cls-2" d="M10.09,8.22c1.31,.07,2.36,.57,3.17,1.53,.3,.35,.29,.77-.01,1.05-.32,.28-.74,.25-1.05-.11-.47-.55-1.04-.9-1.75-1.01-.98-.14-1.81,.15-2.5,.86-.07,.07-.14,.16-.21,.23-.28,.27-.68,.29-.97,.03-.29-.25-.32-.68-.07-.99,.41-.5,.9-.9,1.49-1.18,.62-.3,1.28-.42,1.91-.41Z"/>
    </g>
    <g>
      <g>
        <path class="cls-14" d="M14.66,18.28v-1.61c0-2.56-2.08-4.64-4.64-4.64s-4.64,2.08-4.64,4.64v1.61c1.39-.73,2.97-1.14,4.64-1.14s3.25,.42,4.64,1.14Z"/>
        <path class="cls-6" d="M5.38,19.24v1.72c0,2.56,2.08,4.64,4.64,4.64s4.64-2.08,4.64-4.64v-1.72c-1.36-.8-2.95-1.26-4.64-1.26s-3.28,.46-4.64,1.26Z"/>
      </g>
      <path class="cls-10" d="M10.02,28.31c-4.01,0-7.26-3.26-7.26-7.26v-.82c0-.35,.28-.63,.63-.63s.63,.28,.63,.63v.82c0,3.32,2.7,6.01,6.01,6.01s6.01-2.7,6.01-6.01v-.82c0-.35,.28-.63,.63-.63s.63,.28,.63,.63v.82c0,4.01-3.26,7.26-7.26,7.26Z"/>
      <path class="cls-9" d="M10.09,34.11c-.35,0-.63-.28-.63-.63v-5.56c0-.35,.28-.63,.63-.63s.63,.28,.63,.63v5.56c0,.35-.28,.63-.63,.63Z"/>
      <path class="cls-20" d="M12.87,34.11H7.31c-.35,0-.63-.28-.63-.63s.28-.63,.63-.63h5.56c.35,0,.63,.28,.63,.63s-.28,.63-.63,.63Z"/>
    </g>
  </g>
</svg>