<?xml version="1.0" encoding="utf-8"?>
<!-- Generator: Adobe Illustrator 26.0.2, SVG Export Plug-In . SVG Version: 6.00 Build 0)  -->
<svg version="1.1" xmlns="http://www.w3.org/2000/svg" xmlns:xlink="http://www.w3.org/1999/xlink" x="0px" y="0px"
	 viewBox="0 0 20 20" style="enable-background:new 0 0 20 20;" xml:space="preserve">
<style type="text/css">
	
</style>
<g id="BG">
</g>
<g id="GR">
	<path class="st0" d="M16.94,3.56c-1.29-0.61-2.68-1.05-4.13-1.3c-0.18,0.32-0.39,0.75-0.53,1.1c-1.54-0.23-3.06-0.23-4.57,0
		c-0.14-0.34-0.36-0.78-0.53-1.1c-1.45,0.25-2.83,0.69-4.13,1.3C0.44,7.5-0.27,11.35,0.08,15.15c1.73,1.29,3.41,2.08,5.06,2.59
		c0.41-0.56,0.77-1.16,1.08-1.79c-0.6-0.23-1.17-0.51-1.71-0.83c0.14-0.11,0.28-0.22,0.42-0.33c3.29,1.54,6.87,1.54,10.12,0
		c0.14,0.11,0.28,0.22,0.42,0.33c-0.54,0.33-1.11,0.61-1.71,0.83c0.31,0.63,0.67,1.22,1.08,1.78c1.65-0.51,3.33-1.3,5.06-2.59
		C20.33,10.75,19.21,6.94,16.94,3.56z M6.68,12.81c-0.99,0-1.8-0.92-1.8-2.05s0.79-2.05,1.8-2.05c1.01,0,1.82,0.92,1.8,2.05
		C8.48,11.89,7.68,12.81,6.68,12.81z M13.32,12.81c-0.99,0-1.8-0.92-1.8-2.05s0.79-2.05,1.8-2.05c1.01,0,1.82,0.92,1.8,2.05
		C15.12,11.89,14.33,12.81,13.32,12.81z"/>
</g>
<g id="OV">
</g>
</svg>
