<?xml version="1.0" encoding="utf-8"?>
<!-- Generator: Adobe Illustrator 26.0.2, SVG Export Plug-In . SVG Version: 6.00 Build 0)  -->
<svg version="1.1" xmlns="http://www.w3.org/2000/svg" xmlns:xlink="http://www.w3.org/1999/xlink" x="0px" y="0px"
	 viewBox="0 0 20 20" style="enable-background:new 0 0 20 20;" xml:space="preserve">
<style type="text/css">	
</style>
<g id="BG">
</g>
<g id="GR">
	<g id="h5PunY_00000105408048873745795670000002059778305098343091_">
		<g>
			<path class="st0" d="M12.61,2.5c0.25,0.02,0.5,0.04,0.76,0.06c0.17,0.01,0.35,0.03,0.53,0.05c0,0.8,0,1.58,0,2.39
				c-0.07,0-0.14,0-0.2,0c-0.5,0.01-1.01,0-1.51,0.03c-0.62,0.03-0.97,0.36-1,0.99c-0.03,0.65-0.01,1.31-0.01,1.98
				c0.87,0,1.74,0,2.63,0c-0.12,0.9-0.23,1.78-0.34,2.67c-0.77,0-1.52,0-2.29,0c0,2.29,0,4.56,0,6.84c-0.92,0-1.83,0-2.76,0
				c0-2.27,0-4.54,0-6.83c-0.77,0-1.53,0-2.3,0c0-0.9,0-1.77,0-2.67c0.76,0,1.52,0,2.3,0c0-0.08,0-0.13,0-0.19
				c0-0.7-0.01-1.4,0.01-2.1C8.46,4.87,8.7,4.1,9.3,3.47C9.75,3,10.31,2.72,10.95,2.59c0.17-0.04,0.34-0.06,0.52-0.09
				C11.85,2.5,12.23,2.5,12.61,2.5z"/>
		</g>
	</g>
</g>
<g id="OV">
</g>
</svg>
