<?xml version="1.0" encoding="utf-8"?>
<!-- Generator: Adobe Illustrator 26.0.2, SVG Export Plug-In . SVG Version: 6.00 Build 0)  -->
<svg version="1.1" xmlns="http://www.w3.org/2000/svg" xmlns:xlink="http://www.w3.org/1999/xlink" x="0px" y="0px"
	 viewBox="0 0 20 20" style="enable-background:new 0 0 20 20;" xml:space="preserve">
<style type="text/css">	
</style>
<g id="BG">
</g>
<g id="GR">
	<g id="IHJFyL_00000062168492654255595720000010618764904101300361_">
		<g>
			<path class="st0" d="M3.07,8.2C3.5,8.41,3.93,8.55,4.44,8.56C3.67,8,3.23,7.28,3.11,6.38C3.03,5.7,3.16,5.06,3.51,4.46
				C5.18,6.42,7.29,7.5,9.84,7.68c-0.01-0.31-0.04-0.6-0.03-0.9C9.85,5.52,10.82,4.31,12.04,4c1.14-0.29,2.15-0.03,3.01,0.77
				c0.04,0.04,0.13,0.06,0.19,0.05c0.6-0.12,1.16-0.33,1.7-0.63c0.04-0.02,0.08-0.04,0.14-0.07c-0.23,0.72-0.67,1.25-1.27,1.66
				c0.58-0.05,1.12-0.22,1.65-0.44c0.01,0.01,0.02,0.02,0.03,0.04c-0.25,0.29-0.48,0.59-0.75,0.87c-0.21,0.22-0.46,0.4-0.68,0.6
				c-0.05,0.05-0.09,0.13-0.09,0.19c0,3.18-1.26,5.73-3.84,7.6c-1.09,0.79-2.34,1.21-3.67,1.39c-1.26,0.17-2.5,0.09-3.72-0.27
				c-0.77-0.22-1.5-0.55-2.18-0.97c-0.02-0.01-0.03-0.02-0.06-0.05c1.67,0.15,3.16-0.26,4.51-1.27c-1.41-0.13-2.35-0.84-2.87-2.15
				c0.47,0.06,0.91,0.07,1.36-0.06C3.81,10.83,3.03,9.36,3.07,8.2z"/>
		</g>
	</g>
</g>
<g id="OV">
</g>
</svg>
