<?xml version="1.0" encoding="utf-8"?>
<!-- Generator: Adobe Illustrator 26.0.2, SVG Export Plug-In . SVG Version: 6.00 Build 0)  -->
<svg version="1.1" xmlns="http://www.w3.org/2000/svg" xmlns:xlink="http://www.w3.org/1999/xlink" x="0px" y="0px"
	 viewBox="0 0 51 51" style="enable-background:new 0 0 51 51;" xml:space="preserve">
<g id="BG">
</g>
<g id="GR">
	<g>
		<circle class="st19" cx="25.5" cy="25.5" r="25"/>
		<g id="h5PunY_00000141445154073020160000000010282871994646209201_">
			<g>
				<path class="st9" d="M28.52,14.36c0.37,0.03,0.75,0.06,1.12,0.09c0.26,0.02,0.52,0.05,0.78,0.07c0,1.19,0,2.35,0,3.54
					c-0.11,0-0.21,0-0.3,0c-0.75,0.01-1.5,0-2.24,0.04c-0.93,0.05-1.44,0.54-1.48,1.47c-0.04,0.97-0.01,1.94-0.01,2.95
					c1.29,0,2.58,0,3.91,0c-0.17,1.34-0.34,2.65-0.51,3.97c-1.14,0-2.26,0-3.4,0c0,3.4,0,6.77,0,10.16c-1.37,0-2.72,0-4.1,0
					c0-3.38,0-6.75,0-10.15c-1.15,0-2.28,0-3.42,0c0-1.33,0-2.63,0-3.97c1.13,0,2.25,0,3.41,0c0-0.11,0-0.2,0-0.28
					c0-1.04-0.02-2.08,0.02-3.11c0.05-1.25,0.42-2.4,1.3-3.33c0.67-0.71,1.51-1.12,2.45-1.31c0.25-0.05,0.51-0.09,0.77-0.14
					C27.38,14.36,27.95,14.36,28.52,14.36z"/>
			</g>
		</g>
	</g>
</g>
<g id="OV">
</g>
</svg>
