<?xml version="1.0" encoding="UTF-8" standalone="no" ?>
<!DOCTYPE svg PUBLIC "-//W3C//DTD SVG 1.1//EN" "http://www.w3.org/Graphics/SVG/1.1/DTD/svg11.dtd">
<svg xmlns="http://www.w3.org/2000/svg" xmlns:xlink="http://www.w3.org/1999/xlink" version="1.1" viewBox="0 0 1080 1080" xml:space="preserve">
<desc>Created with Fabric.js 5.2.4</desc>
<g  >
<circle class="st19" vector-effect="non-scaling-stroke"  cx="540" cy="540" r="539" />
</g>
<g transform="matrix(0.77 0 0 0.77 540 540)"  >
<path class="st9" vector-effect="non-scaling-stroke"  transform=" translate(-638.5, -638.5)" d="M 931.5 344.5 C 931.833 345.5 932.5 346.167 933.5 346.5 C 935.167 347.5 936.5 348.833 937.5 350.5 C 937.738 352.404 938.738 353.738 940.5 354.5 C 947.794 361.764 954.127 369.764 959.5 378.5 C 959.427 380.027 960.094 381.027 961.5 381.5 C 961.427 383.027 962.094 384.027 963.5 384.5 C 978.36 408.072 987.693 433.739 991.5 461.5 C 991.867 467.172 992.367 472.839 993 478.5 C 993.667 586.167 993.667 693.833 993 801.5 C 992.367 807.161 991.867 812.828 991.5 818.5 C 987.761 844.392 979.094 868.392 965.5 890.5 C 964.094 890.973 963.427 891.973 963.5 893.5 C 963.672 894.492 963.338 895.158 962.5 895.5 C 961.094 895.973 960.427 896.973 960.5 898.5 C 959.094 898.973 958.427 899.973 958.5 901.5 C 957.094 901.973 956.427 902.973 956.5 904.5 C 955.974 906.23 954.974 907.564 953.5 908.5 C 952.094 908.973 951.427 909.973 951.5 911.5 C 951.167 912.5 950.5 913.167 949.5 913.5 C 948.094 913.973 947.427 914.973 947.5 916.5 C 947.5 917.167 947.167 917.5 946.5 917.5 C 944.413 918.585 943.08 920.251 942.5 922.5 C 942.5 923.167 942.167 923.5 941.5 923.5 C 935.167 929.167 929.167 935.167 923.5 941.5 C 923.167 942.5 922.5 943.167 921.5 943.5 C 919.596 943.738 918.262 944.738 917.5 946.5 C 917.5 947.167 917.167 947.5 916.5 947.5 C 914.596 947.738 913.262 948.738 912.5 950.5 C 912.5 951.167 912.167 951.5 911.5 951.5 C 909.973 951.427 908.973 952.094 908.5 953.5 C 907.564 954.974 906.23 955.974 904.5 956.5 C 902.973 956.427 901.973 957.094 901.5 958.5 C 899.973 958.427 898.973 959.094 898.5 960.5 C 897.101 961.89 895.434 962.89 893.5 963.5 C 891.973 963.427 890.973 964.094 890.5 965.5 C 889.486 966.674 888.153 967.34 886.5 967.5 C 884.973 967.427 883.973 968.094 883.5 969.5 C 879.818 972.008 875.818 974.008 871.5 975.5 C 869.447 975.402 867.78 976.069 866.5 977.5 C 853.209 983.817 839.209 988.151 824.5 990.5 C 816.832 991.25 809.165 992.083 801.5 993 C 693.5 993.667 585.5 993.667 477.5 993 C 469.82 992.212 462.154 991.379 454.5 990.5 C 426.788 985.633 401.455 975.299 378.5 959.5 C 378.027 958.094 377.027 957.427 375.5 957.5 C 368.28 953.612 361.947 948.612 356.5 942.5 C 356.027 941.094 355.027 940.427 353.5 940.5 C 351.167 938.833 349.167 936.833 347.5 934.5 C 346.833 933.167 345.833 932.167 344.5 931.5 C 341.833 929.5 339.5 927.167 337.5 924.5 C 337.573 922.973 336.906 921.973 335.5 921.5 C 307.951 890.05 291.451 853.383 286 811.5 C 284.739 753.852 283.906 696.185 283.5 638.5 C 284.189 584.169 284.689 529.835 285 475.5 C 294.431 398.809 332.931 342.309 400.5 306 C 424.82 294.116 450.487 287.116 477.5 285 C 531.502 284.688 585.502 284.188 639.5 283.5 C 693.498 284.188 747.498 284.688 801.5 285 C 852.117 289.483 895.45 309.317 931.5 344.5 Z M 840.5 413.5 C 842.649 414.736 844.982 415.736 847.5 416.5 C 847.973 417.906 848.973 418.573 850.5 418.5 C 866.99 432.098 870.823 448.765 862 468.5 C 850.938 485.057 835.772 490.557 816.5 485 C 811.239 482.455 806.406 479.288 802 475.5 C 798.877 470.903 796.043 466.237 793.5 461.5 C 792.167 453.5 792.167 445.5 793.5 437.5 C 795.008 435.819 796.008 433.819 796.5 431.5 C 797.338 431.158 797.672 430.492 797.5 429.5 C 798.906 429.027 799.573 428.027 799.5 426.5 C 800.167 426.5 800.5 426.167 800.5 425.5 C 802.5 424.167 804.167 422.5 805.5 420.5 C 806.167 420.5 806.5 420.167 806.5 419.5 C 808.027 419.573 809.027 418.906 809.5 417.5 C 810.492 417.672 811.158 417.338 811.5 416.5 C 813.153 416.34 814.486 415.674 815.5 414.5 C 816.791 414.737 817.791 414.404 818.5 413.5 C 825.833 412.167 833.167 412.167 840.5 413.5 Z M 673.5 472.5 C 696.192 477.402 717.192 486.402 736.5 499.5 C 736.973 500.906 737.973 501.573 739.5 501.5 C 741.46 503.156 743.46 504.823 745.5 506.5 C 745.973 507.906 746.973 508.573 748.5 508.5 C 749.167 509.833 750.167 510.833 751.5 511.5 C 751.973 512.906 752.973 513.573 754.5 513.5 C 757.5 517.167 760.833 520.5 764.5 523.5 C 764.427 525.027 765.094 526.027 766.5 526.5 C 803.73 570.75 816.563 621.417 805 678.5 C 786.102 746.731 742.269 789.231 673.5 806 C 611.6 816.531 558.6 799.697 514.5 755.5 C 514.262 753.596 513.262 752.262 511.5 751.5 C 510.833 750.167 509.833 749.167 508.5 748.5 C 508.573 746.973 507.906 745.973 506.5 745.5 C 504.823 743.46 503.156 741.46 501.5 739.5 C 501.573 737.973 500.906 736.973 499.5 736.5 C 486.795 717.039 477.795 696.039 472.5 673.5 C 468.59 650.492 468.59 627.492 472.5 604.5 C 475.362 592.913 479.029 581.579 483.5 570.5 C 484.931 569.22 485.598 567.553 485.5 565.5 C 487.008 563.819 488.008 561.819 488.5 559.5 C 489.906 559.027 490.573 558.027 490.5 556.5 C 491.674 555.486 492.34 554.153 492.5 552.5 C 493.906 552.027 494.573 551.027 494.5 549.5 C 495.906 549.027 496.573 548.027 496.5 546.5 C 498.192 544.795 499.525 542.795 500.5 540.5 C 501.906 540.027 502.573 539.027 502.5 537.5 C 503.167 537.5 503.5 537.167 503.5 536.5 C 504.906 536.027 505.573 535.027 505.5 533.5 C 506.5 533.167 507.167 532.5 507.5 531.5 C 509.587 530.415 510.92 528.749 511.5 526.5 C 513.833 524.833 515.833 522.833 517.5 520.5 C 518.833 519.833 519.833 518.833 520.5 517.5 C 522.833 515.833 524.833 513.833 526.5 511.5 C 528.749 510.92 530.415 509.587 531.5 507.5 C 532.167 507.5 532.5 507.167 532.5 506.5 C 534.027 506.573 535.027 505.906 535.5 504.5 C 537.389 503.396 539.055 502.063 540.5 500.5 C 542.027 500.573 543.027 499.906 543.5 498.5 C 545.027 498.573 546.027 497.906 546.5 496.5 C 548.027 496.573 549.027 495.906 549.5 494.5 C 551.027 494.573 552.027 493.906 552.5 492.5 C 555.485 491.674 558.151 490.341 560.5 488.5 C 562.819 488.008 564.819 487.008 566.5 485.5 C 568.819 485.008 570.819 484.008 572.5 482.5 C 574.553 482.598 576.22 481.931 577.5 480.5 C 578.791 480.737 579.791 480.404 580.5 479.5 C 582.553 479.598 584.22 478.931 585.5 477.5 C 592.276 475.817 598.943 474.15 605.5 472.5 C 610.049 472.376 614.382 471.709 618.5 470.5 C 636.909 468.986 655.242 469.652 673.5 472.5 Z" stroke-linecap="round" />
</g>
<g transform="matrix(3.31 0 0 3.31 540 540)" id="3a6e0293-a406-44af-89ff-4ea6c10dc325"  >
<circle class="st19" vector-effect="non-scaling-stroke"  cx="0" cy="0" r="35" />
</g>
<g transform="matrix(0.76 0 0 0.76 669.61 413.04)" id="51e50c0d-d852-4010-9597-a20e7199549e"  >
<circle class="st19" vector-effect="non-scaling-stroke"  cx="0" cy="0" r="35" />
</g>
</svg>