<?xml version="1.0" encoding="utf-8"?>
<!-- Generator: Adobe Illustrator 26.0.2, SVG Export Plug-In . SVG Version: 6.00 Build 0)  -->
<svg version="1.1" xmlns="http://www.w3.org/2000/svg" xmlns:xlink="http://www.w3.org/1999/xlink" x="0px" y="0px"
	 viewBox="0 0 50 50" style="enable-background:new 0 0 50 50;" xml:space="preserve">
<g id="BG">
</g>
<g id="GR">
	<g>
		<circle class="st9" cx="25" cy="25" r="25"/>
		<g id="IHJFyL_00000023257516716697034180000010104931598987840426_">
			<g>
				<path class="st0" d="M15.99,22.65c0.55,0.28,1.11,0.46,1.78,0.48c-1.01-0.73-1.58-1.67-1.73-2.85c-0.11-0.88,0.06-1.71,0.52-2.5
					c2.17,2.56,4.91,3.97,8.24,4.19c-0.01-0.4-0.05-0.79-0.04-1.17c0.05-1.64,1.31-3.21,2.9-3.62c1.49-0.38,2.8-0.04,3.92,1.01
					c0.06,0.05,0.17,0.08,0.24,0.07c0.78-0.16,1.52-0.44,2.21-0.82c0.05-0.03,0.1-0.05,0.19-0.09c-0.3,0.94-0.88,1.62-1.65,2.17
					c0.75-0.07,1.46-0.28,2.14-0.57c0.01,0.02,0.03,0.03,0.04,0.05c-0.32,0.38-0.63,0.77-0.97,1.13c-0.27,0.28-0.6,0.52-0.89,0.78
					c-0.06,0.06-0.12,0.16-0.12,0.25c0,4.14-1.63,7.46-5,9.89c-1.42,1.02-3.04,1.58-4.78,1.8c-1.64,0.21-3.26,0.11-4.85-0.35
					c-1-0.29-1.95-0.71-2.83-1.27c-0.02-0.01-0.04-0.03-0.08-0.07c2.17,0.19,4.11-0.33,5.87-1.65c-1.83-0.17-3.06-1.09-3.74-2.8
					c0.61,0.07,1.18,0.09,1.77-0.07C16.94,26.08,15.93,24.17,15.99,22.65z"/>
			</g>
		</g>
	</g>
</g>
<g id="OV">
</g>
</svg>
