<?xml version="1.0" encoding="utf-8"?>
<!-- Generator: Adobe Illustrator 26.0.2, SVG Export Plug-In . SVG Version: 6.00 Build 0)  -->
<svg version="1.1" xmlns="http://www.w3.org/2000/svg" xmlns:xlink="http://www.w3.org/1999/xlink" x="0px" y="0px"
	 viewBox="0 0 51 51" style="enable-background:new 0 0 51 51;" xml:space="preserve">
<g id="BG">
</g>
<g id="GR">
	<g>
		<circle class="st19" cx="25.5" cy="25.5" r="25"/>
		<g id="pQKerT_00000109017904536143464370000017508564323607055237_">
			<g>
				<path class="st9" d="M25.46,18.28c2.11,0.08,4.23,0.16,6.34,0.25c0.5,0.02,1,0.09,1.49,0.18c1.19,0.22,1.95,1.02,2.17,2.26
					c0.31,1.72,0.37,3.47,0.32,5.21c-0.04,1.22-0.16,2.44-0.28,3.65c-0.09,0.9-0.45,1.66-1.24,2.17c-0.48,0.31-1.02,0.4-1.57,0.45
					c-2.13,0.22-4.27,0.27-6.4,0.26c-2.14-0.01-4.29-0.08-6.43-0.14c-0.7-0.02-1.4-0.11-2.09-0.21c-1.17-0.17-2-0.97-2.2-2.18
					c-0.15-0.92-0.24-1.86-0.31-2.79c-0.11-1.51-0.08-3.02,0.05-4.52c0.06-0.7,0.14-1.41,0.28-2.1c0.26-1.23,1.12-1.98,2.37-2.13
					c2-0.25,4.02-0.27,6.03-0.31c0.49-0.01,0.97,0,1.46,0C25.46,18.32,25.46,18.3,25.46,18.28z M23.46,28.62
					c1.8-1.03,3.56-2.05,5.35-3.08c-1.8-1.04-3.57-2.05-5.35-3.08C23.46,24.52,23.46,26.55,23.46,28.62z"/>
				<path class="st9" d="M23.46,28.62c0-2.07,0-4.1,0-6.17c1.78,1.03,3.55,2.04,5.35,3.08C27.02,26.56,25.25,27.58,23.46,28.62z"/>
				<path class="st0" d="M23.46,28.62c0-2.07,0-4.1,0-6.17c1.78,1.03,3.55,2.04,5.35,3.08C27.02,26.56,25.25,27.58,23.46,28.62z"/>
			</g>
		</g>
	</g>
</g>
<g id="OV">
</g>
</svg>
