<?xml version="1.0" encoding="utf-8"?>
<!-- Generator: Adobe Illustrator 26.0.2, SVG Export Plug-In . SVG Version: 6.00 Build 0)  -->
<svg version="1.1" xmlns="http://www.w3.org/2000/svg" xmlns:xlink="http://www.w3.org/1999/xlink" x="0px" y="0px"
	 viewBox="0 0 20 20" style="enable-background:new 0 0 20 20;" xml:space="preserve">
<style type="text/css">	
</style>
<g id="BG">
</g>
<g id="GR">
	<g id="pQKerT_00000053517226026205099500000011797399482380647837_">
		<g>
			<path class="st0" d="M17.25,6.7c-0.16-0.91-0.72-1.49-1.58-1.65c-0.36-0.07-0.72-0.12-1.08-0.13c-1.54-0.07-3.08-0.12-4.62-0.18
				v0.05c-0.36,0-0.71,0-1.06,0C7.44,4.81,5.97,4.83,4.51,5.01C3.6,5.12,2.98,5.66,2.78,6.56c-0.11,0.5-0.16,1.02-0.2,1.53
				c-0.09,1.09-0.11,2.2-0.03,3.29c0.05,0.68,0.11,1.36,0.22,2.03c0.15,0.88,0.75,1.46,1.6,1.59c0.5,0.07,1.01,0.14,1.52,0.15
				c1.56,0.05,3.12,0.1,4.68,0.11c1.55,0.01,3.11-0.03,4.66-0.2c0.4-0.04,0.79-0.11,1.14-0.33c0.58-0.37,0.84-0.93,0.9-1.58
				c0.09-0.88,0.17-1.77,0.2-2.66C17.53,9.23,17.48,7.96,17.25,6.7z M8.51,12.27V7.78c1.3,0.75,2.59,1.49,3.9,2.25
				C11.11,10.77,9.82,11.52,8.51,12.27z"/>
		</g>
	</g>
</g>
<g id="OV">
</g>
</svg>
